<mxfile host="app.diagrams.net" modified="2021-04-17T01:47:14.998Z" agent="5.0 (Macintosh; Intel Mac OS X 10_14_3) AppleWebKit/537.36 (KHTML, like Gecko) Chrome/89.0.4389.128 Safari/537.36" etag="7GFMg7QfZWq57SQHqkCV" version="14.5.10" type="github">
  <diagram id="Lof0R5rhfGAX3NdKyFyQ" name="Page-1">
    <mxGraphModel dx="4553" dy="1667" grid="0" gridSize="10" guides="1" tooltips="1" connect="1" arrows="1" fold="1" page="1" pageScale="1" pageWidth="2200" pageHeight="300" background="#EFF1F3" math="0" shadow="0">
      <root>
        <mxCell id="0" />
        <mxCell id="1" parent="0" />
        <mxCell id="Hc0r8CP2qwdwPxlLsBVn-1" value="" style="shape=image;verticalLabelPosition=bottom;labelBackgroundColor=#ffffff;verticalAlign=top;aspect=fixed;imageAspect=0;image=data:image/png,iVBORw0KGgoAAAANSUhEUgAACAYAAACUCAYAAAAKoblFAAAgAElEQVR4Aey9d/wuRZXn7+zsBN1VZwzjqKMiigQRyTkHQXLOOeec4wUu4RIuQXLOkjOSJWcJIgiiEhRG0bs7szu7O5tm+/d6t7/TnKe/1bH6Sd/v54/nVf10Vzz1qVNV55w69bHXXnst0U80EAaEAWFAGBAGhAFhQBgQBoQBYUAYEAaEAWFAGBAGhAFhQBgQBoQBYUAYEAaEAWFAGBAGJicGPqaOnZwdq35VvwoDwoAwIAwIA8KAMCAMCAPCgDAgDAgDwoAwIAwIA8KAMCAMCAPCgDAgDAgDwoAwIAyAgY/NnDkz0U80EAaEAWFAGBAGhAFhQBgQBoQBYUAYEAaEAWFAGBAGhAFhQBgQBoQBYUAYEAaEAWFAGBAGJicGPjZr1qxEP9FAGBAGhAFhQBgQBoQBYUAYEAaEAWFAGBAGhAFhQBgQBoQBYUAYEAaEAWFAGBAGhAFhQBiYnBiQYYAMI2QYIgwIA8KAMCAMCAPCgDAgDAgDwoAwIAwIA8KAMCAMCAPCgDAgDAgDwoAwIAwIA8KAMDCJMSDDgEncubLmmZzWPOpX9aswIAwIA8KAMCAMCAPCgDAgDAgDwoAwIAwIA8KAMCAMCAPCgDAgDAgDwoAwIAw0wYAMA2QYIMsfYUAYEAaEAWFAGBAGhAFhQBgQBoQBYUAYEAaEAWFAGBAGhAFhQBgQBoQBYUAYEAaEgUmMARkGTOLObWIhUhT3kUceSfgVfdd7WSIJA/EY0DiLp6FwKBoKA8LAVMCA5gvhfCrgXG2sh3Pxg3p0Ep5EJ2GgPgbEV+rTqktcie7DoXuXfai81IfCgDAgDAgDwoAwME4YkGGADANKlf7aoIihjRNDG9e6apxpnI0rdlVvYVcYGCwGNF8Mlt7Ct+g9yhgQPxA+Rxmfqtt44lN8ZTj9JroPh+7iU6K7MCAMCAPCgDAgDExVDMgwQIYBI2MY8Pvf/z457rjjku222y55/vnnS+s1VQes2j05J6uuBAEffPCBxo14ujAgDAgDkxgDXc0Xk2E9MY7rRvpvq622SmbOnKlxOonH6aDGl/jBeOwLHn/88WTGjBnJqaeeqnGvcT/yGBBfieMrbcf7qNH9vvvuS0444YRkzz33TA499NDkH//xH0ceu4Oae1VO3BgR/UQ/YUAYEAaEAWFgNDBQaRhw8MEHJ5tvvnmy2267JR9++GHlYvCmm25K45Pm3XffrYwvIIwGEIr6ockGZdttt836nv6v+7vjjjtSnFx++eXJxz72sfS3wgorCDsSnEwZDDQZZ36s/uxnP0t22GGH5Dvf+U7yyU9+Mh07n/nMZ5JFFlkkOfbYYxMZCow2f/V9qWf1lTAgDNTBQNP5AmFuaD22xRZbJKzxL7vssuSpp55Kfve7343dnDuO68a55547W+vee++9Y0fzOhhVnMHxsq74ATwCw+yTTjopufvuu4XLjvdgRxxxRDbu//jHP4q+HdNXPKdbntOUr5i8cNq0acL2rFlJ2/E+SnTHgNHkcha+88476l/xLmFAGBAGhAFhQBgQBiYRBioNA7wAi0Vu1cbrmGOOyRaRr7/+emX8qvz0vduNXlN6Ntmg/OVf/mXW97aBqBOefPLJKU7GUcDblJ6KP1w8jyr9m4wza8P06dOTv/qrvyodc1/60peShx9+WHx4Ek3a1v8KxUuEgamJgabzhV/Hl63JvvzlLyc33HDDSM0XF198cbLPPvukJ21DeB+1deMvfvGLtL7U+dlnnw3S0veHDAOm5hgOYbntu37xg5VXXjnB+LRtvWLSVY37mLyHlbatonBY9VW5U5s3teUriy+++FB4xiDxWmeebzveR4Xu1113XSZf+LM/+7Nk0UUXTTAmlceAqc0XBjnOVJawJgwIA8KAMCAMDAYDjQwD/uIv/iL58Y9/XLrgl2HAYDpuUAOkyQZllVVWSZZddtmeHxtEE0QjdM5/5/+1116bYgqXsMcff3yy00476SoBKTJL+cyg8D+ocpqMM+qE0NTGFeFKK62UXsOBm9I111wz+dSnPpV9/8IXvpC8+uqrU4qeg+o3lTO55jv1p/pzHDDQdL4wRfTHP/7xnjXYwgsvnHma8fMJJ4d/+9vfjsScsdpqq6Vz2QILLBCsz6itG+kbo+X1118frPOjjz6abLPNNskZZ5wR/D4OGFQdR4dXtuUHn/jEJxKU//Zbfvnlk9lnnz358z//8wzDX/nKV5L33ntv4DitGvfjiL+2isJxbKvqPDr8oW1ftOUrU8EwoM4833a8jwrdd99992weuPPOOwc+B7TFrdKNP+9RH6oPhQFhQBgQBoSBwWKgkWEAwq5vfetbpe6pZRgw2A7s94BpukHJ1+dXv/pVtrHYb7/9tLGQwl8YCGCg6TibZ5550nH17/7dv0uuuOKKCTRFWYLiwRQUu+yyy4Q4+bGq/5OLd6s/1Z/CwOTEQNP5wgwDigT2r7zySnp/LPOJzRl77bXXSMwZ46YgpG+MhkWGARqXk3NcDqtfu+YHL774YoKRgOEYY+1Bt23cxn0d+rRVFNbJW3HEU7rGQNd8pev6DTO/OvN82/E+KnTnkAFzAIcLdPWJ+Mswx5vKFv6EAWFAGBAGhIH+YqCxYQCLxJ133rlQSNDEMIBTCLi5fu211wrzEwD6C4Aq+jbdoOTz66dhAFdVPPPMM4XY+fWvf53iizrk61X0/w9/+EPq/pX7dj/88MPa6Yry0/vh4ndc6N9knOHa1QS2a6yxRiFGwe/f/d3fpXEx6CqjxTB5Mfda44nmiSeeCNYRgcRPfvKThFOW7777bjBOUdvgAQ899FDy1ltvNUpXlJ/eazwLA8LAsDHQZL6grlWGAdYe7hX/9Kc/nc4ZeAgrcoVv8duul95+++2U5z/99NOVngm6VhAy1zEn4ArY2lEV/uY3v0lYE0J35pSy+MSx+TnWMIC5DyUtc19b971t2lvWPn0bPf7XD37APdJcRQWWP/nJT5ZiHkywLr3vvvuSov1WUyw3HfdN88/jmLUlfOHll19O4Gv570X/m5TbVlFYVLbej95YnEx90g++UkWftmsKn+9zzz2XsLZgb+nflz3bHhi+VxbPvtWZ54vGO2uPMu+r/aZ7Xfo05cFGQ8l0xZdsnCgUFoQBYUAYEAaEgfHAQG3DgMUWWyyZc845UyEBd03dfPPNwcVzlWEAi/6jjz46+drXvpaQjwnQPvOZzyTrrbde8uabbwbzFaCGA6imG5R8PzUxDGBT8e///b9P3VieeuqpGQ7YROHakt+tt96anHXWWclcc82VYQfhFS7PTJjzgx/8IJl//vkTf/rtO9/5TvLggw9meebrySZymWWWSXCtaZjk/nZO2D3++OOF6fL56P9wcDrudG8yzp5//vkMo9tvv30pNh944IHkqquuSkIKira8GLezjMXllluusOzvfe97wThbb711+n6JJZZIlf3k9R/+w39I28Oc4PuRdq6wwgrJf/yP/zFrL2NzttlmSy644ILCEwy06/DDD0/nGBvLhPCJgw46SAY/AY8Vnu56Fg8TBkYbA03mC/qyrmEAcadPn57xW/h4CAtt10uXX355z9rN+POKK66YKhV9Wf/wD/+QzhUWh9DWgd/+9rezetVdN15yySXJggsumK4xLU/mhEsvvTTLy5fP84033piuAS2+hbhXZ51pa07isi6lfhbHQquz9+yz7777pnEx3MuXyX8MMjix7ec+1sbswS688MJgmvw6uU17Q3XRu9HmBfRPv/gBhwAMx3gVoaw8ztjzzzHHHFm8c889twefTbFcd9wbLpvmb+kIUeofe+yx6ZrSyyP+8i//Mtl4441Lr+BqU26RotDXSc+jP96mSh/1i6+E6NdmTeH3kxj2bLDBBsnnP//5jBcxZyJXhGeFyuTdNddck86rJi9ivubaIrvmB0NJ3p122mlpHk3m+fx4P+SQQ1Kvq8ZriurUFd3b0gdDsPxaxtYx+TVLWzlCUdv1XvxPGBAGhAFhQBgQBoSBwWOgtmEASiAWq5wiQlDwxS9+MXgyoMwwACXxkksumS3aTeDgw8997nPJXXfdVbiIF0gGC5KmG5R8/zQxDMBS27Bw0kknZRjwJ6R32223CRsWS7P33nsnZ599do/BiX0jRMiKl4F8Hbmvnbt3fVz/jIHARRddNCFdPh/9Hyw2JxO9m4wzTkEg8ACjn/3sZ5OXXnqpMTZjeDFzAWXDy4v6AEUPcfKuq7faaqv0PUYAKFf8OPOGASg1zGDAx/HPW2655YTyOc2JgY+Pl3+mTk09DxS1U+815oUBYWDQGGgyX1C3JoYBzC/cMw7fhAfn29Z2vXTggQeW8mXWWbfffntWHu5r87zb/nsPOHXWjVyLYHsXy8OHrBvz7cQINS8c92l4PuCAA7J0M2fOLKwvcZnTrAzWsbz727/92+ydfTv//PNL16Ok23DDDScYuPl1cpv2WvkKx4+f9Ysf+P083kTAhsfZ0ksvPQHz3jCgDZbrjnvq0iZ/wzdeS2wty5gK/VCQ4SnE0ljYtty8otDyUzh+Y24q9Fm/+Eqedm3XFLaf5CAIRuShMcw71jMhjzuHHXZYobyIdMcdd1w2F5988skpH2gyz/vxfvDBB0+oX54O9r8rurelD2uxIlr6NUuMHMHaqlC8TxgQBoQBYUAYEAaEgeFjoJFhAB121FFHZQtGLHHznegFCXklLPcU2mJz3nnnTa699trUTeY999yTYNlq31AYffDBBxPyzpel//0HUNMNSr5PujYMACNs8m644YbkySefTNh4YaRi2MES+8tf/nLCybQXXnghYROH9bd9x7OAryMuz8xLAELwGTNmpIpWlK0nnHBC8td//ddp2k996lNyR66Txj3Y8TiKfW46zjhpb5jG4AUFBeOhbj1ieLEJU2MMA6zuKOk5AckcwI/6M2/YmGQ877PPPqmLVzx+cOKfE2WWnlObvs2mcOE79bz33nvT0yI/+tGPErwUWDqv0PHp9dz/OUU0Fo2FgTgMNJ0vmhgG0Dd+fvBuYduul7gKxk7J4e3psssuSw2LcZN/4oknZt6dvCcATiizhltqqaVSvs1pef7zQzlpGKpjGADfR+GIQo8ymSsxJLVTgpwy9HsO5iCM7kjHXHT66aenV93g0v/II49M8+IbhgPUh7pw3QDPV155ZTbPkM7q/P7772d1tnnKC9nJ49VXX80UEeSNMoHr1vCeg3GquXanbDvBaHTwCtum7bU8FMaNy2HRr1/8YNttt82wbHwgjzPGBzi96aabkjvuuCP5+c9/nuK8LZbrjvu2+VsfsRdknPDD0Ojqq69Oxxnr0bXWWiv79vWvfz35/e9/n43dmHK9ohBvBVYXheM57iZ7v/WLr3i6tV1TkIcpvm0c4+WDfeJPf/rT1Ese49q+HX/88T3jjbnc1iQYDTKv847rKfEW8Dd/8zdZWvIww4Am87wf7+TBnvm2225L64c3P08H/9wV3dvSB/kX65Zll102pYFfe3HVitXVrxMl0xUPM1woFBaEAWFAGBAGhIHxw0BjwwDcRqHMscU2Lp19xxcZBuB2z065LrTQQokXkll6rHctXwwQ7L3C4QGr6QYl31ddGwbg1i1/3QTKQcMNLiDBmq+Hd73OSWb/bYsttkjTIiBGiei/8YwLdss7b1SQj6v/w8PpuNO+6ThDuYFLP8OmhV/96ldTYQmKl6JT8bG8uCvDAIQ4oX7bbLPNsnadc845E+IgvLHTnwsvvHD2HeUT4x9aYDiRF7wydxGf73gIeeONN7K0oXroncazMCAMjCIGms4XTQ0D8NhkcwrKPqNB2/WSX6NhpGX5WcjJPE4f4+0Fwbu9J6y657aOYQAn4Jgzfb48e4Nk5hX7zlpwpZVWSn8oDO29hRiNGn3yeyD6xr6FrvAhjyLDAOZES+uvHrByWfv+/d//fRoHwwXabt+8wrZpey0PhePJ7/rBD1CAYxANHsGaYcPjDMPpJ554IvtmcQhjsEz6qnEfkz97QltDYowUWiuvu+662VjkShFrW0y5XlGYX59a/grHcwxOxn7rB1/J06ntmoJ8vOKbuTyfN0ps2xOuvvrqPd9XWWWVbHyH5mn2k95rnRkGWBl15nk/3lnf1B3zXdE9hj60s4wHx8oRjI4Kxe+EAWFAGBAGhAFhQBgYPgYaGwbQaViT4mIPgQGCA6xzrTOLDAO4x88EXpwssPg+5MSOKbs45e2/6Xk4YGm6Qcn3U9eGAbvuuusEXPz2t7/NThjnFf9WH06pgT8E5PaO0O5wXX/99Xve+ziLLrpomnaeeeYpjOPj63k4WB1nurcZZyi2N9lkk0zwYfzVQrDNHbGMQU+bWF7clWFA3sDH6mjCmPnmm6+n3vadkHuh8R7gDchQLlnbn3vuuWDam2++OYsTUrz4MvSscSwMCAOjiIGm80VTwwC8eRkv9W72266XOO1u+e2///5B3lxE5zLhNGnqGAaErp0hLUYPVi+M6YrqkH/PnGqnDbk32H+nbyzPkMKBuEWGATb3LbLIIj15+vynT58ezN8rbLtury9fz6PHE7vkB7jcBrff/OY3M5yh4LJ+9zjbfvvts/f23cIYLJNH1biPyd+vFeF1Vmcfci85nhBYZ953331ZnJhyvaKwrpLQ10nPozf2JnOfdMlXiujUdk1Bfl7xjSFTqAy7vhQZkH3/8MMPM8MgFPb2Ph/iWc7m8ljDgDvvvLOwnHy5XdG9LX2sPmU8OFaOYGUoFE8TBoQBYUAYEAaEAWFg+BhoZRhAx3GS0xbM3hK2yDDATuZwkqVsQ2zW+LjxEkCGD5CmG5R8n3VtGMDVAPky+G/XCWyzzTbB71x7AV795hCXl4ZhrNYxWAn9zJ0ap4xDZevd8HE67n0QM87eeuutBOXNBhtskLk4NlwT4n4Y96xGo1he3IVhAAZgVh8f4sLZ6u6F0T5O0TNjn7ScBAuNY95xl6XlP23atGAdivLXe41zYUAYGAUMNJ0vmhoGcE+48clrrrkm5ZMx6yXmH39vLad0ubbp6aefruTBZcJp+qKOYQDK9FC/4UXA2ukNIPJxOXmI618MyzBKw9WwXUOA8tDHp28szyaGAX7u8wZvPm+efZ25hsG+e4VtbHstT4Xjwe/a8gO8+H3ta1/LfqwVDdeGYTz8eVf6HmdclRHCSCyWybNs3Mfmb2tgThOXySPybYstV4YB4zGe8v0+Vf+35St4Fa1Ds5g1Bfmb4psDSkXlmUyRK+gsjp9DUXDb+3z40EMPZXN5rGFA3kA/X5b/3xXd29LH6lLGg42HSqYrnmZ4USgsCAPCgDAgDAgD44uB1oYBdLq/hw8LfN4VGQbgIhRBwze+8Y3CRTjpvYUuCi+Ba7jgarpByfdX14YB+TvFrTwzDOBOTHvnw5BhwN13351t+kwIVhXK/fhw8ej7dDI9x44zTwuEGbvsskuPJ4EVVlghGxexvLgLw4CvfOUrWX183e+6665sTHLK1H+rerZ2VY1h+17EK6rK0XfxAGFAGBgmBprOF00NAw488MCMD3PnLm2NXS9hlPX5z38+y9f48Oc+97lk3333TYrW+2XCaepVxzCgaN3olZx5wwCMATbccMPUjbrVNRR2ZRjg6Vs29/3ud7/LvBXsuOOO2Rzp29KmvcPEs8qO46dt+UEIz/buz//8z5O99torwZOf7586OIvFMuWVjfvY/DnMQDur5BG+3TzHlivDgDic5/tD//tLz7Z8pa5hgB9PxneqQi+DMcV30X4SfFgcbxhw6623ZusQDP2KcITXEKtPrGFAEwOkruhubW9KH6NHGQ+2/XYVD5VMt79j1PpKoegsDAgDwoAwIAwIAzEYiDIMQJBn911iec9dgzIMmFyAbLpByYNxlA0DvBKSjRPXV1T92Cjm26j/kwvzw+jP2HEWqjN3JpvbU4Qbdh9x7Ia+n4YBXlCUv7s51Eb/zoS9nIKrGsd8b+qRwJelZ415YUAYGBYGms4XTQ0DVl111VQgjnIQ1+K0s4v1Etc+HX300cm888474WQyLoU5iZ+naZlwmrj9MAx44YUXeuZO5s+//du/Ta+iQulhdeL9MAwD7FS3DAPEgxgDbfkByjL27P530kknJSjOivY6XRsGhLBMm2yMsVbL8wS/Tqwyognlb2vYr3/96xPyzpfl/8eWK8MAjVePp1F/bstX6hoGxK4p2iq+77///kzhX2RER99gHCjDgI+l++k8VmPlCPn89F+8URgQBoQBYUAYEAaEgeFhIMowgI678cYbs9MruAc99NBDs4U0bvesc5u6nfr0pz+dpbU8FA4eKE03hvk+GmXDgNdeey3Dqnm8yNdf/wePualI8ybj7L333kvefPPNQsGtp5/dZYxwA1fIfIvlxSZULbsHeeGFF07HVl5AVCXIoV0miDnssMMazQGW9yc/+clG7mE9vfSs8S4MCAOjjoEm8wVtaWIY8OCDD2Zr+jnmmCPjwV2vl379618nV199dbLiiitmPB8D4/xdwWUKQtrWD8MA8zDFXMQ1UygS/vCHP2S04NkUjl0ZBrRxU37CCSdkdaqjsPVx8h4SRh3zql8xX+4nP8jT3WOoSKkWi2XKLBv3sflvt912Kc+B3/hxnW9r/n9suTIMKMZwntb6P3xa9ZuvxK4pbM/X9EQ8h5psn4m3oiKsId+0ePIY0IvHWDlCEc31vpfOoofoIQwIA8KAMCAMCAODwEC0YQCV3GmnnbLF89/8zd9kz2yirRHc42ULbO7ptPc+xGUhd08TL3RKwMfV82AGSNONYb5fRtkwgLp+4hOfSPHGCbl83fV/MBgTnZud+Npmm21SzP7Zn/1Zet9wGf28YcDDDz+cYjyWF6+++upp+V/+8peDY+bDDz9MbB5oahhAW1DsMwdgaFbkfvGmm25KONl22mmnZXWYNm1amo60P/7xj7P3ZfTRN41xYUAYGDcMNF2X1TUMwE39oosumvHRCy+8sIeP9mu9tM8++2RlXnnllT1lmoKQ+SDUT/0wDJh99tnT+nDNQd6VOnV48skns/qWGQbk22L1t3kZLwT2jtA8/NAH/r1/xhjA9lLXX399Fq+OwtbHkWHA5OF7/eIHHnf27DFUZBhA3Bgsk75q3Mfkf/zxx2dj6IorrsjGkLWR8O23307XmKwz/XoyplwZBkyeMeexMlmfB8FXYtYUbQ0D6K/PfOYzKQ9A5hia44mz8sorZ3yizDCgaJ5vO967onsMfWi/8eCQPDZWjjBZx4zaJR4vDAgDwoAwIAwIA+OIgU4MA95///3kW9/6VraANqGVNwzgnlJcPPON06ShhbhfRB955JE9m3VckJ5zzjnJLbfcUqgsGscOGPU6196gcJrql28ms157JZn1s5ez39tPPZ58/eN/kf6O233n7L2PY8/vPvtkFvfcIw/L4v78xw9k7y8/6fjsvaUjXPSrX0rjHLDFJsHvO6+9evp9pW/P2fN913XXzPK+9/KLe76R7ztPP5FstvwyyQpzzZFssdJyE777Ouj5o36PpgU4euuNZNaHv+/hA6M+XtrWr/Y4mzUr4a5m47Eo6X//+zCNXnrppexOZxT15hI6lhfvvvvuWfmcLs23GUGq1a+NYYAJM8jjzDPPnJD/U089lfzVX/1VWsZ8882XfX/66acTXF+TbqmllkowUMjXDUH2nHPOmXAS1itV8vH0Xws6YUAYGFUMNJkvaEMdwwCuAsPFfxHvJp8NNtgg+37bbbdN4K94AVhhhRVS/opQ3ei38847p8a+SyyxROLvCLbvfk67/PLLs3R8X2uttdIy2T+grLM0FvbTMADFPR56rCwL11hjjYwOecMA6Gg03GOPPSakJY8iw4CNNtooS3vVVVdNSIt7d7u+7bOf/Wx2PRB51lHY+jgyDJg8/K0f/MCwng89hsoMA2KwTJlV4z4m/xdffDHBWwDjdK655grylU022SQbi9dee202FmPK9TKOIqPXPL31f/KM03Hry0HwlbZrCmhpe8WmHgNIy7xt8zRj3fbH1kde8U28vGFAnXm+7Xjviu4x9IEOZYYBsXIEo7NC8TdhQBgQBoQBYUAYEAaGj4FODAPoSCzq/+Iv/iJbaLOQ9oYBxOE+TFuIo9BBMcMdXvfdd19irv34ziI/bzhgQgK+n3vuudkmXSDqL4hKNyjv/DqZdemZyaxd1k9mrTxPMmv5OfQTDbrFwEpzJbN2XCeZdeFpyaxfvzVpx33pOJvVO8ZRjsAjjZdiaMWJBZQGuEVFcHvKKadkCgTi7bLLLj20i+HFlGVlf/WrX01QYGCE8NBDDyV77rlnppwnThvDABRH3DdNerwicJoU+jz66KPJ9OnTk2984xtZ+TNmzOhp17bbbpt9Qwl1zz33JL/85S/TOYZrbsz9M0oVjM00f/RiS/QQPYSB0cdAk/mC/jTDAO7UvuCCC7LfzJkz07mB62FMUQbfhT8+/vjjE/gj63Uzyvrrv/7rhNPrKNl++tOfJpdddlmy4IILZvwXwbph6aijjsrecxr+9ttvTzAofuWVV5Kzzjor8xRGnvm7zb0hGkoE7vlmjrO8+2EY4K8S4PnOO+9MlYf33ntvz9UH0CpvGIAhAe/5feELX0i92jz77LM9e5oiwwDoCA1IiyEEcxbz3gsvvJBccsklCV56LO9TTz01owG0qKOw9XFkGDD649wwXhW25Qf59VlVOXVxRrwYLJO+atzH5s9a1cYShqLXXHNNysswAjA32Xz/4he/2KM0jCm3raKwTr8ozuQZz6PSl235Sn6d4dcc9sy8RjvbrilIG6P4fvfddxM8AnkesP3226ceUBdaaKH0PfO3fc8bBtSZ59uO97Z0z/PzGPpA3zLDAL7HyBFIr59oIAwIA8KAMCAMCAPCwGhgoDPDADqUU/62iCbMGwagoEFZ4+PknxFIIoTLA4TNucVl8Z7/rv/9AVRwg8JJXAwCVl+gWyWwlOqiZwwax3kAACAASURBVBkGVpsvmXX+jGTW73436cZ/cJyVbJxxZfypT30q44nGG0Phkksu2SPYhFfG8GLSL7LIIoVlcwLLrhtoI6ggf5RM5rI11CbeobDJn7pCqVRWN9LhuvLWW2+ddBjSHNifOVB0FV1HDQNN5wszDCjipf79uuuuO0E579uPIt8bEfi09oxA2Z/AQ3k///zz98wZZqRlaTACO+OMMybwZYy7+GbxCPFQZnXqh2HAc889lxmn+XLtmbnHlAZ5wwDqtfzyy/fUl3Qo9q3ORYYBfD/vvPMy4wArLx+uv/76EzzieKV/0UluH0eGAZOHr7XlB/n1meGzLPQYKsKZpW+LZdJXjXvixOQP38C7SX5s+f8f//jHE7uCy9oUU25bRaEvW8+TZ9yOel+25St+DBU9cyWetb/NmoK0sYpvTr3jQS5UR64T8lcG5Q0DKL9qnm873tvSPc/PY+lTZRgQK0ew/lconiYMCAPCgDAgDAgDwsBwMVBpGMC9niyavVvQok7jtCoLU1tkv/nmm9nC39IQh8WyP/FK/E9/+tPJ2muvHXQzSlrcU3NSCTea/r4/y1dhf4A0YYPy3jvJrL03lwK7TIGtb/3Fxy4bTDrvARPGWYlRgPE6TlsiXMl7ajH++6UvfSk5/fTTE+6NtjQ+bMuLyQOX0Ztuuml2PQxlYqiwyiqrJK+++momsMEQzJeJURdxv/a1r/W893HsmVOSCF7sDkprF6cmUSCFrgogLVcrHHDAAQnttzSEnMBEoYILSCtDYX/mDdFVdBUG+oeBpvOFreM9P+QZhTtrcdb3uL2ve70Kp/0WW2yxzHuA5TvbbLOla/XQ9TbMGfvuu2/CtTYW3+oAn8cTQBFmLr300rQ8S+cNAzi5Z1fIeA8yeJ4xg4IiL2M///nPs7rk47DPwKjOyiRk7uEkM3MncxjvDjnkkAn1fu2111JPDL6t3jBg7733TtNiCB1qM9fiLLPMMgmKSSsfQ4pvfvObqTI0lCa2vaE89a5/Y7hL2rblB1y51LQedXDm82yDZUtfNu4tTkz+GJbi2YSxbLyC8cZacZ111kmef/75Qvq0KXfatGnpeGYs541arT0Kx2PMTYV+astXbM4qC/MHfNqsKersJ9kjU4+iPSfrh9NOOy3ds7Km2WKLLVKvpG+99Va6z7U2hAwDqub5tuO9Ld2XXXbZHn4VSx9ksrQfDwpFeI+RIxTlqffigcKAMCAMCAPCgDAgDAwWA5WGAf3sEFxisxlAwVWnHFyPhgSOddIqTjtg9WxQPng/mbXdmv1V+kqpLvrWwcDmKyez3nu3Ft8Yh7HfM85qGAX4Nv3qV79K7r///uSiiy5KBRwod3BdXGQQ4NPac1NebOk4FfrUU0+l5SEgsPddhuTLCU7mCk4oNMkb4Q4Knp/85Cc9J1ib5KG47eYO0U10Ewb6g4GY+aLLPmE9joIM3py/AqCoHPg5p47hy5zYy18bVpSO97j/hac3SVOWX51vzI2PPfZY6vK4TnwfB/pgENF03rI8oBXKSa51YP9j7xX2Z1yNK11HhR+U0S8Gy3XGfUz+1JtxDh0xSG0iZ4gtt4xm+qZxPkwMDIOvtFlT9ItGrGvMMADjgaJyYuf5fL7DoHu+Dm3+t5UjtClLacQbhQFhQBgQBoQBYUAY6A4DQzUMUEd215H9omXPBuWI3aS0rqO0VpzB4GS/rQo36v0aD/3Kt2ecNTQM6FedlO/o82f1kfpIGJh6GNB8MfX6XONcfV6EAfEDYaMIG3ovbLTFwGTmK3j6WWCBBZIFF1wwNbwL0WjHHXfMDAMwvg/F6ce7yUz3ftBLeYrHCQPCgDAgDAgDwoAwEIcBGQZICVe62ck2KA//qFrZ+/3vJrM2Xi6Ztcny+okG8RhYfYFqzN11Yyl+x2WCyMaZ+NGk6M9xwZ3qGbeAEv1Ev2FgQPOFcDcM3KnM0cSd+MFo9ovGi/plnDEwmfnKxRdfnCn9uWaAq35eeuml1LMcXpC23nrr7Pvss88+0Ks/JjPdx3k8qO7i58KAMCAMCAPCgDAwWTEgwwAp4koVcdkGZfuSKwT22jyZ9cxjpflM1gGkdvV5cnjh6WTWgdsVGwhsukIy649/HHvsZeNM/Gjs+1I8oc88QWNEY2SKY0DzhXiM5hlhwDAgfiAsGBYUCgtdYWAy8xXc/6+zzjqZ8t+uDMiHn/rUp5Inn3xyoGvuyUz3rrCpfMTnhAFhQBgQBoQBYUAY6A4DMgyY4gLmWoPpJ88WK2aP2z+Z1ae7xWvVTf030A3r0PrktKOKMfj4g1ODBsK6+lkYEAaEAWFAGBAGhAFhQBgQBoQBYUAYaIUBjANOPPHEZLbZZptgIPCJT3wi2WmnnZI33nijVd5Dk5UIC+ovYUAYEAaEAWFAGBAGhIGGGJBhQEOCTcnF/mVnh5WyGy2TzPrd7zTohKH+YwDjk61WDePwByf0v3z1sWgsDAgDwoAwIAwIA8KAMCAMCAPCgDAgDAgDwoAwIAwIA8KAMCAMCAPCgDAwxhiQYcAYd97AjBSm7RNWyJ4/Q4Nf+BkcBq48L4zDg3YYXB3U36K1MCAMCAPCgDAgDAgDwoAwIAwIA8KAMCAMCAPCgDAgDAgDwoAwIAwIA8LAGGJAhgFj2GkDMwgw2hywbVghe8/NGvRGI4X9x8Kj94dxuOsG/S9b/SsaCwPCgDAgDAgDwoAwIAwIA8KAMCAMCAPCgDAgDAgDwoAwIAwIA8KAMCAMjDEGZBgwxp03MAOBfbYMK2QfvEuDX/gZHAaefjSMw53WGVwd1N+itTAgDAgDwoAwIAwIA8KAMCAMCAPCgDAgDAgDwoAwIAwIA8KAMCAMCAPCwBhi4GN3vZEk+okGZRj41e7bBRWyT9z8mLCj8TMwDDxyz8tBHL6z7YYDq0PZONE38VFhQBgQBoQBYUAYEAaEAWFAGBAGhAFhQBgQBoQBYUAYEAaEAWFAGBAGhIFRwcAdd9zRo0OTYYAUuz2ACAFVhgFiYCFcDPqdDAOEw0FjTuUJc8KAMCAMCAPCgDAgDAgDwoAwIAwIA8KAMCAMCAPCgDAgDAgDwoAwMK4YkGGADAEqDQHy4JZhgBheHhPD+C/DAOFwGLhTmcKdMCAMCAPCgDAgDAgDwoAwIAwIA8KAMCAMCAPdYeCSB99Ojrvk/gm/m1/+743l1qPeL1c+/o8T2knbr3v2P026to56X6h+3Y1h0VK0FAbGCwMYBryfPJP95DFAhgKVixAZBozXIJ+sTFmGAcLhZMW22iVsCwPCgDAgDAgDwoAwIAwIA8KAMCAMCAPCwFTBwC5H/iD58tfnnPC74EdvVsqpx41Gh5xx44R20vaTrnp00rV13PpG9RXPFQaEgamCARkGDNAQ4M6f/7/kgnt/kZx39+vJeXf/PLnz9X+rPeFf+vC7yWFn35LsceyFyYlXPpLc8MJ/qUx7x2v/Nzn9hueSg07/YbL9QacmW+93YnLAKdckp1z3VMK3tiDvwjCgKS2oL3Q7ZOYNCYvFLfY6Ntn5iLOTI8+5PYE2bdvSNB2WqjNvfD7Z54TLki32Pi6ty1Hn3Zlc//w/VdYBi1DqS71Ju/f0S5Pplz+U3Pbq/ypNe90zs5ITLn84jb/NAScnW+0zPdnv5CuTk65+LLn9tf9Tmtbad9H9v0yOOOe2FAc7HHJ6cvylDyTUx743CbFgPe2GZ9MftKAvq9Lf8vL/SE794dPJ3tMvSQ467bqEhX0T/Ifyl2FA9UTddJwZndvipV88x+rVJGTc/InXvp5c8+SHlRi1vKHZZT9+Lzn6gruTbQ+ckTDm9j3x8uTs216pxHrbMW5ltw274BFWdlu6Wfq2YQxvbVum0lXzENFo6tCo7XwRy/f6sT5oitu2fK+Lurctu2kby+I3Xde1XSOU1aHptzZ0u/rJ36dzO3sp1uG7HnVO+v/Kxz6ovUZoWs9Rj3/5I7/N1vS2tq8b3vLKvxbSjXXUMRfek+47WEftP+Oq5IybfxKMz+nAUJkzb3qh0fpt1Gmt+k2d+VR9PV59zR4vxIOK3v3wuf8c5GXINk659slUToO8BpnLYWfdnDBnDhITzGlFdffvq04ldzHXt1lbdjVXt5GfDrKf+lFWFxgcNt28YcAiy62RLLXqhumP9UoZzcAzMs50jYes+PCzUtkx8qB8uksfeicbI+At/z3//9y7XsviX/Ho+5mMibzLxhHfTB7FujWfL3J9a998i62QGQkM0jCgCd3y9R/3/13s46pogHzU+G7duQC+aWmqDGJ2P+b85CvfmDv9VY2RqroO6nsbuR96B6NJUfiD2386YYzRptg5MUYXFVt2bJ+cddvLKd3OvOXFIG1i8x+H9IMY54Yz4/eE4CZEH/bIH8X7eTCOpaP/0IFud+ApqT4XHSLzXB19cBPeLsOAARgGAAgUwixsvPVjHWXVtU//MVlsxbV70pHHP8w+V7LN/icFQXTbz/53qsyaZ6GlJ6Sz8hdZfs3UQMAA1ySMMQxoQ4sZ1zyRfH2u7xa25SvfmCfZeNcjShdlTdpXFHf/GVcnlGU09CHvMfYIpb31p/8z7Y/ZvvWdYFoWgbiMCqVdad1tgmms7PmXXCVlDKG0vGPS3WyPYwrzQDDaVEH/vQ137MmP9hWVz/sius27yHJRG2UZBhQLXdqMsxi89JvnlOEr/42JdtPdjkq+Nse8GU75n48X+n/VE79Lllh5vSydjTML19xiz2A+MWM8VI8m72J5hJUVQzfLo21YxCOgexlvbVue0hXzDtFm6tGm7XzRBd8rGvux64O6OI7he7F1jym7bvvqxqu7ruvHmrJuHS1eG7phJL3y+tulQjObz3341W9+O91T3fiT/xqc463syRiitPe0aPL8gztenUAvlPwLL7t6YZ4LLPW9CWv/dbfdvzA+9fnGPAsm6+9wUGuD5snYb2rT1Jur1ef96/PvLLp8KQ/K80WMx/P9geHTYiutE8wHud0GOxycFBkU5POK/b/joTOD9ci34/Af3DqhHZTdxVzfZm3Z1VzdRn4aS/NRSB+LwVGhmzcMuPyR3wQx6umNHIrDR6wV8hi3/99eaJnk2Ivvy/I68NRrs7jLrrFZ9t7na8+sa0wGjEx692nnZ2nJn/Wlxc2Hux19bhYXxU7+u/8PX7H6DsIwoA3dfH3H/Tl2H1e3/fB961fkdnXSYUSSpVlv29I0GDlbXPZIdfIfZpwiutOGIrkfhyGtjWUhepVQ22LmxFhdVEzZobY0fTfndxdPaQfvapp2MsQvwls/ZE2rb7ZbD045kJ2nIWujuRdYsifeTS/9twnxMAhaYe2teuJ57DNWivhJG94uw4A+GgYgNOV09HyLrxjs0CrDAKwXF1x61Swtm4rZ514g+w8wNt396AmnWLEe8aDhGeB889sL9bznHZZXebBW/W9jGBBDC06c+PZgETfHdxbpecf3ZVfftPYJ+qo2+u8M3pBynTpQF6tbkRXWxrscnsUhLgYiK6y9ZQ9DKOqLhZb9fk9a+j9vYAAusDb1dbZnFqpWP+q60DKrpeVTnr1fa6u9axsHHH3+XVk6S0/fWnn5kEW6xSOcbc75EgSw9m6u+ZdIzr/njcL0+fz8fxkGTBSQxIwzaNsWL/3mOb7fi56ZPBEue2wbzuoYBiDgzhtTYVzgN5lFG7+YMV7UnrrvY3lELN3q1jMUL5a3hvLUu4l8QTQRTUIYiJ0vYvleP9cHofb6d7F8L6busWX7dnTx3GRd13aN0EU9Y+jGyU1bD1g4x7wLT1gvrLLB9hP2VF3UfZTz6NIwgL1Ifq/JOt+EUkb7vKCkyjDA0rGHOOvWl1rtGUa5D1Q3zdHCwHAx0NQwIG8UxSlQL6NDRrTcmpunxuZ+XzqoOSZWEREz18esLbuYq9vKT8d9DMZicJTo1tQwYJPdjuxZ4zEWkXl6GQ7rCPK1fkYGsegKa2XpOIFp3/Lh6pvtnsXb7ejzUm+8ti6x8Jw7fxZMP8qGAW3olqfNuP6P2ce1abPpLjjUVyc9eDJs4Sm5LM24GAbEyP2GaRgQq4uKnY/L+r7ON9uDTUXDgEGP87xhAIeX833EHtjGtoV5w4CLH/h1z5oSPR6GDOiVvf6R9Pn8+d+Gt8swoI+GAbiMt84mZDB6pWiVYcCGOx6SpWeBfs1Tf0g7HmtQm1zINy9gMSUdwhhcyyBMw2oEkGBFxqbE6oX1ZJkryBDQ2hgGxNACl2yrbrRTamRB/ZlUqBfWm7j098q8vY6/ODg4Qu2o+w4X/EYvlPJczWAup6ArBgHrbX/ghBMw5H/hfW9laVEyYnFm5TLBbbXvCdl3DAbsm4Uo7YmDG347yUR/nXDFj5N1tt43Swse8lcScP2A1RtGggssyxdm441OoLF9Kwqvf/6fEzBleVpYZBiAKyOMFojHphgrXfruphf/JfEKBQw6isosey/DgIlClJhxFoOXfvOcMhzwDa8XhjXDpeeRVYYBpJ9/iZUzbK+4ztbp1QHGN7Ha5foOrhbI1yV2jOfza/o/hkfE0q1pXfPxY3hrPi/9n8gPRBPRpAwDMfNFLN/r9/qgrN2xfC+m7rFll7Wrzbcm67qYNUKbuvk0sXQzZQOeEVBecyqO/Jnjud919rnmz+Z/XN77sif7M3tRBJD5nxdu7HvSFRO+E9+v/3Gt6xVgnI71J/3YN+102JmpgXB+3+oNAzgxx/6On13dZkIt1ncIVXEJOdn7Re3T/C0MDA4DKFXzPND/R35j+8ugvGbLvbLv8E5kHdZ/yOHmXnCp7Ls/tWxxug69IoK527fFP7N/z5cdO9fHrC27mKvbyk/zdBi3/2tFYnCU6NbEMACZqI1N5JTTLrq3x8ATb5B7TLsglWF6wwD697Trn8nS4s0odEUrVxpZ/ihlUsOX03+YvbNvRV4lR9UwIIZu4zY28vWN2cfl86r7f+nvb5xiBl0C1wRUpcNQxbCFDLIsPlf6mWt9k12WxR/Wtxi5nzcMWG2TXQrntKKrGmLmxFhdVEzZXfSV7aGmmmHAMMa53zszftFH5OcVrwezMZ43DPAejNfb7oCEecywgC6Q8W7eHu29hW15uwwD+mkYcPhZKUPn9AR3jHHHw0rrbZsx+TLDAFx4maCKzUTe9RgKKgMSAhUDAiEKYu6hKFL4I1Dxdxhxr5pPX/XcyjAgghZV9fGbtdU23rlRW6ry5rtZk3JSpamHBQwXrJ+23Pv4CXWDUcy78LJpHBSb9HudOhGHRQVKdcs/b73OpGnfsHTL58sdPPY9j6F8XP5vuNOhaXwYlb8WwwsGfTq/McS61n/DyMELEBEA+u91nmUYMFFgwl1q9GkbnhODl37znCo8oDQwLOMO7qSrH0v8Rq7KMMAvvtfYfI/MkKqqXL73c4zXKb8sThWPiKVbWdl1vsXw1jr5K85EHiGaiCaGgZj5Ipbv9Xt9YG0MhbF8L6busWWH2hPzrsm6LmaNEFNH0sbSDaFO0XVf5H/AKddka4hVNtih8Xo0tn2jmJ51k62rvFFzUV3xYGfx8bJWJPhEUJPf03rDgNCeFKGn90RQdrKvqH56r7lPGBAG2mIA4yjjb6x/fD7wOjzQ8B3ZBvI+/51nPIha+ip34vm0bf57RQT8s0kesXN9zNoydq6OkZ82odGoxY3F4KjRrYlhwEY7H5aNrbzRoe8n5OKhsYBC38Yma0GfBrouvdpG2Xdbe3BIzNJYiBz3ovt/1ZOevEbVMCCWbp5O4/Ycs49r21aMZQ0rZpxclte+J16exUeuWRZ3XL7FyP28YQCK1aZtjpkTq8qq0kX1s+yquvF9qhoGDGOcm2EAa0G7LsBfC4Phjh1e5IC28QRvGMA8Ze+XX2uLUs/eHPbNY6Atb5dhQB8NAziFwmLAW+PWNQw47OxbMkDk3cdw6sK7RkJh7cvIgyP0f/M9p2X5s1kJxSl618YwIIYWRfWw9wwwGzxF98pY3Kahd/WBALVpegxCrG4Hz7w+mN57cLjg3l8E4xSV6/PP3xNnHgGwTDQvC/l8zBoJDJlHgnwc/ptFLYves257OVlsxbWzdoUMA1hIm/EJaThx7fPNuy7d/uDTer77uEXPMgyYKOCJGWdd4iXUZzE8J5SffwfecPPG3YT2Hs8qNvaqDAPMwAbXPAitLY86oR+D/RjjdepQFsfXL88jYulWVm7Vt1jeWpW/vk/kD6KJaOIxEDNfeL7SlO8NYn3g25l/juF7sXWPKTvfjtj/Tdd1/V4jlLWn33RDkWPrBTbyZXWZKt+aGAZwkgGvaNCwzZ60yjAAmm+z/0lZH+WNjadKn6idmsOFgeFgwA5EpIr/nEwD4/hs/lhwqeD8gezE4hSdLO6yb2MUEbFzfczasooGVXN1v+WnVfUb1vdYDI4a3ZoYBtiVinVPYuf7CLkPaRmfKNC8tw/vQtzf5ewNA0yWSnqUv/n8R9UwIJZu1k7W59AJD7fchw2vXGeb/RK8+HpaWvx8eNwl9yccnkMWt/bW+6SGungzw0hoj2MvTPMpkmPn86rzP3YfV6eMUBzWrTYHcDjP4iBHxzCHn2/n1vudmMXHY7LFJ0SJCG1CvzKaY5TL3MCPa7nQH3GYlBPJ9BsHLPc87qKeevhyY55j5X6jbBhQpYuKmY9jaG5puzAMaDPOh4m3YY1zMwxgTkGHy5jHG4/1BV4LeYd3m/V3OCgb494wwM87eLuxtHXDtrxdhgF9NAwIdV5dwwBv6TH98od6AOEtG22CKbOQDNWD0xyW9shzbu/JPxTfv2tjGODT23NdWlj8opAFnbVlye9t0KgtRXnae6/Azp/ItzhloV847j390mDd/IKyTDkfKse7/YLRWBwWFnZtBS7S7X0+ZAFmtPOLFB+PBQuuO4kHLvlWZRjgLZ0WX2ndnvLPu/v1Hm8B5NvmOgEZBtQTjtQZZ13ixWPHP8fwHJ9P3ee6hgFMxDYG2ngc6fcYr9veonhFPKIofl26FaWv+z6Wt9YtR/Hq8QnRSXQCA3XmC+LF8L1BrA+a4rku3+tH3euW3bRNZfGbrusGsUYoq2/oW5d0w3jV1gFla+ZQPSbruyaGAfvPuDqjXx0PZHma1TEMOPDUa7My2hhq58vUf815woAwUAcDXqmP0DeUxk6Gcbc5Aul8HO/aFYVP/nvX/9sqIvo119ddW1bRoWqu7rf8tKp+w/weg8FRo1sjw4BlVsvWBmWeocr6xo8XDJ+Ji7LPrpnEIIgr1CwPvwdiPWJeNojHtUoWj3BkDQM6oBvXHHPdsa2f8yHyY+S+nh72jKLXvJbl0yE79ldjdHl9VD/2cdamspArLqyd/joZdBf23nusMH0PRrfwZZ83hgKWJh/mjQh8On8NIKep7XqDfB4YeOTL9Pm0eY6V+42yYUCVLsrzF/DXhn4xaWINA9qO82HibVjj3BsG4GmcsYXHO4z36EOuH+cdXvY8//OGAVypZ2OSg49N+36hlrxdhgEjahiw6kY7ZYDwDAQjAQOKn0iOPPeORqBZbKV1snz8HZB1gDdKhgFcx+BP3O942BmN6FDV3nW23jelk93JcuoPn05wAYdbKdyNMsn5U8r5/FgcmhUqiyOsAX0c7gfhRD19usLaW/Z88/Hyz0zWWFiyACUtDOf65/8pS4/bVTu9Q7n59Pbf2kcebFrtvQ/tZCBuT+zkf5VhgL+mwLv7od6GWxZ9Vv+yOvq6+GcZBtQT6NTZjHeJF99H/jmG5/h86j7XVRrg9s14KtbNuPfiBCwLcrCK9TduI/2E7evQrzHuy2jzXMUjivKsS7ei9HXfG+9py1vrlqN49fiE6CQ6gYE68wXxYvjeINYHTfFcl+/1o+51y27aprL4Tdd1g1gjlNU39K1Luh1/2YPZOiB04itU/mR/18QwwAv88p6J6tCpjmGAYZb1GvdQ18lXcTSvCQPCQCwGvNKUuSKUn+eXeS9K7Me88qxMbhTKu807r4hAaYncij0tJ9Q4ZYr30VC+/Zrr664tQ3Xy76rm6n7LT31dRu05BoOjRrcmhgEoTkyOw0n1kCfTqr5C8WxunfF6hOzdu3LfYu/jesZL3jDAGw/hIdOXN6qGAbF0Qy5m1+FCf2S5rM12OuzMBO8K1ifIj/PXR0EfaJrFmXfhhHUgGDaPs/aN0BsGIP/m0EvTn/G8fuzjfH8XPZ9/zxtZe+06GpSFJq+nnX7/YfLyhZddvQdP5A89OeVvP/NoQx51DQOMvkutumGCsRr0N7k83/w1xMxhKDGb0twbOsTK/bxhwHcXXymdU9FHpPqY/U9K7JqPIvq3nROL8rP3dXRR/Srb6lAVxhgGxIxzbxjQBG+0Z1zHuTcMYD1l8wprF66zwXgUWqADLDIMwMDN6AV/CF2xV9bnbXm7DANG1DDAnyI3ZTLhdxZdPgUKHY7rFwNN0Wn0EGgAoqXDoiQUp+zdMA0DOBWPKx6EUF45TXuWXGX9Wi6LytqW/2Yuxlns4MrD6OZDFPssbrAszafn/6Fn3pQxgdnnmj+deNmUkbcZBcw532JJ2TUCuAWi3SwuUVjaXXbUg0n8iHNum1B25gpuzvkK7ybxOKOe+fpTJ/M8wIkg++5pH1qAe8t4+srS7XfylSkNqfO5d72WzLPQ0ul/6GJx6oYyDKgn7Km7Ge8CL0V9F8tzivIte19XaeBdW+09/ZKMx/oxzjOLUNxuhcrsYoyH8m3yrg2PCOVfl26htE3edcFbm5SnuPX4heg0telUd74AJ2353iDWB01xXJfv9aPudctu2qai+G3Xdf1cIxTVtex9l3TDMNfmfCz1y8qdKt+8koH7M8va7U92VcUN5VNlGIDhs52GpJ+8wDKUn95N7XlM/a/+7woD7K2QUcB34EEoJ0J5c3CCU5Y2j3CXMspN+CgyHnvP/1D6rt95RYSV7UMOlBRdJdqPub7J2rKMFlVztZdrdS0/LatXnW8o18AE1yHUid80TgwGR41uTQwD/OlKxmn77wAAIABJREFUMI4iBtf03Ovc5KpdDtnZGMGY5lvzLZr+Z/zi2t73R94wgG82/jEs8HfIj6phQCzdvLEmCm2UXp5G6CaMnnm+B1ahE99RWnpvDPQZympLS+gNA7h+1n+r+4xinvr1Yx/n2130TBtM7m/GrSj8fP3hvZbe1rzofOxdUbjrUedk+TQxDEBG7z3c4MnA6vO9DXfMykXWb++bhGtsvkeWR6zczxsGFNUBA7y8xw6jWcycaHkQttFFdVW2r0eT5xjDgJhxnjcMqIs32jau49wbBtAOrlgBr+xzMXbgee4Fl0p1c0WGAawVvLEPVx2DbQxtkOH4MRvCQVveLsOAETUMMAs8FKjW4XbXDIt5rN68S5ptD5yRxbP4oRBX9Si5ASUgO/OWF2ul83kN0zCAhUdoMsA6Mb8g8XVu+2yGGJRpkzmWaRgCfH/TXVMaWn1Q9heVQ3+hWLS4PkTRX3WvOV4dfBp7nneR5RIsH0Pl4hbd4oGVfByuRrDvhPn6Y+VkLoY47Q2TsjyqDAO4X87ytrtAuYPUrKTMWMAzPb/os3LKQhkG1BP81N2Mx+KlqK+64DlFeZe9r6s08PfqGWYZV0zWG+96ROZGjm/cB1R0d1fsGC9rS51vbXhEKN+6dAulbfKuK97apEzFrcczRKepS6e684VhpA3fG8T6wOpXN6zL9/pR97pl121LWbyYdV2/1ghl9S371hXd2Gjb3O8FYWVlT4VvTQwD7GQTdGzjytcbBsy86YXU0JqTVJzaQ1BpiiryxzC6X4qVqdCvauPUnd/V9837ntP/Nj9ss/9JmRykiJZ+PrF0hHaIo0qgW5Rv0/emiEAhsNyamycoaDhAY8o4q1voYEk/5vqma8tQez1ti+bqfslPQ/Vp+s4ULIssv2Zf5zBPJ+vnKgyOGt2aGAbQD/6uZt9mZLdg76jz7uyRY4b6jrFpck+fB9cY5eOHDAP8QRO8y1qaUTUMiKFbqtj/1ndS3siJdnOTbW0mRG5sp2U59eqNqnY/5vyMr/Ls0/GMfsL3gZcRg2/k0E1/pjDvxz4uX/+i/8gXaZcpzO0aLpOPg1cMI7wi3mOpKN82hgEYHoQO95m+wh8e5fAjnn6b0tzk/dQ7Vu5nhgHorzC8w3gHZanR1PDC/eqhw5oxc6KnextdVFdl+3o0eW5rGBA7zr1hQBO80bZxHed5wwDzJoOBqa2tzANNkWEA7UdPZ8Zphm0LGUvwBeNpISy0mRNlGDCihgE2QXxjngXTyZLT1WwqAIRZ+GIJaQDJW+KFAIJA0MBKuu0POnXCRBxKl383TMMABhKWm2a9be3HHTUun/J1jf1v/UA5TNZ5Bfsp1z6Z9QsGGyFXSZc+/G7i3ahbnS2kX1FAhhZVVn+EY7SbHxOipSXEqhKlu8W10Ltbg4F4Yd0lD76d+PtHyIcNi6Ul9BsLBLD+W5VhAC6SrI7mLsncmrDgMCMObxGKKx5fRtWzDAPqCTjqbsZj8RLqr654Tijvqnd1lQYeq2B2+bW26LEwZzOCAMLwnB8n1KOLMV7VnqrvbXhEKM+6dAulbfKuC97apDzFrccvRKepTae68wU4acv3PM/t1/qgKY7r8r1+1L1u2U3bFIofs67rxxohVMe677qgG16AzI0n7k4xdKlb/mSP18QwwASJrJOaXk8HHb1hgK21isL8Pmyy94PaN7XnZPX/cPvfGz35U62hfkEBmFe8ez6Gi2zunA2l7fodV19ystEf6qAM5EVeFohcKS+76sdc32RtGaJF3bna9pZdyk9D9Wnzjn263VnfL+OAthgcNbo1NQygPzByQXnpx5x/xtuEP8kf6kOUMXYQjLTIO/NjiHQhwwDeG78Af+atYJQNA9rSDfm30ZaDcngGzX7XP5Oc9v//UIBbPC+H9mu+ojWjv1LAGwaE+q3Ju37s4+qWb1cs4KGDNHbfOB4u4MXQCq9b7K+NbhgyVOXfxjCAawFC+doVzcZDQ3HavDMeQ7va6FSQKdN38NF8+Ueec3vCHs5oBv/Ix4mZE31ebXRRXZXt69Hkua1hQOw494YBg8bbsMa5ra+4Spw+wuDM8zIwivyCb2WGAXxnvcaV3Hm9p+Ec/WfZ9X1N50QZBoyoYYABCMaJ1ZO5eMLq16yNcaVowAgpq/IMY4u9js3iszgqU0Tn0/r/wzQM8PXAigkjCU7xGh28u3sft+2zt27jbpxQPn5xg4sQHwdlt1n7YABAP6GUxyUVTMG7RIOR+LRFz/QbhiLGeGg79QwtmlByGm0wKMAYgJM3ZmRiEwVxcPNvZcKIWBDw3t93ZN+rDANgUlbuzkecnfhNJha1lg9WfRYvZLVo8UKhDAPqCUuabMbb4iXUP7zriucU5V/2vq7SwHsMgN9edP8vM3xa/hfd/6tso8hm3t4T9mOM+/zbPDfhEfn869Itn67p/1je2rQ8xa/HL0SnqU2nuvNFDN8bxPqgKY7r8r1+1L1u2U3blI8fu64jv67XCPk6NvkfS7eLH/h1JohjTYwSpUn5kz1uE8MAcxHKeh7BelPa+H2U7QnyIW56m96z2LQeij+15z/1v/rfY8Df84rCz3/LP3u3t+wTUe7g2QSPkAioTbDb5r7YfFmx/5Ereo+N7IPzeXY919ddW+brwf8mc3U/5KehOuXfoZja6/iLK38olWxu69o4IAaDw6Jbno72v41hgKVFjoMR7Npb75NwaMvoTcgJY4tXFKLotjR5ua6lKTIM4J5zS4uylvijbhhgbWpCN29kbO2tCv0VULZmZO2Nwtfq4ENTopNvSMbt4zZ57sc+rm75m+85LcUH8nfSLLDU99L/0MZwB15QJBs96xiTtTEM2PGwM4J0X2eb/dKy0RvUbVedeP2W++EVxGhGWXXqZHHqzIkW14dd6KLalu3rUfVs+h4UyVVx/ffYce4NAwaNt2GNc9PPmWEA9OR0v2ET7zymy60yDLC+4FokrkAhn9Bh46Krji19Xd4uw4ARNQxYerWNMgCZ+xE2EyyOrZP9omTfk67I3tt3H/oFFu5XzIrRx6n7PCqGAVbf8+5+PTvxg7WdnUa37zGhP9FetDjEGscGO5sCX57fANgC0X/HLY7fnCHo9N+rntfaau+s7D2Pu2hCWty4F7m8waUcGxmru2+f3RfKgjpkXVtlGHDS1Y9l+WIhZm5+8tZidn8SrkGr2pr/LsOAegKcJpvxtnjJ9w3/u+Q5ofyr3tVVGnjPK3mlvy/DTsTlF1X9HuO+Dm2eq3hEPs+6dMuna/o/lrc2LU/x6/EL0Wlq06nufBHD9waxPmiK47p8rx91r1t20zbl48eu68ivyzVCvn5N/8fQjRMnXkh16Jk3NV6DNq3vuMVvYhjgFfsIL5q21afHgBpFFT+EpVyXhvCtaZ6KP7XnMvW/+j8WA36dE3InbvnjaQYhMPIU5FD5+8iJ55UWrLMs7bBC70475Kq667m+7toyT4+mc3XX8tN8fYr+h4T1Jl8rC0Oyu6Iyyt7HYnBYdCtqk5chFZ0oL0rr36N049CYeYaiL6oUrcgqrc9Ov+G54Fj1MniUO1YmCh+T66Yy6Zf/x9gYBlgbCKvoZtcbQycO6OEJo+o3/fKHMjrZ+ptT3r5c/+zXhV0aBvRjH+frXfaMvsawxZg17xTwOa705Rsu8g876+YsXkgOny+jjWFAXmdheZphAHWzd12Eg5D72ZUo1L0pZqrmxDIaxOqiYsouq5d9a2sYEDvOvWHAoPE2rHEeMgzgQK+Ne2hq/VLXMMDiW4g+eNk1NsvyXHGdrbM8LU5RWMbbZRgwooYBZjVmICLMK5b9/TxHX3B3ISDs/hrymG/xFdMTrkVgqfN+1AwDqLN3VYQQqU476sRhcrY+KDoF4++UwhLQ52uLQ/IoMsbw1lhYCfr0Vc/n3/NGVr9VN9qpMC0TFpMO9+OxCeE/i1dftj+JM/+Sq2T5zr3gUkn+ZwsZ2oVyn+8en+RvdLOQheP1z/9TVkcsRG2hjheDqrbmv8swoJ7Qp81mvCle8n3TNc/J51/nf12lwTl3/izDKnf/FOXtJ2AvpO73GC+qT933dXmE5VeXbha/bRjLW9uWq3T1+IboNDXpVHe+iOF7g1gfNMVvXb7Xj7rXLbtpm/LxY9d1Pr/YNYLPq+1zW7pxitN7q9pj2gWF837buk2GdE0MA1Dm21rfrrtrQgMvAPZ7kSZ5KO7UnLPU7+r3fmCAQybmmhilf5EMh7K53sT431b7TC+cT0w4/9Vvfjvonrwf7SjKc+ZNL2R1LvNY2dVcX3dt6evbZq7uUn7q61L1TPvo3zo/wwoncrvyVBSLwWHRrYiuXRkGWP7+kETVYboYwwDK84eu8BYyLh4DjFY+LKKb759jL76vkOf5vPyznZTnAJp/75/X3GLPjEd5JS9YZ83Y9IfXNPLvxz7O17vs2R9G2n/GVWn77HS78WTk5UbfMvr4cvptGMB1Glx70JTm3hvxIOR+fp7xV1d4WhU9G/3hz2VzYlH6GF1UbNlFdbL3tvbIH26z70Wh4RCatBnnMYYB4zrOQ4YB0De9auX6Z3oM3dsaBpAfXgBsLdHmgG2It3dmGHDK2RclxxxzTOtfESAn23vPsMruVPcCGTodISwWHp4ensEWWTRymt2UuChvL/vxez15+PzqPo+iYQB389jggJGE2sIdakzC/lflemOjnQ/L8mVAh/LFAtLKxo2XjwMD5hsu5Px7/8zpGkvPPSL+W9UzVumWFoxUxc9/78HjU3/I0nsBsuVfFXoLqGue+kNWL0t39Pl3ZflTD6+Q5UqFfN2q/sswoJ4wqKePn/ywMZ19P/Tk5fDi48TyHDbJfoxiZBC6382XGXquqzTAStcwWoZDu7cutUJ95V8zOnY1xtvwp1C78++a8oi6dPPltKl7LG/15eu5Hi8QnUSnKgz08PiS+SKG73W5Phj0fNFl3a0vBsVzY9d1Vt+ysAc/BWuENvNFqMw2dOMUpF3Nxry/7YEzsrk8VMZUfuf3objFLqMFHhdsHYX717K4oW8yDNDcFMKF3gkXw8KAV+5xgrKsHntPvyTjf3tPv7Qwrp972HuW5dnvb6ydjGfDf5uWV2eu93n2xC9ZW1qatnO1n7doX1v5qdWj69C8wGIUgLykq/xjMThqdPMKqRiPAUbfaRf+KMN7mfEO8WMNA5BZcRAP/H17oWUSXGjbWAt557A6EnLQz+KiRPbfhvFcRDdfTw6ZNa0bVzpYO4uukl3m+5tkcbxhgL8yw/KoE3JQhnr2Yx9Xt/3oYayuXA/Ns80vGKNhNMY7u2q46gobK7ffhgH0kdW7SYiy3Oo4CLkf9LL6XfnYB1nZVoeyMHZOrKOLKio/tuyifO19W8OA2HEeYxgwruO8yDDA+sKHMYYB5LPwsqtneC8zXvVl2nOIt3dmGBBjFEBaq+RkD+sujP0dRSiizrrt5R4aYSQw+9wLpGDAojk0qZKH3SXPPfcX3PuLnjza0noUDQP8AgPXIaG24UnAJgsLOUEfimvv/DUB3urNvhP6xTin8v03c5VEeUUD1ruj2v6gU3vS+7xCz2fe8mLWJtyAheIUvbvkwbczoxHu7vTxDpl5Q8IpqqIf1oxGQxbvxDvt+md68vDXDXxvwx17vlEWaSwP3Cf58us8yzCgnsCoLs+ponkZXixtFzwHzxeGCwtvevFfGuOjrtIAzxm4P6MscM31HtYeC3mHNR5xcFNl7wm7GuNt+JOvR9FzUx5Rl26+vDZ1j+Wtvnw91+MFopPoVIWBuvNFLN/ran0w6PkC+nVVd+uLQfHcLtZ1VudQWGeNQLo280WovKZ0Q+hmgjjmcgThoXz17k980isKqgwDWKPZ6Vr2rNyr3YSOMgzQ3NQEL4orvPQbA8uvtUW2F63if97t81b7nlDI++z6ROYf73mu320J5e+9vBS5+A2l413dud6nr7u2JE3MXN2F/NTXu8tn6Ezfd20UQB1jMThqdOvaMMC3r0o5H2sYQH/gOYm+5mfuzXmuKtsr4kbBMKCIbt41NteUNR0nHIQz+oQO3nGnNofqLI43DOBaF67DbfrzhyO73sfVbT9GI6b8t7ZxGMrSL/39jbM283297Q7IvlmcUNhvwwDkoFwF0JTmXq/Rb7kfB6GyQwtzL5Dd4x6iV+hdzJxIfnV0UaFyeRdbdlG+9r6tYUDsOI8xDBjXcT5IwwCuh4dPgHs8cVt/1wlDvL1zw4A6FZnKceoujGHANohR7puVm9Fu3xMvzyaOvPt64uDe3ty0f2OeBVNBnKWNDQdtGMDCyC8I8vXHysq8IjDZ3vTSfwsOjDbCSMo1AwysP/NeG5jg/SmsvAtMXJPbxI8iPF93BjGTrMXhDjqLc+lD70zod/tGSNnLrr5plpZJxX/nGaVn/h3/ObHl7xODhqF4Re/8gipklEI6f49SftGIkYRZ04LvMu8ZRXWQYUA9wVBdngOdY/DSFc8ZhqLHL6hRnuQx5xezq2ywQ8/3mDHuy2nDn7rgEb4OPDdVtpCmTd1jeWu+3vpfjx+ITqJTGQbqzhexfK+r9cEw5ouu6m79MCiea+UVhXXWdTFrBCu3zXxhaX3YhG6s3Zm7ba2NIrrpJtqXPRWemxgGQA8vyEepxonPEJ0QRngBLXFkGKB5KYQVvRMuhoEB7m+1uWLeRZarnCu4atLio/wPHQTx3iUxRu9nu7iTOs9jfXkI67keweocunO9i7nel1l3bRk7V8fKT32du37GhTmyXWQKXecdi8FRo5tfT1R5DOCKVA5m0YYQXZGX2glsMO/vug/F78IwANkonnptjFk4SoYBMXSDpqaUQgafl397umLoA/b9O28AEVJ+Hzzz+h7alekBfL51n7vex9Utl3gLLbNaT9vwoGvpObBoWCFkHNi3stDLMat4v+VfZBCGBwPi0K9lZTb9Fiv3Y+9YNMaZrzbY4eCMdvkDj7FzYowuKrbspnQOxTedIgrk0Peid7HjPMYwoKhOTd4PY5x3YRiAVxO8CWCEWdTeU659MjUyZKzmPYu05e0yDHijv5suFh/cL2Q/O5lKJ+502JnZe4DL4POdj2t2Y97cwc5JeIDCZGmeAPjOYtCnu+LR93us7LhygFPtRb9Tf/h0T3qfV+i5rWFAW1qwyeKOnU13Pzp1scTiA4UY9cYowlvelblDayuM9FaN3DOOkQYT00X3/6pH0Bhyn3nkuXdkfYihxu7HnJ8wQdDX3A1izIN+hGl7C3KzNsVCD3ycfM3jCZtVrLcO/8GtqXs0wwd5hzxCMElybxjuQrhrB9rhmt0bM+BmrWgDGOp/3tURIHM3nBmnUE+sBjlFRB38BhF8FpVT9l6GAWHe1XacQeu2eOmS57RV9DB2jM8SwhtsfDCG/Lf8FSK4mzLjIoQluEW7/vl/SoU7bOC91XJegBIzxj2+2/CnLnhEDN2s/m3qTtoY3mplKwzzAdFFdKmDgbbzRSzf62p9MIz5Irbuw+S5ZZios65ru0bw5badL2LotsVex2brAdYFGOoW7Yl4X2Tw6tsx2Z+bGgagDDOvAdCY65dwx81+jR/XvNmJGgxJPf1kGKD5yuNBz8LDMDHAFTO2f8T1e1VdUGYjS7E0HPhgn3nbq/8r3UcedvYtCZ477XvoIEdVGU2+w2vZ08JvUZiyb4UHc+3ozoeflZ2qpD7e1bMvI3aub7u27GKubis/9e3v1zNK0n7k3QUGR4luTQwDUCyD5fkWWyFB2cn64uonf59wpzwKPe8pas75Fis8QGb90oVhAHmxlrQxb+EoGQbE0g2+Yu1C4YicDXkaMmXWg3g73uaAk9N1Yf5QDXJwrxPZ+Yiz034Bx/Cv2eacL8ubMro2DIjdxxlW2oRe9g/dvP7nuEvu72k3BhT5MqAvV9H4H55qrC/g8/4bhwEtj2EramPkfsyx6IRwMX/8ZQ+m+pgLfvRmihfvaQG9EDoPazNh7JwYo4uKLdu3o+2zGQbgraZs72vf/DwVM86HjbdhjHMb3+gTqvqr6CqBSx9+Nx3P9Bf7Y/gA+kd0E9CU+ZGD3zbm4b2+rLa8XYYBfTYMWGWD7bNOs84rCv0gpHOZBFE2F8Xnfci9PYrXsjT5byjcPZiqntsaBrSlBcw4X+fQfyaMIm8BtKm1MPLZ/9Rzuj5UNoYLIcU85ZrlnU9nSkh7x/8TLn+4px9M6WdxikLScr9nqN+8sC2UnvvuWDyH0pa9qyNAJj0bQ28ckK8DfYahRFlZRd9kGBAWHLUdZ9C5LV665DltFT1sQPL4Kvof2pjhhs8bXIXSMoGH8Nh2jPu82vCnLnhELN1oQ5u6k44Fm/dcEqJ5GW/19NNzmB+ILqJLGQZi5otYvtfF+mBY80VM3YfJc8uwUGdd13aN4MttO1/E0M17CwjNM/l3bdelvp3j/tzUMID2onzydx7m6Wr/ZRigeWncx4fqPzkxjGLKX5dYdvrSYwBFhD+FD6/Ly3p4h6E6Zfi0XT+jiDBeWxZySASDu1D5sXN927VlF3N1W/lpiA7j9C4Wg6NEtzaGAWVY5xsynvzaI9S/XRkGIJP2xpLUISR/8nXwJ+n7fZWAKY9i6MZJ9SrZGfnnDQNoM96j/OE+lGBeZuyfuzYMoPyYfZzvs6bP3vAsf7KdA6C+P/KeFiiLQ3Y+TtXzMt/fJOPxo6CobSv388Z3RW3+k+L70qy91jexc2KMLiq2bGtDTGiGAUV0y7/HqMqX13acDxtvtGHQ47xLw4B8v4T+YwCaP+DblrfLMKDPhgEhoWWoU9k8hE6o8I7FORZlPt23F1omCbm8ZgB4d1I+TdEz1rl+8Fc9tzUMaEsLFodYX8PsQ23ACrvOCR9/T4rlgyVjVXv5zoJkna33ndAP5MOAxDKvKB8sAfHyUDSp4N7KuxGyfFgMrL31PgnWrVbffMjGK7RosDywIEKxlk9HnhvtfFh6j5vFbRJyEog8wS0W8WVp8XThrUJJx0IQuqEYLEtb9k2GAWGhTNtxBq3b4qVLnoMHCY9XMFZm8GMYCSkbfD7+uei0BldqfHfxlXrKJx1WeYxhKysfth3jPp82/KkLHtEF3drU3doew1stD4VhXiC6iC5VGIiZL7rge7Hrg2HOF23rPmyeW4SJOuu6tmsEX2bb+SKGbv7qC78WKHqOWZv6to7zs/e6VEeYbm1lvYZgPbTnYS/Lt/z1YevvcFC27grthyxvhZrThAFhoJ8YQBln8wJXojQpi1Nea26xZ5be8iFkH4mnmvwhoCb5143LHMsJyiKFHV7wkK2VyW9i5/q2a8uu5uo28tO69B3leLEYHBW6NTEMYG3IegXZuB9z/plxiafWOn3nTzXnvURaemTwlv/Gux5RmC8n4S0eYZH8yfIdpGFAV3QjHw6ahQyhuI4XWTZeb62NPjzthmcnyLmREeNhd5Pdjsxo1w/DAOrRdh/n29D02WMn5JHGyyFD8k90Dh5TVc94zLA6MgYsPjze3vvQlIrMH/59V89t5X54NAntK6w9zHlF+4fYOTFGFxVbdhd0L6Ob0c+HGKjky20zzkcBb7RjkOPc1oDsd/M0zP9n7oDu8E7P41gn7j/jqgTDoaJ13DwLLZ16OA4Zmrbl7TIM6LNhQB4Abf/jup5OxuoIS7G2+XSRrq1hQGzZuCVCEcbi4ujz70qvEoAW3gVPbBlV6SkLtzXHXHhPehd36B65ojxIyz1Z3AnCwo/TT3WEj1gBYbE+86YXkmMvvi/BzRB0KLq/M18+DIOJEosprDOHhR9OYOH6h0V2FxtjGQb0Rzg0KnjJ43iQ/3HVA58Br5yAq8tj2o7x2LbF8ojY8rtIH8NbuyhfefSHn4iuk5+uXfC9rtcHg8TdONe9DZ20Rpj8Y7oNLkJpOHWCNzT2HgjHbn75vw91/xqqo94Jz8KAMNAlBpANIXfhGkcMzrknNiS87bLMUF7UA49+yH+41gXhODKgO1//t1p8eDLM9aMkPw31Ub/exWJw2HTzhgGcHEfJwo9rXItohiwEfJ9x80/SsQfucb9804v/UpimKK9BvmdsWvu8EqjfHgOsjV3RDcUWB4WQcSNDQylYZnxk5Zv8h2tyMUI1GfEgDAOsDlNtH2ftHmZo/d5EpwJWuVaZ66TBGT8wV3eMx86JpG+ri4ote5h95ctuO859HsN6HsdxDrbRPTIfgHf0aFzZwvipomNT3i7DgDExDKjq+EF+/+WeOyWzlp9jwu/J6x+sBOgg66myJvdG/7E7npuAQXD59vYfuUwSBiY3BtS/6l9hQBgQBoQBYUAYEAaEAWFAGBAGhAFhQBgQBsYbA94wwJ9kRUEy2fr2kDNuzE5x+7YOyjBgVOk5SMOAUaWB6jXefEz9p/4bJwzIMECGAY0XWG8ccmBQIfviGRc0zmucBovqOlrM/fkLrwvi8K29dhYOxdeEAWFAGBAGhAFhQBgQBoQBYUAYEAaEAWFAGBAGhIExwACnazkZnP/VOSU5bvJa3MXn28n/0BXD49a2mPrKMGC05O4xfam06kthYPQxIMOAMVgcjdpAwgAg5DHgN5uultz1erVbi1Frj+oz+owq1EfvbLNBEIc/PfEUbfrE14QBYUAYEAaEAWFAGBAGhAFhQBgQBoQBYUAYEAaEAWFAGBgDDMgwYDzl8yGZvd6pL4WB0ceADAPGYGIctYH0yL2vBBWyGAtIKTv6g37U8NSmPkXGKWDw8Vue0IJffE0YEAaEAWFAGBAGhAFhQBgQBoQBYUAYEAaEAWFAGBAGhIExwIAMA6RTaKMjUBrhRhhohwEZBozBxDiK4MY7QMhrAO/eOGi/5P4n39eiS9jqHAP3PfP75PUjjijE3gfrLSOvFcJd57gbRR6sOrVb9IhuopswIAwIA8KAMCAMCAPCgDAgDAgDwoAwIAwIA6OFgVOueyrZe/olyT4nXJZMxiskhLfRwpv6Q/0x1TEgwwAp0Vop0Z667r5C5awZDPx2o5VQ7L/OAAAgAElEQVSTd7bfOHl7+030Ew2iMfDbTVZN/rj8HKW4e/bSm1vheapPBGq/FkPCgDAgDAgDwoAwIAwIA8KAMCAMCAPCgDAgDAgDwoAwIAwIA8KAMCAMTG4MyDBAhgGtFam/2n27UiWtGQgoLFdmiz7d0Oed7TZK7nr931rjWZPd5J7s1L/qX2FAGBAGhAFhQBgQBoQBYUAYEAaEAWFAGBAGhAFhQBgQBoQBYUAYmMoYkGGADANaK1J/9JN/TvAKIMV2N4pt0bE9HT9Yd+nkvmf/0BrLU3kSUNu1CBIGhAFhQBgQBoQBYUAYEAaEAWFAGBAGhAFhQBgQBoQBYUAYEAaEAWFg8mNAhgEyDIhSpt7/zO+Sd7deV8YBFS7upfRvr/Svot1vNl0teeDx96JwrMlu8k926mP1sTAgDAgDwoAwIAwIA8KAMCAMCAPCgDAgDAgDwoAwIAwIA8KAMCAMTGUMyDBAhgHRCtV7fvqvyavHn5j8YeV5ZCAgA4GBYeCPK86VvHb00ck9L/9LNIan8iSgtmsRJAwIA8KAMCAMCAPCgDAgDAgDwoAwIAwIA8KAMCAMCAPCgDAgDAgDwsDkx4AMA2QY0JlS9YEnf5saCLy/4YoDUw5XnSbX9/6d1B8WbT9Yb9nkZ8ccmzz46NudYVeT3eSf7NTH6mNhQBgQBoQBYUAYEAaEAWFAGBAGhAFhQBgQBoQBYUAYEAaEAWFAGJjKGJhgGPB+8kzS5nfy2ecl/NqkVZp2NB9puv3zA8kHb/0w+eDVK5MPXr1CP9EgEgNXJh/84ofJ+//5fvGYljx6pPmF2iRcCwPCgDAgDAgDwoAwIAwIA8KAMCAMCAPCgDAgDAgDwoAwIAwIA8KAMNBXDMgwQADrK8CkjJyERh8aMxozwoAwIAwIA8KAMCAMCAPCgDAgDAgDwoAwIAwIA8KAMCAMCAPCgDAgDAgDwsBYYUCGAQLsWAFWhgYyNBAGhAFhQBgQBoQBYUAYEAaEAWFAGBAGhAFhQBgQBoQBYWByYODJt29Prrj/3Am/t/77o5JbS3eRYeDGJy6ZgJHbn78y+y5+MDn4gfpR/SgM9B8DMgzQ5KrJUxgQBoQBYUAYEAaEAWFAGBAGhAFhQBgQBoQBYUAYEAaEAWFAGBg4Bo74weHJZ+acb8Lvx2/eNPC6SCHVf4VUWxrPteyyEzCy7IZrCyPiWZ1j4O3/9UTy5r88kvzivz3Sed5t8a90o8ubxrFvZBgwQMb52//3dPLIL25OHnr9xuShn9+Y/Obfnq7NWJ5+947knFtOT6ZdeHRy3SMXJT//Lw9Xpn111gPJNQ9fkEy/9Nhkv5MPSPaavm8y48rpyfWPXZy8+3+erEzfT0A3pcV7//ep5MHXb0jOuuGUhMXibsfunRx+9uHJ+befkUCbftbV542l6h3PX5WceNnxye7H7Z0c8YMjkgvvPDN57Z8eqqzDY7+8JTn/tjOSA049KDn49EOSKx44L/nJP/6oMp2VD82efu+O5JK7z072n3Fg2qcnXX588qNXrk34ZvEsvPeV65Jbn72i9u+1//zghDx+83+fSm577spk5g9npPXe+8T9ktOuOSm5+anLEr5ZWfkQ7DUp+/6fXV+YVz5v/a8/CTYdZ0bbF/7xnnRsMcb2OG6flIdc/dAFCYsii1MW/vJ/PJrc8vTlyfRLjk1mXndywkauCb8ry7vuNzCY8trXb0xe/vDeWvUm7y7q3rbsum2rE+9n/+mjMYj1dIhH+Hxi+ZPPq+1zG7q99Pt7U5547IXHpDz5yHOOSC6+++zk+Q/urt3nbeurdPV5kWg1+rRqO1+05R1t1xf9wFIb3kM9oFmTdZmve+w86/Nq8kxbu9obtKVbk/qG4sasxUP5TeV3z/32rkbrdb+2/9W/PlY4zz7z3p3JJff8IN07sAedcdUJyV0/uToYn9OBPl97vvOFqxqt36ZyP6rtoz/Hqo9Gt4+6kJnQv+x1b3zy0lTehtwNec8Pbj4teeyXtwZ5X78x0UV92sgg+92ufuXP3tHmn7KQPXZZHdqui32ebdbkXa2rh93n3jBgkTVWS1D28mO94mmUf6ZfrnzgvASZALLiw846LDnzhlNSeVA+7lPvfLTuQJaQ/57//8Br12fYeP79uzIZE7KmMjzwzeRRP511f2U5+XIH9R8aeMwje29SNuty1mwnXzE9lcccde6RyQV3nJmE5MvIrimraE1o5SIntzrd/dI1E+qz3q5bZtj4u28vkBoJDNIwoAnerE2TJexCXhpDi1i8Ni17i/13yIxQMBBomr7L+G3mhiblM/Zt3DGX1UlLnSxNlQHXF+ZdMPnc3N9Ntj1kl1p51ym/n3G6kNe07TP46g2PX5LqYtDJnHrNiQnr1V//z8craddURi7DgAEYBjC4UGAvssaqGUPBCrKOsuqVP96fLL726j3pSPvZub6b7HPS/oWAWG2bjSek8ZaX311lpVQx3c9BFMq7DS1wE/Sl7y5c2J7PzTN/suMRu5UuykJ1afrulKtPTCjL09GeeY+xRyhPBvSux+wZTEd6BnmV0vTF3/0oWWq9NQvz2HjPbSaUPc/yyxXGt3r7EGWa1f+d//1Eangw59LLFOax6JqrpQYClsaHbIJ93lXPC6y6Sla2z0fP7YQobcYZtGaSQYD7999ZMNh/866wQuqyq6xfGCefD4yTuZdbbiCCEYTROx21R8Kiw3DH/7I627fYuseUbXXoKlxrx82y9kOHogVEF/wpts5t6IbB0urbbZIuLK2ffcgGkTnyzf/641p9H9sGpW/Hq0S34dOt7XzRlnfEri+6xEwb3mPlt1mXkbaLedbq0DTsam8QQ7emdc7Hb7sWz+ej/3/iPfuevH/PWsHPo1XP9736wwnzK0r+hVfv3e/6fOb/3soT1oJe4Obj2vNXFlw02fqgnRKEM+q34c8Z6gP1wWTDQIzMxGiBkmuJdSbK7OBjyO22OXjnoJLM0ncdxtanrQyy63YMMr+DZx5Saz4899bTg3NR23Wxb2ObNXlX6+pR6XNvGPDsb8qNAaAd7ecwCmsFWzfkwzmXWTa5/L5zs347/dqTsrgrbbZe9t73hT2zrjHZFjJpDA98/mtst0lhehTkFnf/Uw4sjGdlDStElm71JOQQWJ26oPDioByKPp/enpHHIVv0eX1zyaXSuF+cb6Ge9z4ORtdeDs1a1X/PPy+42ippnoMwDGiDt3x9x/l/rLy0i7a3xWvbsjf3hgFDki22mRvatBdjHhu/yA3q5MFBAUvz/W3L07AeIu5WB+5UK+865fcjThfympg+u/WZyxN0L0ZXH8IbH34j7EGnrYxchgF9NAwATJyWnXfFcIdWGQZg5YHC1EDAIPqHBRbJ/vN+l6P3DJ4EXej73+uJR7q8so/8rn3kwoEMyBhacOLEaEDIwmO2RRbvecf7FTddry+eEBjQIcX+1xZZvGcRdNeLEy0ZYVIsFq3+1J2FC9av3shgk723LTQOQPDmF0bkxSLLL35RkOUZYtNNrhfw4ZHC6mwhC+KvLtS74KYNobucmhoGrLPz5hPqn2+P/lcLomLGGfTd4fDeTQHGTN/bcsNkjiWXzvBAn+M1I9QfbMoML4Qs+M2Cl//fWGKpwkkslF+Td1gnIlz248rqUscwIKbusWU3aWeduBfddVZPP0AHsBFKG8ufQnnWfRdDN07iWP9a+NWFF5vQ/2tuv2lwjqxbR8Wr5jui0XjSKHa+aMs7YtcXXeAthvdQftt1GWlj59mY9sfuDWLpFlP32LV4TNmTOW2XhgHsKfP7BNZ9sy++ZM98fVNO4FxlGGBzPGvK0Kmxydw/att4zq/qt/HqtxiZCX2NRwAvo0NGtNLm6ydLrrdGz75kUHuS2PrEyCDHGfuxhgFt18XQLGZN3sW6epT6vKlhwI5H7t6zxmAsIm/1slLWESiwDZ94V1hsre9n6fA0YN/y4Qa7b5XFO/q8o1JPqrYusbDI++k4GAZwQM3L+mjTnsfvU0gPow9u1T1tSIe8GN2HGVLwDhm9pSGsMgzAU4BXiO1c44DPIA0D2uDNt3+cn2PkpV21uy1eY8ofpmFAzNzQts2ma+MwcZ084H/GC/HWUpZmXAwDYuQ1sX2GYafRCbqypsTo6euLLpHRmf12yOtKWxm5DAP6aBiAG24bIIRf/G6vkqzKMAD3GpYexe/Lf7gvHWQAAHDYt7yAhYGIonmvE/ZL3XnbiUlcPl774wuTzfbdPkvLoK/rHrxsgFd9i6EFLtnW3mnz1MiCU0oIBykP680TLjuuR2l+/MXTShlRVT1D38+7bWZGL4wrcKvP4pm4WAxiEIDFU8jVCu5arZ84MY0bKivjiV/f1mP4QTvtm4VMfPOtvGKWx2pbb5S6D6Fc4mCdxfUQXC1gaSykPjDpoh+eGKxuGCpYOkLbYCDQO+b8o1JX8FYmFpxsbC0tFri//tdepSPpi8q19xgDWB7egtfXQ8/NBCsx4+zRt27J+gPDE/Bh9OfqEfiJ9VceL8TDvZtNYCjn6VM2Xbhb8hNrfnNgZcSEjBMr2+roeWSVYUBM3WPLjml3KO3r//xQaoBhdLCQBUo+fix/yufX5H8s3WzRg2cErtfhlAPlw6fOvvHU5Mvzf2REhwvjJnVT3GZ8R/QaT3rFzBcxvCN2fRGLt1jeQ/q267LYeTa27TF7g1i6xdY9Zi0eW/ZkTs9e1NblPlx/t48E4biG9d/s2a8rnn//7h5BMKdj/Uk/9k2HnnloajCa37d6wwC8l7G/44cRKvs8b1iAkAoXppO5T9S28ZxT1W/j228xMhP6feO9ts32yPBO72oYg7pvLfWRgf0gZB6x9YmRQY7zOPCGAaxzba7Lh28ErnSNWRdDs5g1eRfr6lHq8yaGAci2TdaB3PKye8/pORCAd69pFxydyka8YQA050SmpcWbUeiqXdzjWxwU3qnC54czsnf2baOA91bKGAfDgHtevnZCe2hr1Vj2CnIUVhiH2hVT6Beg7zIbrNXIMIDrFvzBSGTs7D+q6jIow4AYvFW1YdS/x8hLu2xbW7zG1GGYhgExc0PbNi+38TopT0D3hVeQqny4Itt4Ibqpsvjs7bh2gH1eWbxhfouV18T0GfReev21Mnoi8zb95588tHykY15hk3Un0LCtjFyGAX00DOBeIwYI1hwHnX5w6uoe1xo2aMoMA3BFZYoNNhP5+3lQBFs+MKomAwdAoZyz9P6keJN8msSNoUVVOV7B3Y+T52ZNykmVopPSRXVcd5ctMjrj+SAf776f/jD7HupHz2Q33GPrVOmVz6PtfwR9hgEEbz4fFnNn3XDKBIW/xUEo5y05uSvKvtUJUd6xeKf82RdbotN21Sl/ssaJGWcnXnZ8hoeQlTCbpbmWXTaNgxIeHuXp6CdArKn9N4yTvOVw1wsBNgyGZdzBXf/Yxek9Z/auyjAgpu6xZXs6dfG83aG7prTg6hEMOIwGXoBv5cTyJ8unTRhLNwypiq5voT6nXfORi8A1d9isB49t6qs04yvwVd+F+y5mvojhHf1eX1T1dyzviVmXxc6zVW2L+V61N4ilW0zdSBuzFo8teyqm54SWrR+8oWgRLfBgZ/HxsgaeQnERLOb3tN4wgLsT8+m4QsB7Iig72ZdPq/9h/i+6iC7CQH0MlMlM4HV4LIP/YRgfum8cD6LGH/vtTjy2Pv2UQY465rxhAKeWm9Q3Zl1MOTFr8th19aj1eRPDgO0P+5Pcg/FV5v4ehXWoT7mO1cYm9zf7PmcsLbvR2tl31v9855CYpbEQ2djjv7q1Jz1xx8EwAD2FtQOjTnvGqMnTwz+zLjOvoBgFhA7IEZ+9gz8Yx7sijwEcbrG1PnXA2MIUYr7s0POgDANi8Raq+7i8i5GXdtnGNniNLX+YhgExc0Pbdns+YIevyvI66fKP9AjI4cvijsO3WHlNTJ9hiGg8mKv5Qvtpf8A2r1dpKyOXYUAfDQM4tchiwFuV1jUMOOeW0zNA5N1xcOrCu0ZCYe3LqDPYDj79ozu0iu7JqpNP3TgxtKgqAyWzDR6U1VXxm3znVIvljcKtSVrimsUj1lacng6lx80cZdCP5t3B4pkBB1cQIEyz912EpjREYYt1ZtM8d522V0YbNrxN0mMtb3QNKaGb5KW4Hwk2YsaZX2Sdcf2MYH96TxGP/OLmLA4TlhmKsDHCk4Xvl7yr2gNPO6jnu4/b5pnycWXGnTqWHs8qhrEyw4DYuseUbXXtKjTLd/oAa9rF1/7orsuQYUAsf4qpd7/phmDO+p8NaExdlfYjHiNaTB5axMwX/eYdMeuLKozG8p6YdVnMPFvVri6+l+0NYukWU7/YtXhM2VM1bRPDAE7k4WnK9jKcXmxCtyrDAPLa56T9szk9b3zapCzFnTxzmPpSfTkoDJTJTFDK2n6DwzyhOvkTjigiQ3G6ehdbn37LILtqZz/yiTEMiF0Xx6zJ69CibF09an3exDDArsiqe7I1Tyvkq6RlDOOdyHv78NfZ+ru2vWEABzFs/KNMy+c/DoYBKJ9ow/yrrJx6prX2UPd8e+w/+gmLd8CpzeR6IcMAriXAVbblyaEO81ZrZZaFgzIMiMWbtYE9FfjCI+uqW22YHubZfL/tE7wfewxa/Hz4/Ad3J8ddNC01nuBQFAZnyEExgOH9sRce0/hAY74M/5/6DlPW6+vSBq8+vdEe+TQ4Azv0AfsePIT4uPZcZRjw4Os3JMwf/MrGjeXXJOz33BCqC/ssG4scZLU4yJMxJOPnjXb2PvEjz8J4+Lb4hBgKgMf874ePlhsQYERuNOUaOfSdHFzd8oAdE647RjkO1n09fLkxz7Hympg+w3Oe0R7P3aF2eA9FyG5CcYreFcnIZRjQR8OAUGfUNQzw1mhXP3RBT2djPWdgsTDvljFUtn+3zSEfWQPihtl/G9RzXVpU1YcFndEBd0VV8Zt89wrNpp4VMAQwS0rczhaVu+k+22X194yXBZK1q2tPCH6Disu7orqVvedEkNXv/NvPaJSHVzA/9PqNjdKW1UnfJgqJ6o4zv8mZfumxwT7xmx9vxILVsGFhyXXX6EnLQokTFPadsB/XCeT7vq5hQD/qXrfsfJ1j/rNQY0MHfZk/yKvMMCCWP8XUtShtl3TDOMUwV8Z/i+qi9xN5iWgy+WlSZ74YBO+IWV+0wWld3hO7LouZZ9u0q2mapnuDunRrWo98/Ji1eD4v/a/Hx5oYBpxy9YnZfIuSvymN6xgGnH7tR16A2hhqN62T4tfDiegkOk12DNSRmdj93NxtjtIhTxPvfhoBev571/9j6tNvGWTXbe0yv7aGAf1aF9dZk9dtf9m6etT6vIlhgCmE2fOXeRIso5PvdxRCxEUpbdeGIcfCtbTl4dfyrEfW22XLdA3EYSuuVbJ4hKNuGMAVsSYv2f24vdODbHaPdZlc3eKQNn9i1bc/9Jw3DOBK2lW23CCrB8/5a2pD+fh3hgOMC/z7rp+tnBi8cT30GtttkrXX6G8hV2YhPy2qO0pS87xraQg5GNSDt8BVw0V5Vr3vh7y0qszQ97Z4tbxQWnusefrZM4bIFt/CMsMA+sO8mmEkndfdWR5dhl3ODaF6cSWL0cNffwRPsPfew4p5XqH9zIc+z60P2ilLY2kJuSbEx8s/e3f+eKtYfuN1g/lg1JEvM59X0/+exzfVixSVVbfP/Bgu0rE99stbM1pw5XpRmaH3RTJyGQaMqGEAHWwDx7s9gtHYez8wL7jjzFqAwKLmivvPzdx6w8Re+6eHaqUNASvmXd3BUVYG1zF4JfMhZxzaaVs223f7lN5f+u7Cab63PH15apGHWykszPY7+YCeU8q+rrhOshM0TPD+m3+2MuhXNo72DXdU1tdYD+LGhZPcMF76HqtUrgBAUG1p6oZ+A3DVg+c3Tk85S6zz0Wlkf49oVR1YMOMBgbaRR1V8fY8TOtUdZ/SLWUyjYMYS0NOeu4BYcNJv39tyw55v/kqMHQ7fLfvGJG18CoMBMxAoGw++zJjnugqLftS9btkx7cuntZOeX1tk8cxjQ6lhQCR/ypffxf8u6QZfM/4ZsuDvor7KI443iX6jR78680Xs2qZOv7ddX9TJOxSnLu+JXZfFzLOhenf1ru3eoC7dYutp6+Q2a/HYsqdq+iaGAd5wo40XujqGAf70BvcnTtV+UbtHb95Un0zuPqkjM/H8Mu91j/l1dacE8t7t+oWdmPr0SwbZr7Z2ma9XEKPsRd6HHAPFxrQLj07w2hoqr1/r4jpr8lB9Qu/K1tWj1udNDAPwGGn7fU5chzwkhujh33FF6pzL/Om6TDy4Inv3rrFRmPv4XmmEYYA3HsIzg4/rlTz9vkbEl1v32bvMNjm0rbmR+4WuPvZG0m289XrDAAww1tpxs6wPGXNtZNumsO+3YUAs3mibXc0KbpGJsqY99MxDE7xSGJZnW2TxCddu0ad46AKjFo/24n2XMWzydfvG1dOGA/Q/2x6yS+Of8bx+yEutbk3CNni1/NGl2LU/0Ih+wCD+yHOOSA9VmdcX5nxLY2GRYQDycbv++4vfXSjBjbulYe6HPzSlO9ehWh5FYZdzQ6iMh9+4KcMYNCcO3ohMtwX9vHzV5P14c8jnx5qIU/72M3w2MQywNOAd40r2jaZX4Ju/srsLuvdDXlO3z7y3hiIdr5dHcXAzT/Oy/0UychkGjKhhgD+Zawo6wnmWXy4dpExKZ95wSjZgiyxZcEUDuFiUoFD2zJDBdP5tzU56l4Gs6be6g8Pne+0jF6btQQjllV4whKXXX6uW6x2fX9WzuYxl0p52wdEZvY05EbJo2uO4fYLujmyCYQJn0xAqz/f12TedlsXxrlOnX3Js8u3llw+W/52VVkywVAvlHXoHJmwCY2HG3fGheGXvmASNBizEyuLmv9mdK6SfceX0Rmnzeel/tTCmyTgDf5x2oG/ACJMuG2HGgRkFzL7YEom/RoA+8CchMJaxfqF/yQtew/1icy69TJa3xelXWFdh0Y+61y27q7bTH+adhJN7lq/nkaGNcgx/sjK6DLukG8YrxqMuufvsjCZd1ld5VfMf0Wi8aFR3vugn74hZX7TFW13e08W6rO0827ZtoXRd7Q3q0i1UhybvYtfiTcpS3D/xLK9YuvGJS0rn0I332jabb6vihuhbZRiAAbudgGVe9wKgUH56N17zjvpL/TWqGKgrM+EEFqfWbN/BPdkoN7nKjn2zvYevDqKtMfXxcqkYGWQ/2smBA+iKK9x+5O8NA6zPfMiBqqLrM/uxLq67Jq+iRdW6etT6vIlhgHe7TF+h4EdRipvqJtcaoYCxvsYoxE7EM35f/+feQ3R5wwDob+Mfma+/k3vUDQPs9DQKPxvv/moJ2prHlz/Jyyne/Peq/2YYgIcFO2kM7aF5kz7z5QzKMCAWb97IFcVq3jMCOh3DYWi+8Ia4GKF4DzVg2OS15OENA7jG1fJtEqIghs79kJf6/qv73Aavlrf3igfuvPdb4jC/QH9obGksDBkG3PD4JQnGANCTa77veL73GgJkr01obXE33GPrCeVbPSzsam6w/PIhxlKGJTPGvveV63raw5xn6WxMo6O0d0Wh5dvUMIB+8Xj3V1NjXGTldUX3ruU1dfvM8xj0j9YuH/rxOPdyywXj+Pj+uUhGLsOAETUMMEsyJkzrSLu7g0Up1lvexYdn/BafkJPcxmR8CIC823qfZlDPdQeHrw8TqG+HPWNlx506Pm4Xz14Zb0wMTwFYjq6365Y9lnncm5IvkysArI70V/471xPYd0KUsBbHL8osDv2G5dmOR+yWubfiG+6E2Lxa2rIQqy3LL+Qqpywt35hEMZQgDywT73qxvlECEy5tIC0LUO6OqSpP3+MERk3HGbwFYxPDiA+5xoSrO/J9wj06Fg9DJL5j0WpGBmYswH1AFo8FRz6fLv/XVVj0o+51y+6ivRgcLbfxOildOQ3AGLN8qwwDYviTldFl2BXdcG1lOPMLxS7rqrzi+JLoN5r0qztf9It3xKwvYjBVl/d0tS5rM8/GtC+ftqu9QV265ctv+j92Ld60PMV/Jr1r0+bRKmW/nRQhfhtXvt4wgPs9OUHGyRRclyL4MYUL+WPg3i+lkPp9NOcl9Yv6ZVgYaCoz8fsP45+EGMifd9vMHqH2INrUpj5dySD70T7zjrfomqv1ZR4wwwDuml9p8/UTFDQcPPIndOnP0MGqfqyL667Jy2hdZ109an3exDCAthe5qkZ2Cw0vvPPMHvlIiF4onEKuqrnGKB8/ZBjgDYe9Z4BRNgzA6NJO3a629UZZO9mjGP/iJHq+/VxDbN/rKALz6U2JaHn4kEOA+fh1/g/KMIC6tMXbT2fdn3ln5WQ169x82zjtbN4rkJX7A3woPE22ij4ob1RAXt47jdcPMRcgF2z6w3U/+fZDXppve9X/tnglX1yvmy4H+oYOTJWVnzcM4NS1nZ7HuwNK83x69jJ4zG1K85BhQj7vLuaGfJ75/6azMUMFuzbOMAg9MeTxinjP+/L52X/rhyaGARiHh/rMdBb+oGqXdO9SXlO3z7x+cJE1VguuG/16AxwabatCvybMy8hlGDCihgE24LA+ooM5bWsTt1mqYglpEykWySEg4AoJS0d+efcyuOJAeRdKN4h3dQeHrwsn82mLnXi39mOthcsnH7eLZ+sHyoGJ5ZX7uIuxfkmvZcgpur2rDgSbXmDGfUy2iLF2sOGxenNNgL0nXHmLDXqsKFGsetdLPq3lEQq9AM/flxWKm3+HEnL93T5y2XXAqQdl9f3/2jvz/2uK6s7P3zCTZMbMJJOYSTBGAy4gooCsoqCCyKbIrgiyK7I87DsIssmmD6ugPOy7bMqigEKMGCXiQiLGOBPHyTJJxllM7rze9/H099z6VndXV3Xfe7/3+fxwX9W3u9ZTn646fepTp8K4sf9ekWSHUSyO7vVrAOrynj39o7snjojw+OMaohKklFCR9QrPHycAACAASURBVFg1d0PmaosJ20g7jDmWZ8w1WZ99n7pgMUTdU8vuo71+gqdcn2cbMaBkfPLl9HXdh9zwnuIVdRS6vuqnfPodmyTP+ZNn6nwxxNhRql+U4Cl17PHzRa5eljvPlrQvTNvXt0Gq3MLyu/4v1cW7lqf43YgBZpjhnehytJjJ2RMDTEesC8PvMMtD4fzNJ+oT9clKx0AXmwkLgOECsh/HcLl917PXT+2bJLc+Nt+W2iCH6Ht0Fzv3fQhyAEeGYqvyJHvagb3U27+wRYabW4bQi1N18jpZp+rV89bnXYkBtB+yBotw/p3z1+w09jv5YzJjQcYWrUiLHSXEAulixADu23jBu2M73+eZGMD51Saj0z5zysTYxPvFM44ZNU8CJjNkbem8O3F73haGxABv18e7aOihoS0/nptNHVtjSvzSODl4Y93A5MYGQzx5VL9nrh3d8asfC7EWL1w7sPvsfo+1wRPYPTEgFrfLPf/9Oytbby5eaaf3CFLnabtJHp4YAGEQmzh9gZcL30dNefT5rHRuSKmLHW2BRxnis5BPm/HIwhzINcRx7BqGSwgkbXnbGNuFGFCHdztS3PSVtrK7PO/bXpPaZ8zbm+y0NJexkdfmIQhsqy5dVcnb5A4Zoq1tbTZyEQPmlBjAxwMdzYtDR5uLJ9ir5kIDV4oGBtzStIGBxTwIBl6xZbF66J27dfVKfTnq0uMmDZIEu+VNDt6Ndl26Lvf9LiXOW4ql9RMF5/eEcVjQt/pBzkBxYfeLEQpgJdtz71rfT+zg4Ikf3L4sb84XscEVBS4sO/zPxGVlobyGz9v+H3TqYVV6FOxwgbgtvS0WUwc+vNri63m5USn1PWOh3tymoewwpkBeQTnH+G+um+g7xhDfN5wpa7g6/pLjR/7jGAa1xX3DO7at4sVYfxavjzB1wWKIuqeWXdpODBUoQsg+9mHWRgyg/NzxqbTusfSlcvvKS3dWiirjay7rPFY33SsfiyTD+Zdh6nxBX/Y9dpTqFyX4Sh17SvWyknm2pH1NaUu+DVLl1lR+yrM+dPGUchRnaYzqcpSAHfWALoJhvascU4gBuOl94PmbOufdtS6Kv4QByUKyWJcx0MVm4t00Y4/BWI5nE7zssaBiC18Ql2M7C/uWc0l9hrBBprSPRZ/TP3tK6w+vnWZzGIIcUFdX7LHs3rOy0QfDuH3rxV108rAu/E/Vq2fV57E6cy+HGGB5YS9l08Tuh+87YtOW9Rfh9vvutqzPLJ2FLNhamphdl3h1xIDrH768Ssu55cSdZ2LAboctHQNlLuNNDnj7rJOD947AzlVLkxp6YgDYg/BD31h56ISpeVm8aRMDrNwuePObeaytbaE/OsvLncVBq4MP8bplefZJDBjCXurrnXKdi1fy9kcZ3+Zs0ynlEsev95h8CV+z5RbJXptTy0qJVzo3pJTBURW0kbUq4m+w7dbj/2DSxknGNwh1JpPwOIVYObZ21YUYcMyFx0bx/v4j9xuXzRpbrKzce0PYa7r0mZcpssUrBcQ3I2SgS/7m+m8ct/0/b7hxa9tTbOQiBswpMWCzXZZ21ppbKwBApxrAvVJyznXdzmr3A2vIELT8hw67vBxNdXnkhTXVDlFeFtud3JQm9Znf4VynHHrWJB80Yd648Ko7AgH3ZJ795svwHiGaFv1tpw6DQ1h2+N9/TMVcY4Xx/X/PTuLsvO/+w5day/Ppv/mzByt2HWxQYz75OLru3wiV+p7hjcMmdfuY8f2BKyt/FAALAvb85ieWvJfA6DPXQyG7z86IxRWspR0qTF2wGKLuqWWXtt3O9eXDN8aCTyEG5I5PpXWPpS+RGx+Vr37b2mNKwDHnQsXK0L3+xxjJdHFkmjpf0Od9jh2l+kUpBlPHnlK9rGSeLW1jSvqu3wapckspuylOH7p4U/56tnwM60IM8Av7nHvYVZ4+PaRUFlz4YXzi2DuI4F3zVPzlfSqZSCbCQDoGUm0meCZjVy3fHtihYrtdcWVu39joWUP2Q2l9hrZB1rWd4/BMRl3CadoxvTvtmMvkPvVi5NRFJw/l2kWvnlWfh3W2/yXEAMuDEDIHm8bMkyC4alu42ueYAysc3vn1uIcPb4PniFcrk817ZitjLGDz3bwSAyAFm6cIFurQ3di0ZT9PDAjteU/95V2VjGw3sckgJTRiAJs4zFX9sz+5ryJQ0U/eJp6S56yIAb5ubXizY6FpHxsb8X7S9vvco1dW+Lr0tvMrufvNhL4ObOqy8bNPYsAQ9lJf77brEryS954fO6CSC/htKy98XkcMQNY5RJYw/67/S+aG1LJYXzQsoVfYgj42V47Q5tmOB35g5HEZs0eH5Vk+XYgBsTU28jViAHmG5ZT8H8Je07XPsDn9wVveWvWB9QUkCHRKs/M3rRMig1QbuYgBc0oMMBaOAYAwXKw7+YoTK6B89r5LOr0MsAIt79jZQSUvUmrari9HU77e5Q5GpKa4XZ4x2Jmc6nbBwDqzODCr6vKHwMAHBe5A+Ih59IVbxt4fPHvQs8gf+vbNVb5NbMyt9tipitdkPOMcIhhF1JUPWHNxVVdff9/OlCEtzLgcN/CnXHVSVc+uRxD4uug63aiBrFLfM/uQoY/rsHH+jWdXfciHjvUF2LZ3wEIUXs6Csji4xbEPMzxm2P2hwtQFiyHqnlp2ads32GYtcxOZoziEP1O8eM5HGM/DecTq0HV8snR9hrlyY1eO90ZxypUnDY6vPtutvLqNaZLXcPJKnS98H5SOHX3oF74+OdepY0+pXlYyz+a0q2uart8GqXLrWo8wfp+6eJi3/sfHky7EABbzTfez4+66yNUTA/x3UJc8FDfej5KL5CIMdMdAF5sJx5vY+HfoGUfUfn+Yh8jf+KPXDbo5orQ+Q9sg6/CI/omMUn4mbwzk0/RA6Xfjht4TfbtK9WLLK0cnJ21XvXpWfW7tDMO+iAGWrye9tm2mKyEGUJ7f8IXL9XklBqx5cnU1btn7VBdCcvAbuvD6aTYmNv2YnFNDIwZw9IpP43GLHbHJru3TcT0PxACrUx3ePK6vfXC5l2FLXxd+5t6Lqz6rO0L5yy8urfF4YgDzArp2158dOz2EvbSunbH7JXglP9v9Dsb5lo+V0XTPEwNYkH3m5XuqHfTkGfMg8/Ivnxq73+8q8zrSh69f7tzg82i79pshzr3hzDH22IRFOpsLeU8N12xUa8uT5zZ2DEUM6EPuQ9hrcvqMNRlIW9i2Dz3zyBHjhq3TMC6DPY4Wr5N7Fxu5iAFzSgzwBhk6HNdVsNB8p3tDWR2j0cf317CZyXdt3m+fyNfHG/I65+Woqw9nnVh76s6f5CwwBjX/46yNujy5v99xH6ny5QygWFyYfFY2rtticZruTcjhZw9W6Z/76f1Vvrhxr8vDztNikOVDti6eV1RhV9XFC+/jEcEGcBYWjdkZxmv6D4N2/W22qtrjPV80pdOz7saMUGYT+Pqb+vPWzR0N7g7DPOw/E5Nhff/jD6ri4Q3C7luI8mrpCP2CyrZ7vm/imY/HB75/R/lIYIL3cVKuUxcs+qy71Su1bItPmDM+eWKAyb0thK3sy227nsCPG598upy6+/R2nSM3dmf4c5j8R5Dlq7B8HJEM1w0ZTrzvDfNFCh4m8qoZO0r1i2nPF6V6Wck862Xe15jr8+S667dBzpidU/dp6OKhLNb1//47FLfYTfLAQ4/pHpxJ2RQ39kzEgHVjfon1ve6p7+cRA11sJmesPrUa/5rOLrZjQRkr2cE1VLtL6+PHfuratw2ytN3mSRVSwOV3fmowOcbqic5pcx0LRbE4TfdS9GKffiJ+ok6eo1fPW5/bQhOy/tqP7+0sZy9Drq9+YOn43SbyDnFLiQHYrNhERd3X23SzES6wDTMxLxNhXaf13y+UWv2awtDTgnkHJQ2LhF3qXUcMYBOR3/C2yyF7J+c7T8SAOryxkdNkzGarLjIj7r3fuLFKX7fmcMtXr67ieJuYP17G6pAS2hETQ9hLu7S/FK9+93vdWlFTfTwxgN3zxGXTKEQ/5Ij9HG8NPg8INCkyDuOw4dXnE7vOmRti+TTdY83H6sZx5lzbGhJrTtZ27Po8Sz2m2taVhiIG9CH3vuw1Xr599pm3vxx40iFRvHS1kYsYMKfEAH9GES/P/d+cPFcRkoC5/2EXeNfzuv3EgvsoD9ppXff5crzTnUuEq5tYG/AkYIObhezej8W1e3xwWNw69pb/AMMjgKVNCZlAbHDk/EyfhsV03AtRPmwsXLn751xzD7fsxHnVZpste+7j+3PP2ox8lg4c4uaJ/Dl//rHv3dZYhqULwzueWTp75m277piVR5in/qcZk1LfM++Gve6YCO86LfT6YO5swEqMuQbTjWf8cD9U1394MLF4Fr74j4/Vxq/Lx0+YHzrxo43p+6q71aVL2ZYmZ3y6aM15YwYhso39GDdMhnxkE4d30cpsC5vGJ582p+4+vV13lRvHxpiiSjvb+tnKUZg2dkhO656cUueLNmykjB196BfTni9K9bLSedbk3teYa/lZ2PXboOuYTTk5dR9aF7f2K1wa8/xCQds3Azoa5x8yD/NNw7naXWQpYsCS3LvITXElN2FgGAx0sZl4N7rs6KrrEztOj3HyWz9/qDZeXfrU+6X1GdoGmdqOWDzcCSO/WZACqI/3jlPn2jhWb+6l6MVh2q46ea5ePW993jcx4LqHL6/sIW2L86XEAPoQz0nglB/2WbtuKhtvsnwj2I96hHjo6z/fMlYvvHmy6MsiUvjzXm05WsCX7z0h+OMUfJy66zpiAPHZPGZHsyA3XGbX5ePvzxMxoA5vD39nyRswx4H6+qdcQygzLNVtGvTvjicGcIQwRxh3/bEz3urWt73U8m0L+8Cr3/3ehXBidfPEAN4Tu28u9ekXjsPhyAN7xjoNR+F1lXloY7f8fNh1bvBpU68hOdniv+GOzXuWfvNd31Phkecc12DPmkJb+xqKGNCH3Puy13g59Nln/rv5rmeXH3mTYyMXMWBOiQEA2lyOsTBrbC0DF+5j7AUN3ddzbkoY39IR8pJvufuS+3mUXP98WtepLwcDOWc01dUL9q4NMAxe3/un+CJijjGSco2AAfsz9NqAWyW/E/6B5ycJHNSZySxWd3ZN+TO9bnps+bmcuP22fmYRMMzHG0t32L/ejQhKluUDwxNGZphX+P/Wp66pXL//1us3Ghtzwzip//1kGmtHaj6K190AkvqecVyFYYQF5FDWYAbFxuKEirpnYobKLi5vjD3NeNZ0FMW0F3poZ191N5lNa7HEyqsLvQJfRx4rGZ+s3Jyx1dL6sIvcGIsZ8wyPKEgp45ovT9fdxxPJbLFlljpfgIOSsaMv/WIW80WJXlY6z9r7lzPmDvFt0GXMLql7H7q4la8wbQzrQgxApt4YyaKaN5x5mWMwDT2PeQOHjhJI6x8vU11LZsJAfxjoajNh16B9i7DgFSPXe++SbPoYsr9K61NigxyyXeTNMZzYR4fwFMDZyH4RLGzL49+/fWLBMmaML9GLw/L430UnL9Gr563PvT7R5jGABXU2ZtGGmAyx1dqOVt5Tf2Z7LH4fxABsLnhZtXHBwiZiAM8sHuEO++0ebU+szl3v+QXq7fbapbYc3MhbnTbYduuJeOh4tjkN+/vq+y+deG514jiAy+64YOJZEzGAdP74WUinTXZDK2daxIASvIHFN73rHWOZsnbRpO+yI5vxztpHyPhiR2eSHrKRf86i9Gu2WOutgn7zxAAfL/e6b3tpaj36wCvfkd7LRWz8pj7ECzfkct+vZfjvG2yPvEP2nuDFOrVdJfG6zA0l5dh7Ze3zxzCwwdbuE666dFVS223dbihiQEl7LW1f9hrLj7Brn9XpE5A/beMuazO+DK5zbeQiBgxMDED54Hwh+9kOcF6eYy86trrPQOvP7qFTcflsLxtncrMTHkbfhTefO/r1X+3i5jkfAB4QxlKEoUS+nMnCRw6DKhOzPzMDlmDuLnBfZsp1rixQHjizBDcZuOBhEsXAefvT147Pi/FMJoxLdXXJMaSSFy7TrR9wbwTpAuXzyR/eMbEwVec+c+9PfHjE2V24FXr0z28Z1x/36N4NOH0Se/mf/ev7KtID7EncDnFuOx+dfBThtsbqFrp48nJAMbB4uGDzz2LXz/7kvom8ObYCzwh1P/oilg/3qK8xP1+x/htGObu/6/LW/eWGkNz37Mq7L6owwrhw8hUnjvhIhkj0xA9uH3GWnmGIj/Lw3C/OsCGdxYHtyK4x3lc/EYKlpn7LXeihPjbOEnqXU4yF/ll4hEhp3UvKNlnkjk+WPhamEANKxicrM7fuJXI76NTDKqyBOcgsdeMT9+uIEdYGhcvHEslk8WWSO1+Ajdyxo0/9YhbzRYleVjrP2juZM+b28W1QMmaX1J20pbq4la8wbVzrSgyAAGpeA5iTOeYMd9x8r/HDdad5d2MBw/eDiAFpfeJlpmvJTBgYBgNdbSYYYb1tDUMt35ks0jAucvYwXhft+3joDTl91CfXBjkNTDYdm1lSPnMUCxbMUyw0s3DE3MVxrcddfNwIG5b1YZ2r51y92Oqdq5P3oVfPU593IQawS5V+YUEULw63PXXNCFffLGqzucx7FuRM5roNZNYHfRADyAvbg+HFwnkhBhx/yfFV3VjotrbHwo122K6Ki+3bx2Eh0NqGFw/GNo7eZSGf4wWwJUIeYEOiT9dGDMD26I+JZJHOp49d2wImNr/Y877uleKNccVkhrvyM685bcR3JesAzBcsSh9xzlFjfTq26Y/5xNKzrsTaAm0D83hstWeEfRMDSu2luX3QF14hr5h8sFmPZf+TtbJnvGCtho1sHF8X1rWOGEA80vo5/sYvXbksfZhf1/+5c0PXcsL43v4PXnk3Lc51D11WyRO5sk5nzyxkzQpPF/5nfUDe/j7XnuAFGc/i1nno4WgD4jB3W5l9hH3Ya0r67Okf3T326oJnFnQQxl6I9f7bnHbHCFm5NnIRAwYmBsD2M0C3hbh88ECGscRic1O6mHt7M/41peMZLxDnQvoyh7zOlYUpD23t4Qy0JmUvx5CKPJgE/c7+WD0gLtQRLPxEEkvLmXN2Vk1M/rCCPBEklkeTCyc+EL1L8XCnTqxMPB/Eyqm7B2kjlg/3PLtwr6M/VBuvLr3udzN85L5nyNkmV9/Pxuqze/yvU3iYAD05wNJYiOEEskFTn+Yu9KBIWzltYezDrKTupWUjj9zxqUmWKcSA0vGppO4lcvPeAtr6m+dtuGuSo551G4Mkr5Ujr6L54qj9G8fcOt2mT/1iVvNFiV5WOs/mjrl9fBuUjNk2LuTOdaW6uJWvMG188saHtqMETKYsorzxnW9vHBeYj0UMSOsDk6tCyUsYmA4Gcmwm9A2LM7YJwr5Jwu9n7rNoRRlD92dpfXJtkEO3a8j8IQZY3zWFbOyBJBmrS+k3da5O3odePU99nkMMaOoznrHDMtQ9Yn3YFzEAm7QnS1KHmP3J6vDR0w6fwF/KYril7Rri8tzkZQvLdXl4olRIImAxm4Wr2Fhn+RN2JQZQF3bLe/t325rFtIkBvn2x6ya84XnOdvzG0tq9GDGAhdMtdtux6j/ietISXn4tfd/EAPqlxF5ah7G2+33hlXIOPm1yY5HJyoddiQHk64+PgIDUtLbT1t7Y89y5IZZXl3v+/Q+PvWbDspfbIy+sWTYv7n3Mhyfi+Pix61u+enWVxyyJAcio1F5T0md4A4nJx+4xfrDRONaXuTZyEQMGJgbEjJbWoT5kQo3taOQeSiYMHR9/vU03G10ccS0POHgpdz983xGDkk/jrwFq7OWNgauve7mygI0I+xomom+DXcPQStkR6t3QWNrwvKS6tqIs73HEfsv6gXxgFj/30/ujLyb5wUaDOGBlWkj/MPGEhJBYHThm4LVbbbksDyZ/PEjE0tg9f6YO7j3tflPo3dBZfZtCmEl1+fERbGm7nG9el5/uNxtHct8z5IrXEvDkz0G0viPkPCvvQijWF3g28Z5RSIdXD94TDPuxNP7eTgfuWeGFtIyNTYQfSxtbbPB199d1uzVy695H2SXjk8kgDNmxZzL0Z175eH2MT7l1L5Gbd/Hk+7buOgV7Xi66bh5nJJ/FkE/JfJE7dvSpX8xyvsjVy/qYZ3PG3D6+DUrGbBszcupuaUt0cctDYdrY5b0usQMvVW7oaxjWY6RuvmV5FrqFhTRsc3ebjplaD8VL62fJSXISBpYwkGMzMfmxw4uzi20s8yH2GjybDbXb3ergw9L65Nggffkr7RrdhDOT6xbs8NKJTbLue5r25urFJqtcnbwvvXpe+rwLMQC9FH0F27h/5/w17yXeL03OTaH3TlXnjZVjUS3/A1YdVJuv3+lM/Dr7E/Xxx3US9zP3Xlybb1P9255hD7G6Y++Leaz1eeAV1uLjAdQ/s2uO9WXx1i/kWxpc519x54UT6dZ766bjPHmnLI9YiJdbywdbOjvqY/G4Ny1iQF94Ix+8IsRIFRxjzFoOXp9j7eU9Nc8FJh9CZOBJQkMQA6hPrr001pa2e0PgFYIQ3ri97OyaY0fYoR3WC7f3xGmySx9wwsFVnn0Te3LnhrAdXf+z3miyiXmd9utTMXs9a12WPiX0Xqif+MEdVVrm1ljd7T1g7Ik9L7lXaq8p6TPIh2bH93JDP2FM9QSKsI25NnIRAwYmBoQdlfsfdhgTCGxW3HOn5MNEz+5wXPlc++BlI9x9YBj056Kk5DMvcXBFAnuQSRJliYEDWYRHMAxZX8r68ou3jt12cLZqk4Li6wE7HGMXLDsYZal96PPgGrf8tP+GR64YuzebZtvDuuj/kiFh0WQBrjjTjUln9X2XjN1adV1YZYc2OOWjapqGkD76YiXXPaf9fY1POWUrzeKOI+rbxe9bjR35elkf82zOO7YI3wa5uniOvJQmfxzDvSYepq5/+PLxcXbf/+fHk75fJfN8mUt2kp0wMFsMYK/C5oNbYhbM2Pk1DS8Bdf1eWp8cG2RdXVbCfeTF4ho2O47DYRFsbG/8l6eT5q9F0Itn3eeeGIAnSkiF/EJX9h5P6Lb0E/ZZ3j36j+NfV8IRpmDOb4DDCy5nl/v2rYRrFqxZr8ClOJvBcu3dqW1lIdywYYtnQx8lYHXrC28QniH2YG/Fxg+BpYl8ZOUTsi4AmY3jhc0jMDvVTRZDEQOsDivdXsqaGJ7wxnj92nW97/I3OSmcrU5WKv9Z2WuoN9/RjKVg9N5v3Ji0oTi3vSIGrBBiQG4HK93KHojUf+o/YUAYEAaEAWFAGBAGhAFhQBgQBoQBYUAYEAaEAWFAGFhUDHhigC1yErI5axHbDInBt5NNZIvYzr7b9KrNlnuJmBYxoO+29JXfNIkBfdVZ+WguEwZmjwERA0QMkOIhDAgDwoAwIAwIA8KAMCAMCAPCgDAgDAgDwoAwIAwIA8KAMCAMTB0DeGT9ykt3Lvu9/Munpl6XaSxYHXrmkRUx4C077dDq3n8adVoJZeCRIMTJn/z0gYXESGp/iBgw+wXW1L5SPPXVPGFAxAApe+v05DlPL6PqoslBGBAGhAFhQBgQBoQBYUAYEAaEAWFAGBAGhAFhQBgQBoSBxcXAxu9+Z0UMwDW8+npx+3rovhUxQNgZGmPKfzExJmKAiAFSPoQBYUAYEAaEAWFAGBAGhAFhQBgQBoQBYUAYEAaEAWFAGBAGhAFhYGAMPPydm8fnSN/17PWS9cCyXvRFTREDFnPRdtFxq/bNHrciBmjykQIiDAgDwoAwIAwIA8KAMCAMCAPCgDAgDAgDwoAwIAwIA8KAMCAMCAPCgDCwQjDw0i+eHJ2x+tTx757nblC/rZB+08L47BfG1/U+EDFAg4UmDGFAGBAGhAFhQBgQBoQBYUAYEAaEAWFAGBAGhAFhQBgQBoQBYUAYEAaEAWFAGBAGhIEFxoCIAQvcues660XtF/NKGBAGhAFhQBgQBoQBYUAYEAaEAWFAGBAGhAFhQBgQBoQBYUAYEAaEAWFAGBAGhIFnRiIGiBgg5o8wIAwIA8KAMCAMCAPCgDAgDAgDwoAwIAwIA8KAMCAMCAPCgDAgDAgDwoAwIAwIA8LAAmNAxIAF7lwxX8R+EgaEAWFAGBAGhAFhQBgQBoQBYUAYEAaEAWFAGBAGhAFhQBgQBoQBYUAYEAaEAWFAGBAxQMQAMX+EAWFAGBAGhAFhQBgQBoQBYUAYEAaEAWFAGBAGhAFhQBgQBoQBYUAYEAaEAWFAGBAGFhgDIgYscOeK+SPmjzAgDAgDwoAwIAwIA8KAMCAMCAPCgDAgDAgDwoAwIAwIA8KAMCAMCAPCgDAgDAgDwoCIASIGiPkjDAgDwoAwIAwIA8KAMCAMCAPCgDAgDAgDwoAwIAwIA8KAMCAMCAPCgDAgDAgDwoAwsMAYEDFggTtXzB8xf4QBYUAYEAaEAWFAGBAGhAFhQBgQBoQBYUAYEAaEAWFAGBAGhAFhQBgQBoQBYUAYEAZEDBAxQMwfYUAYEAaEAWFAGBAGhAFhQBgQBoQBYUAYEAaEAWFAGBAGhAFhYOoY+Opf3DW67qHLlv2+/8+PT70uQy+Y/clPH1jWTtr+7f/x8MK1dWhZKn8tbgoDwoAwkIcBEQOk7EnpEAaEAWFAGBAGhAFhQBgQBoQBYUAYEAaEAWFAGBAGhAFhQBgQBqaOgVWXHj/6t+v98bLfl1+8dep1GXqR6ZJbPrmsnbT9C49/duHaOrQslX/7guBf/J+vjF78x8dG3/unx4Qvje3CgDBQYUDEgCmC4a/+9enRY9+7bfToC7eMHv3zW0Y//penq45om8ie/tHdo0/ffsHolKtOGn3+sc+M/vwfvpSc1ucN+/COr103/t317PUj6uSfT+u6qyxe/uVTo0deWDO6eM15I5TFg049bHT8JcePrrjrwhGymVa9Yare/ewNo7OuOX108GmHjVZdump01T0Xjb7zd4+21uGJAM3SfQAAIABJREFUH9w+uuLOC0cf++TRo09ccMzouocvH8ESTa07Mnv65btHq++7ZHTUuR8fHXnOx0ZnX3v66IHnb2rtx+d+ev9YVsjso6cdPjrj6lNHn3v0yhHKQVv5tHnNk6vHaUj7yRvPGn3x+c+PXvrfT7amjeU9LxiM1W3R7nV9z6z9uVj98S+fGt359etHn/rCuWOcH3bWkaPzbzx7dNtT14x4ZvlPI/yznz+8dqx94ZbRN//mi8llz+o9K5EJbb3xS1eO31HGhUPPOGJ07vVnjG5+4rOjH/2/rya3nTrkyq2k/qQtGVtLy1b69g9JyWjxZZQ7X5ToF+DqB//r8dHtT187OmP1qaNPff6cEYa/LvpxH9jMHff6qHtu2X202/Loqpfl6ghWXh9hjtz+9L99caxDn3rVyWMd/oRPrxp99r5LRs/+9X2d5sk+6j8veXz9r+6tvgvt+zA1/OEvnqiV2zMv3zNaff+lY10QveTcG84c3fsnn4vGZ3dgrMx7nruhk/42LzJVPRZ/vlQfL14fYxeLjUP+3oPf+kJ0DKvDQ9e5tS6frveZ03y9666pX1Pefcz1ObplX3N1X/bTJhnN2zP051u+evXYDoA9AJvjpbedP3riB3c09rVvx6zl5okBG26/3Wiz9717/ENf8fWMXYMdj3dsyLF4dfewR6B7nHPdGWM98cTLThhdefdFo+/87SPL8sEGS1l1uo2Vgb3X6nTfn944kc9Nj11Vte81W2xRkQSmSQxgHLj+4ctH6MbY2I+7+LjRRWvOG9vRrA2LHOaMUX3JA+wYNqaxpvGBo/avMAZBoK925OST8x3XpRzefZMtc1lKWrBgadqISP/+Na8f/dofrj/a55gDk/JOKX+oOH3MqcgmZy2qj7JNLn1gplQve/DPvlBh5NmfDGM/eP6/P1SVgfys/UOGIgZMgRjAoMQC9obbv70aiGECpixWAYqN3/3OiXSk/XevWn90+NlHdQbJuw7YYyKv3MXdXFDmyOKWr6we/eb6b5yot2eR/tqrNxgdsOqgwV0unfe5s0aU5cu2a+5D9ojJBQXzIycfEk1Hehbb24zg3/ivD4zestMOtXnsesje0bLpXwxy/+G1r4+mRQHFXVWs3ty745lrR15JtfYSrvfWTUdf+m535u6sMVjX1kW6n/Oe0f5crP7l//3KGGdgwmPEX2+0w3ZjgsDQcsYY/aETPzpCWbPy+Z9S7qzes5S61cXZbu9dq3Zae324/jZbjUlIdentfoncLI/cMHdszS1P6RbPoKs+ze/T3PmiVL+gz3j3fz2iV/3h5pt3MmLm9n/JuFda95Kyc9tbly5VL8vVEerKzbmfIzcIi+/cd7exAcfPj3b9G3/0uvE31Yv/88tJukJOvec1zRHnHNWoQ5iMYiHGkbBdLPK/8Z2T37s+7Qbbbr3s3faGSh/Xrn/r9RuN9jr6QyNISGF5+p8/9kt2kp0wsBYDkKhtvGkKsYl0kVnq3Nolz5S4n/jUMUntueyOC6Lt6WOuz9Et+5qr+7afpsh8HuKwyPjm9yy3G4NpbMd7f+LD0QVuq/u8yM0TA77243YygNWfEJuwf4fZnOKf112z6MWGLxb6fHq7xq6ETdWn/y+bvGUc9xV//IaJ+z4OC2nePobO5Z/7azZ/WXnTIAZgv4OUjY5l5YbheptuNrr2wXpbsa//SrvOGaP6bCOEES/vrfbYqRYbfZX7fk8MmNE3T853XE77IfOYfLGXpuTBwrOlecc+zWkYU4n7wY9/KCnvlPL7jtPXnJpjI++rbGTSJ2ZK9DKIXdbv9P3Hzz96kL5nY6XhkDG6b1zE8hMxYEBiAEZTdj+9Zssl9p91MGEbMQB2yOvevk0FCkD4n163YfWfPA486ZDW3eLW8Z+59+KJtKSfFjGgRBbsOPFyQ2H7nQ03nrjH8y1336nz7liTTVOI0hBb2P/PG248oTze+41JBqjluf2+u1V1pe6v326bEexXTzLY7bB9askBGN68QklbUU69EofB08rz4f7HTyrHkFO23fN9o9/f5K1LdXr1BmMvCD4d13xc+IGP9sLY/d2N3lyl/e03bNTKkvX5zhKDvh6Lel3yniGTXKziwcS/o1yz2AM+/H0wz46MIeQPqxPjsn+vrOwUYsCs3rNSWbzhHdtOyJg5IiQC8R7DSI+VVSq3WJ6p90rH1tRyFE/Gb2FgOQZK54sS/YL+4EPHxmhCDGss0Nq933vzW7LIhyl9XTruldS9tOyU9nWJ00Uvy9URutSnLm6J3Ng1Z7iy8Lff+KZl+sIO++2e/E1VV8+Vdr9PYgB6Rqj38R6/cuNNJuR/a2CobyMGWJ8xRoS77VaavFXf5XORZCKZzBoDQxADusytfbe/lBhQMteX6JZ9zNV920/77puh8sMjgLcTY7fb6v3vHW2y0/YTuk6dnjNPcsslBrDRyts40R0OOf3wqP3D9wNu1Xc++IMTegp2LGz4nryMrdmnayMGsPDrN1h9uGWjyrSJAQeccPBEm8EPdmpvY0aGECZ8u1f6dckY1Wfb/eIfcmadoM2LS2n5syQGlHzH5bbb1ozYKJWSx0Pfvrl6J/Ce0ZTG1knmmRjQx5yaayPvo+y+MVOil0GkYg3PvkkJRQyILKafc8nlI35NL8+69gy37R44r1h/0ujZRgzALYmlZ+H3mz97cCxfFmxR9uxZaGCJyfmFv390hHHG0ljIxBiL3/e9ElngDuvdH3r/mGQBW4jFJOrHrpQzrzltYtH89M+e0nt7Lr/zU5XcWHDDTbq59GCAgBDAhBBzUYN7b5M1O+Ae/s7NVf2+8tKdE8QP2hnKHQX3j7fesspju712Gbvxp1ziwmrDZThHC4RpH//+7VU6iAR4XrA4fAAfeuaR1XMGOXtGCGv2re99V/Wcgd3kvpZRu4TtLXbbcSKtz8dfzxqDvi6Lel3ynpVg1YgBjDEnX3Hi2BW0YRSmNB+h9h7APH7pF/2OO7wnppxZOX6MbCMGzOo96wOHkIp4l3HFbbsdce9705evGu1xxH6V3FGMw6NDSuVWWv+SsbW0bKWXIXpdx0DJfFGiXyB33IHamA2Zi90oHDeDW0NPOAiNcH30Wem4V1L30rL7aL/Po4teVqIj+DJzrkvlZsYJdglwHBu74qgHegrnu/7HDZZI17i8z6njSk3DtyiGsPD33oOWjOS41A2f899/Q+JO0RvQ2Znod/rx3XTsRceOCUDhd6snBnC0A993/Di6je88TyzAuMcRHitV3qq3dA9hYP4w4IkBOx74geh4x5iX6o69y9w6BB48MYC5OzZ+c++7kaNJS+f6Et2yj7m6T/vpEH0zVJ67HrpP9c3P/O3dhLO48gdvWdoUFNsBPk9yyyUG3P/NmyoZmD2Ixf02mfsFcjZAQXK0o5KwneBBddOd3zXehObzaiIGfOvnD03YebEVo8v69OH1NIkB2IlMRtjvrvnipyeIsewQPuXKk8brB4tGDCgZo8I+K/nv7aPWF3VeXErK8WlnRQwo/Y7zbehyvfmu7xnjnDUc1jDa0nLUs/UFayxN8flG4dgBvlea4s3yWemcSr/lrkX1UbbZiqxPutj3Q7mX6mUnXX5ihQ2rj4gBIgYkvfyczwNo2D1x9AWfGDPAcEliQGoiBuDCywxVKHLhuUYsBFs+DPAh8MP/+x77kXF83NF7pos36oRp+vxfIou2erDgbbJ4z4ff3yqLtvzC52961zvG+bNThQkgfN70n49LqxueD8K4nFVnz2P96Cen9310r7ERM8yj7v9Z15xe5R1jy/IR/KrNNhvHYdAFc5YXH4tWL1yCxiZSZG1xUibEWWPQ2rbIYcl7VoJVPpouXnNe7YI/RlzPmOZMtj77AaXFsIgbrpuf+Oz4fDi710YMmNV71qcMYnnx3rKwZnII3f6Wyi1WZpd7JWNrl3IUd/6MsOqT2fdJyXxRol/Q994ow4eWxwMEJ7/AmKJf+PRt16XjXkndS8tua1vX5130shIdoWu9wvilcoN4W3fcF2X5XTs77L/HBB7Duqwr/9nZZrqDJxbXtR8PdhYfL2ux7wbSQqwJv2k9MeCLz39+mfw5QsB7IuAs3Lp66P7s5xb1gfpgpWHAEwMgJ5bWv8vcWlpWLL0nBrBrORan7l7pXF+iW5bO1X3bT+tkNG/3mW/xgsQcDNk2tusYL7Y2Rx913uSGonmTWy4xAHu7tRFyol1DjKjrM/QL81YGKSC20Yu06KF+gxf36ogBLECZjYM67HLI3tUGq7p6cH+axID9jlu7NkD9mo5bgCDRdQxpauM8PCsZo/qqP8QdO/aUTT5sIDWs9FVGLJ9ZEgPsfcyx1cbaknLPjwNGCm9Kd/a1S+sn2JOb4q6EZ6VzaomNvLTs0m//sH9K9DJsUeaR12NKxAARA5IGCXahnHjZCRNs3FRiwKdvv6BSZkI3Juy68C5+WLCOMX7tZYDlyEDM4i9Myo3fvXT21LSIASWysHbUhez4sYmm69lvdXnafXa1WN4MJnY/NbSjIBhI2A0XS4eLL8qgH23Hr8WzRT1cC2FMs/spoVeOL7z53Ghaz1R87Hu3VXHYsWPtZgd4rDzPKP/EBcdE41i6ecCg1WWRw5L3rBSrbXL9yCmHVpji47QtfpfnfBDjAo6zjCwdnlUMw23EgFm9Z1bXIUPeTZNDyEIulVtJvUvH1pKylVZGa2HgmfFO6VwdtUS/YNwxohh6KZ6PfH+Ers37/ugqGfdK615StpdRH9dd9bKhdYSmNg0tN4zoNk9i6G2qy7ryrAsxgJ1lZuDkWwYvUl3k1EYMIK/Dzz6q6qOQTNSlLMXV/C8MCAMhBvokBnSdW8O69PG/hBhQOteX2CLa2t42V/dpP22ryzw9Z4OG6TBsKIvVze+m3/WQvSfizJvccokBbGZCDhtss/XYw6rJhG+dmEy4h53d4n3sk93Oi44RAziWgKNXLU/IpuZFs64Odn+axAA7ijJ1J7XVMQzRz9n8hvfKt3/wfeMNiO8/cr8RXny914ownf2/7qHLxsc9YIvb/fB9x0RdiBUsKp561cnjfOps6JZH13DIMSq1Llc/sHRU8lX3XDSyc8/ZGJq6PmOy57sZnHEMBH2A/n7Pc/HNjG3EgEdeWDNi/uDX9N6kttPiDf0dZ+WEod/lzYZMe46MIUTxM6/IPDvsrCWPyniqtviEEAXAZPj7wuPNBALeDy9PvE3zH4IEHpohI4akI1/ukNdtc2qJjbyt3m1l94mZEr2MenAUN2M67ynkdBvf+7ZRmcz8hgWOr7T7XUM894FXxuSNdthu3A7GauQR5nX33XdP3Ps3YYTU/zpKIO0jK5UY4Fl8n3v0yolOgnVoYLQwdMto/cagh3JEPPLk/iyIAVYfH6bKwqeJXbNgbnLAzVMsTu49b6AOd9u25YkSYwxUXLDUxUcJsvr7CQvF0u7neELgyANLf8bV8QEFDxIWx5MSUATs/hV3XRitO+70LA5HPdS1b54xWFfnRbqf8p6VYjVFXuwgM7zUYSoln9Q4qcSAWb5nqW0pibf3MUuMeVwot+WVKre2fNqel4ytbXnreZo+IjlJTiEGUuYL0pToF+zOsblgkx23nxiTMEiw28meE/JRGtaz7/+p494QdU8tu882d9XLpqEjdG1fn3KDnGKYa9LXu9ZxJcfvQgw473NnVfJjkb9ru1OIARfcdHZVRg5Ru2udFF/zozCw7mCgL2JA17l1KIyx6GBzWpfdvkPN9am6ZZs82ubqvuynbfWYx+e/v8naowI4J56FjLCO3nU8i1/++bzJLYcYwNGVhvmDTztsvCELDwDca7IPWxzidfVQFhIDOCpzmz13rurBdZfjM6dJDGAR2eTV5FHL4yS85pjj7ffdrcrH8rOQo5/4rgvT8Z8x13bwWnwL+Tb0R2NM4/iovsaoWFtj9zhagvYaQZ4ju6z9KfY6Fq091iytDyHUhmU3EQPu+9MbK+9ckH3DNagwr9L/fX7H1dWFIzJMJv4IFcYEu//JG8+q5ARpivu0n/nQ57vX0Wv7zNJZSF/6eOG1YRmvENSHDZ+W1kJI1Sn9HuZd+r9pTi21kbfVransurQ5mCnVyy659fwKE0//6O4VQwxgQyD6gGHMh4w7eKBnHDZZixgQ8X5gwhkiTJ10WGi1zvMKPQO03fcD2pV3X1R1qq+37RblPA5ePp4tEjGA4xj8rvdjLjw2Kgcvky7Xdkb3b67/xnG+nOON+63Ndnn3mJl35Dkfm9il7PPG/YntoEEx8s/8tZVBv6K027Mnf7i08A7rEvc37PxnwqLvcWPC2ZsM2pbGh5z3aS5PIIfAiPPPOROHQYFyYUH5Z55dV4ctXz8IBj69v55nDPp6Lup1yphTitUU2b35PUueSvy5sylpc+KkKg4ex9N+z3LalZoG9issbHPJjRve7/zdo7XvqeWbKjeLnxvauJcztuaWqXTrjpFXfZ3X1ynzBbIt0S/8EUreZS8f4KbXYhQygkCT/tRXP6eOe0PUPbXsvtpKPl31smnoCF3b16fcbnjkiurbCt26a10WMX4XYoAn+oWeiVJkk0IM8F5KOLcyJV/FyZsHJDfJbV3DgCcGvHarLceLXdjL2IXJ4grudFNk0nVuTckzJ44nBux04J5juxX6FQsbp1x10gjvo7F8h5rrU3XLWJ38vba5ui/7qS9zpVz7OTv0FIpN4J1uAdd7WKR98ya3HGKAP+LM7Klma8DeGTvC1y985Xid9cQAvALYrm9sq9iK62y0dZiaJjEAT5u2psBuUhbP6uoVu0/b7Eha8uFbDd3s2IuOHW2399LRyb+z4cbLjo8iv4+ednhVPsdgoAfi4dM8ylndCD0xANvWPscc2PlXN+ZZ2/oaoyy/ppD3EbnQNrOhe3sk73JTetYE7OgQ8qAf2Ah0wqdXjTeCmtcX2xTq86ojBrAuYMdYs4CNxwZLR30hcXSVO7ueLY9Y2Od3XCx/7n3pu7dWOGOM4B4eVmyNBvn57z6zQ+B9JMyTcXXPjx1Q/UjLL5UYQFzKxSZLGnZum5cTnm24/eTxzUPJ3beraU71mMyxkftyYtdNZcficy8HMyV62bd+/lD1rpIPdVgJHgP8kRgQUVg/ZF5lo+YrN96keic4VsVkLWLAnBID/E5uW9AlfPXbNh93JJP5RWvOqzo1tiMc1/C2Y53dHNbpK5kYcNNjV41YtMYI5dvBYIorlhSXRSaHlNDcp6DsnHLlSZW8Kc9+KJsoNzE3UTYxwwLjYytWpu9rGEkWx7vaxoXIH73tbVWZVjYhH7Aw/CydD8nPmEJM9ihdfBDSLiMFvPJNbx75YwRI748SoN0+T7v2zOM/3HzzaJx5x6C1ZZHDVEW3BKtt8kPZNMzCUG6L38fzVMVhlu9ZH+20PBj7GBvx9sHk7z8YWGC74s645w9Lb2Gq3Cx+blg6tuaWq3QyeAsD9RhInS+QYa5+4XUHyJXWH+dev3a3BOMVLvXWe+um43kD3cXiDBWmjntD1D217L7anquXDakj5LStT7mZi0D0FAyzOfVZtDR+keGWr6xulInthkF+bXFjcmojBkBqtN2Q4z66/9LG+sTK0L36cV+ykWzWdQx4YoB9r4YhO2MhRdbJKndurcuv5L4nBoTt4D8LE3XH+g0x13fRLZva3TZXe5tarv20qfySZ5BfMczjPrkkn7q0bADDjbj1N2fcUx6Lrdj67H5s0XHe5JZDDLDd0yy8Wd/7IxLwdBbK7vHv317J5W277rjseRg//G/EADZh2E5j5IwXgq5HKpH3NIkB3tZLndfbdLOxS3/coqfU3ZM1WVgNPSOwNlGHObCKbZznLFLRDyZbjkf2RzEQxxMDcN1t+XYJWSC2MmJhX2NULO/wnreLMlbbc7P18/0b8/ph8bw3UHDnvf4Sh7EG+bNeYmksjBED1jy5egQZAHlyXPXdz04eQwBppIusLe77PrrXsvKtHoR9fsf5fP012LE1DyMVf/H5z0+0hznP0tg7zVqb3asLLd8uxAD69isv3VnlzXtjZATkRt2svKHkbvkTNs2pfdjIfVnhdVPZYVz73xUzpXoZpCn6hTXYH/7iiXHfzDsxgPEVHY96sx7A0RUmP0I8vZhHecZhO65cxIA5JQYYAw9FwzrSzjyho2G9edcouIKweIQsQm++63vGgGCnrneF4hfUu7IDfRml1zkTMIqHTTY+hJ1oL2tpvXx6m6ApywZ/2OO4qNrpI3tOuILh/A6flmuOALB60l/hc44nsOeELNpbHK/MWhwW4GHsHbDqoBHuTu3+7735LbWkCLACecDi+pBjKWwwsHIJfb023H67qHLi24YS7tNzvRIwGNZ5Ef+nvme+P7titUluKKsQa8AdjLVwcmpKW/IsVXGY5XtW0r4wLV4Y/Ltt14wZ/oiSMF34P1VuYbqu/0vH1q7lKb4M38JAOwZS5wuTZY5+wdmONj5BZiIvzig3EqORBWDOWzxvFLKy+wxTx70h6p5adh/tLdHLhtIRctvVl9xwIWk4Y7dXbn0WLV0XYoA3auW4pPXEAM5FhWjNjh6O7sD1py1U0U8YOYZaWFm0PlR72uc8yUgyAgNGDOA7lQXVHQ/8wNhrAN9QNj8Qci53bCNIydw6BAaNGMCi21bvf++IBRo20NhinLUpRhofYq7vqlvGZJIyV5faT2Pl9nXPdi1yzu+Qc5iXk/UzIaTby+/8VNSmN29y60oMgDxoXsa222uXSo/jG8VkEDv2FNfd9jxlITDEgi0iWh4+ZDNbGL/t/zSJAdSlzjU6Nm/e2avuuWhiDcHqzy5a80rLjmf0NXtmIbudIRsgE+zE3mX1yVecWMmda0tjIbZCL0v/DQi+Wcvo+uOoCcs/FvYxRsXyjd2zNR3a6BfhIfFYu+tsdxzla2sSyLfrWk5IDGDXNv1DuXgx8AvTVnfmPDz5dZV5jJhgeRL29R3n84xd2zxuRAU7/szsDsgTMoxfiMdDdCwvf8/6oQsxgCMjfB5cMy5bv3ty+lByt/L9XBH7/u3LRm7l+bCtbB/XX3fBTKle5ucHfwzFvBMD8ERheKo7vtkfz7fq0lVjTIoYMKfEABuoYG3xMrB7yhQeY/jC6LNOZyLxL41/2XiB/LOVTAxgZz6sV3N1Y+2H5YbLDN/OPq6tHyiHwT9cMMXNjvULhI3v/O0jE3XwLlJYCPMGM86x8uc7UYa5KKHuHBNg7SPc+gM7TzA4UZK8yyqf1trOOSjehbvPj2uIJ5AMQoWOgXSTnbavyseNnpFLYDAygIR5hR/KKwGDJqdFDlMV3RKs1skPHL33oCVXZR/75NET70dduj7upyoOs3zP+min5cGRM4yN/MKzq2Bes/BmcZvCVLk15ZHyrHRsTSlDcWTwFQa6YSB1vkCuufqFH3PNrZ+5tITEaCRPv2Mk5gK0z75NHfeGqHtq2X20t0QvG0JHKGlTH3LD25Y3iGFELqnTIqXtQgzw5OOco6I8MSD8tgj/h99hiyRztaXbfCV5SV59YYDvVeZ3f3yn5Y1hlSM5bSxi0dKeWVgyt1oefYYcfYlR22w3ljffgv67nG/GPm1XVk4YdtEtw7T8T52r7dsy134aK7uve2DLNvUMRQ7Aa2BI/jDcEuKm/a5nr1+G33mTW1diAO+otfO0z5wy0T5kzTMWss2TgPUpxBhL592J2/O2MCQGePs0O4Nf+Pv2Ixx9GdMmBlA2MmDR1+QQhnhiwHW9ryf2b4vHRjl2wFe/Z64d3fGrHwuxFs/bwP3idJ3O6I8U8MQAX48+r0vHqC51sXGAccoTJjgmweRVdzwyR/xanJjH6LZ6eNnjGt+OHMXLhe+jtnz6eN7Hd1xKPexoCzyjEJ+FfGR4yOlr15W4xtsZdg2TLRsB2vLOIQbENmTe/82bqnLNLtJWdunzlDnV2zyQS85aVKyeKWXH0nGvC2ZK9DLmCtvExjE8vj7zTgzYYrcdKzyB62psZpz+1djsj6c3UpyIAXNKDLDJkAGHBVdz8QTr11zLrL7/0qrTcedjgEXpZ6LhBY4pOSuZGGBtJMRNBiQJdsvbIO6PTPBxc69tQCB/zqmK5eMnWCb0MA6DqNWPBTvIAOx+MUKBP+cDV7qW3rO0wMETP1hys2RxOPvFJiUUX7tPiCGdSZ6ymfTBCGQElFQGVXO5xXM+En1arvmotHoTwiJEceQjkv8YUzkfnGs+mH36lYJBX+dFve6i6OZitU52B516WIUh8BYSUOrS9XE/VXGY9XvWR1vDPJAzZDJv/GEsS/mwSpVbWGbX/32MrV3LVHwZkYWBZgykzhcl+gVnkJtucfwlx4/8gjNu66yP2Jln8bruiLA8UsPUcW+IuqeWndqWunh96GV96wh1dU25Xyo3XDmaPos+nrO7K6WeKzVOF2KAHQ3E+4rHsa5tTiEG4CL5gedv6px317oofvMcIflIPusiBtg5a/oI3y9eBn3MrT6/oa+xK+IN0trDd3BYZt9zfapuGdaD/13m6hL7aazs1HssTHMGc9sPj6Mm977JAd7FOnmzIIBnAhaiWOCxRWvsd+Gu4FnJrU6+XYkBux22TyXX0GU8XshM5qGd1rvKxlNGXX3q7ntiADKE/MGRI1Yeuk1d2tj9WRADrB7YmVlI2/3wfSs31NYO2mTxCP2Cm8VpC1m3sDxMZ0T3hpRl931oi7nkm2K/8mlzrkvGqC7lIWeTle1gt/Qco2DrA6Fd3+JwJrilv819M9vzttCvW1g+hK/Zcota78NteeY+L/2OSy33I6ccOpYZay6k2WDbrcf/wSTEFtoPqcqvfXhPDnXl2BpMqscA4nsiiOXLHGd9QT3s/lBh6pxaaiOP1T+17Fha7qViplQvM68eHMtOnX195p0YYLYNw1RbiL2N9okYMKfEgM12eXc1QJg7MBQ5D0zOSrKO9m5J7KxHdrCHDD86fVGIAfaCPvLCmmrHDy+C7Taz5yW3gumCAAAaH0lEQVSh37EWKpOWr2eb8kFg9y3ElXrdEQi4dfMsV1+G9whRpxxQhu3UYZHeyiTEu4Lh44RPr3UR4p8zMXlXvQy0/jnX1OEP3vLWKh/LD4IDH8mGpbB+KwWDYXsX8X8XRTcXqzG5ea8SuGVE2Y3FG+pequIwD+/ZUDIgX/+xHLLoY+Wmyi2Wtsu9PsbWLuUprozZwkA7BlLnixL94uYnlrxdcU6iufjj2veRnSmO63B/f4jr1HFviLqnll3a7j70sj51hNL2lMgN4y3nBZpOe8mt5w+OsdL2Tjt9F2KAX9i/6cvd3ef69JCYMUbxw2iHO1WI4NNuv8prny8kI8loXcKAuVvHuO8XqvqYW6ctR38sUsxlct9zfapuGcqh61xdYj8Ny+7yv8k7p+kZsTDluzylHng7Mtfu2EJjO9U9uYX+8PnOSm6+Dv66CzGAzRDm8YB3Ex0Ebxn288SA8Dvjqb+8q9IDbTexr0fbtREDWMw1V/XP/uS+ioRBn3vbblt+syQG+LpBHmKznXnUoh1+odQWzbjPBj12wLf92KFqZZj+HW4ss+eEfgHbj7c+Tp/XuWNU1zqccuVJFebQfQ2nFuJpwsaK2O7yPT92QPUc/HYt38vVyrGwK5Gla9lh/JLvuDCvpv+sk1kbGSttQZ/5haOgecbxQZfedn4VL7aGFpZh+aQSA/BwHebBf9b3rH6xNZtYmtx7XebUUht5WMcuZYdp7X8qZkr0MjxnGEEn5u14nokB6G6GJdrQNi7zHBIW8hUxYE6JAcZeso4lDAcKfz7PZ++7pBpoNthmLQuKNCzqhj8bxHiOQsPzMG97+YYM+5yAvauiujN5ctrCJGF9ULcLBraexYGRVlcOBAY+xHDLz4fAoy/cMvb+4FmXnsH70LdvrvJtYrFutcdOVTxvPPOL/pybE6vX+TeeXaWtY6iRFiUbRYYzSzhjxfIzRlJ4Ls1KwWBMJot2L+c964rVUGZ2dhPvBQzUod1Ah+XzP1VxmJf3LNaGPu7BnLfxKXa+XlhGqtzCdF3/9zm2di1b8WXMFgbiGEidL0r0C+YXG5MsxLDEGaHWL+wgMYMUHpbs/lBh6rg3RN1Tyy5te596WamOUNoW0ufKjR103hsFum0f9Vm0PLoQA1jMt3fZjrvrIg9PDPDfQV3yUNz4mC65SC7CQD8Y8PqRd7nc59w6rb6657kbqjE75jXS6tHXXO9ll2oTyJmrS+yn1uackPaxGzXlZ3Mlm2xYDMwpL0zDETuW76FnHFGbp3kpZRekP2ZiVnIL22H/uxAD1jy5umq7yaAuxG7p2403MrOLQ0a28lNDIwZwfINP4+1gfN94+6yPF17PCzHA6uU3l/hNiL5//Nnblq4ttB3bbGKsi7vLIXtX/eqJAWAdnbHrjx3EdWVxP2eMasqv7tnmu76nalcdTu2+9yRs+dnud+Jgw7T7qaEnBrDB75mX76l20JNnzIPMy798aux+v6vMY/X39cz9jvN5pFz7Be5zbzhzLH/IKaS1uZD31HDdhEtfno0dQxED+pZ71zm11EbuZdW1bJ/WX6dipkQv8yQ6SGfhWqp5Zud9YeznOYSe8KgaX++u136N7ozVpya/52DGjgfBM1SXckUMmFNigDfIADo6NjzD3S+s3Pn1pfOi/ItA2pQfzL8uwOkjbp8TMGfEWDvrzp/kDDUmA//jjJOmtux33EeqfDmfIxbXn9GBG69YnKZ7E3L42YNV+ud+en9VNm7Y6/Kwc6GYnF76xZNVPHPzj+uwurQs+Jvc9j/+oNp4sfR+YD7wpEMm0q4UDMbatWj3JvD1N2Xn507k5bDqZYYHDVOUmCiNQe3jNF3zkezfUT6umOSa0sSeeXx+6MSP1qafl/csZ3yKtTu8x64Be8dZzAufh/9T5ebT5dR9GmOrr6Ou+zGMSo6LLceJMb5hvijRL775swerMcnGps/ce/HE2OQ/Rrfd830TzzwGpz1f9Fl3a8e0xtxp6GUT+KnREXLmC5OVD3PkBpN+k52WzlI96tyP12LLl7UuXvvvUFwSN8kAjwv2LtvOg6b44TMRAxZ7Xgn7W//V3ysRA5vu/K5qnHv2r++rxsRpzK19ywvdycZsFoq65p8y1/s8J+I36JaWJneu9vMW7etiP7WyhwzNCyykgMvv/FRnudfVjYUD68+mc8ftaFrisnvT8ps3udkCHfWsO4Pe6u4XSk0GTaHf+U4e5rWMNCwSWr4pYR0xAHKz37jFIndKfvNGDLj6gaVjiz3hhA2JJmMWsFLa5uNwZrelrzsqzp+T7YkB/sgMyyMlDI+Y8PXhuusYFaZP+c8udLORptR5u712WSZbv/u9bs2jqS6eGMDueeKy+RGyEHVi3YCjh30e9FFKfcM44VEJPk+uc77jwjxS/mOLtrpxLDfX7z9y7RHRrJ1Y27E38Iy5PiVf68uhiAF9yj1nTi21kZsMc8q2tGGYipkSvcwTAww3KSHtDOub+z+XGEB5bKihvnZ0RmodRAyYU2KAd1HBoHP/NyfPVYQkYG6TcMPjJ9WL1pw33t3NLpjYD0aUgRvFizh3PHNtb0BOBV+fE7BXMHD1GqsDngSs3Rayez8W1+6htFvcOtabV8bxCGBpU0ImXptUOD/Tp/mrf3167P6D8umz2Jk03MPNLnFwcefTm5smntW5cffHUcRcpfj8wmtvyLvr2SViCvFWCgbDNi3i/77esyasmtwYt8z1zu9u9ObRY9+7bQKTFq8pZFe7vXMWvviPj3XOJ1VxmJf3LGd8apKjPbv3GzdW8sRVoN2vC1Pl5tPn1H3osdXXT9cyQgsDaRhInS9K9Qs7hogxPvQ4RF+hl9r4j5u/uv6b9nxBPfqqu7VpWmPu0HpZio5Am3PmC5OVD7vKjWPGzCAEtpoIg76cdfXaLxS0EQPQ0X5nw43H7yzfNDH3p01y9N8T8hiQNlY3yVPPJENhoF8MQLI2QiT2N74dTcZDz61WTp+h9/ISOwazqazUud7nkapbkqZkri6xn/r6DnGNnNE9+iYFUFfvAhvvnnX1tyO6qMe3fv5QFW/e5JZKDOA9tCM+8DIGeZfFmfDnvbNytICXDx5T7Xtj32M/MvHMx4td1xEDiIt7cDvegfxZbIrl4e/NGzHguocvr2Tjjxx5+DtLXm1x2e3bkHLNZjSTeWzjHTtvWaC2OJ4YcMFNZ484irfrj53xTXXrMkY15dP07OI151Vtgpgc4tT+G6bZ+Rva8P3u91TCia+TJwZQnj0zl/rInKNROKLDnrHewBGgXWXetrbQ9TvO6tM1ZIOZLf4bptiEZvmEXhw4rsGeNYW2hjMUMaAvuefOqaU2cmSXW3ad3FMxU6KXMXbH1lDtHqQSwxEEsPH9q06KrtXVtaPtfgkxYKcD96zq12UtRsSAOSUGMBCYuycW2kKW29nXnl51eJP7+hjovFHTEwpicYe8lzoBMwF6hSCsE6xnG5gZ9L/3T/FFxBxjJOUaAQOX6KHXBtxRrb/NVlVfPPD8JIGDuvqPR193dk35M71uemz5uZwc8WADDwOcT8+1X1zbYf89Jp5z/IClZcAK08JmZYK3ODGFta7ufIDYAjB5hHm3/Z8XDLbVcxGep75ntLWuv1OweutT11Sun3Gxw/uWI79ZLPTM+j1DTjnjE2eLhXODlzmK8Ja7Lx01giHIP49dpypcPm1O3fsYW30ddN2vEVTyXDflmTpflOoXfsdDaFTiqCL0LXQT9Iwmt7OzmC/6qru9Y9Mac628ujBFLyvREazcnPnC0vqwi9zQ3dGRTd9lIRod2Oen68kxrwsxANl5Q/7WH9h5bPCMyRRDc+hJSsSASdnH5KZ7kpEwMBwGmJewvcVkzLy39yc+XM0f4UaOWBp/L2Vu9fFLr9mV2rQI9vj3b59YsAw3d1B+H3O9b0eqblk6Vw9pP/XtybnmCFFsu316CrB6sOPX9BsWq8PFROJ5D6ecK2xpCedNbl6faPIY4BeoY7urrY24kTf54Mbe7hOyOGqbrLAjr77/0onnFpfjAC6744KJZ03EANKdctUSyRnyZNP3DPGnSQzgWFs2tNWNe9i4bQc1sgM/Jgueveld7xjLFBt8E6GTHdlg39ISeo8DsUXYC28+t+ovym5aB/D5llynjlElZfgFu9Bzhc/3gFVLxInQox6y8F4uYuM3eREv3FjK/TpiAN9EvEP2nuCN2ddpiOsu33Gl5b9+u7W7qK19/hgGNorafcJVl65KarutPw1FDChtM+lL59QSG3lp2bH294WZEr3ME+lyvIXH2hXeKyEGeE8veJiv0+coE33QNmCKGDAwMYBJ9KxrTq9+KGI28Bx70bHVfQyN/swjOgr3/hYXlxDshIcJyWRpZ0fwHGUwBFPT/5IXoSnftme5skDp4qwX3NWjSKB8sCB2+9PXjiBFeAYYxqW6euQaIz2rEVYQC3EoUU/+8I4JQ2Od+0w+Jjm7i5eUM+moP+7RvYsTXHzHXlpc1dmkA+uUQYJzeFH4+bDwbMpQwbjy7osq/MCiPfmKE0d8LLJY+MQPbh9xppzhiw+V8Pyrp39095iFC5OWoypoLwY9bywkfZ0CXdcP3J8VBpvqtCjPct8z2p+L1Wd/ct8EFpmE8KRR9+PdrZN37kIP+PVjrXctB8vVPwuPEJnle2ZyyBmfOMuXd5D2MYdwzh4sRz6U+Xj154AzBsRYgyVyK6k7aUvHVitf4XDGUsl2sWWbO1+U6hecNceYZDoIuwrYZYx+5I0zzCVNGJzFfFFa91mOuU2yTNHLcnUEX27OXEf6ErkddOphFdbAHGTZOv2E+7MkTXtZzfLa6/ptHgOoJ4Qe8xqAjDnm7Iq7Lhx/r/HNhstT8+4GkdS3TcSAxZ5nfF/rWn09jxjge4nd1Bh5b3jkirGt58sv3joet/xuQmxO2HK6tCFlbu2SX1tcxlpsR4y3LPyxcMQYjC3nuIuPG71i/TdU82Gdq+fSuT5Xt+xjrh7Kftom95Tn/sjPlPipcViA8d/8bNrB1sGuX+Zmzg3Hk6Pp3LGNAvMkt1RiwPGXHF+1iYXuJnlttMN2VVxsmj4uC4EmGzw6IB92srOQz/EC2FAhD7DZwqdrIwZgc/XHV0Gq9unD62kSA1iQp82v2WKLEd4sbnvqmhGu5SFRsCnPe9h65ZvevGzjHeOKyQxvKmdec9oIexr2bDDHovQR5xw11gvDzWusefg1EfqRjX3gmPGLc7stb8IhiAG5Y1TYZ6n/2Tlt7WIDVR0hg/yue+iyqv17HLHW5b0vB9u7yYdv6bHsf7JW9vQfaw4Q7Dm206fjuo4YwDPS+nHixi8tkUHCfHL+l3zH5ZTn0/h1D/DKu2nPvbyRK+tN9sxC1l44fsX/rA/I29/n2vcvGyCIy9xr+fkQ263lxUK8f1Z6XTqnltjIS8um7UNhpkQvmzYxAM+aTTYLnoXf1Z7kA1kffYBxFNyzxseGYO6DO9vYLGLAwMSAHfbbvXrR7YWvC5kw/MtP57HYXBef+3Xu7X0+4XXJixDm1eV/rixM6WqSA884R6zOWwD1zDVGYgT2O/tj9YC4EFt0o1w/AcfSct6XnfETkye78z0RJJZHnesr7+rE0hnRwP+PTfy4irM4sZCdfBAcYnVuuzcrDLbVaxGe575ntD0Xq0woMYzU3YPkUyfr3IUePkDqygvve3doVo9ZvWdWfs74ZMSAsH3hf955zgC2snxYKjfyyqk76UrHVt8OXcvYLAx0x0DRfOFcqdmYk6pf0FcYZTw5wPKwECMnZMamfp3VfFFS91mOuU2yTNHLcnUEX27ufFEiN+8twPDVFLbhzrdnUa+7EgOQA4tPb3zn21t1sdCAIWJA97F7UXGndgkLs8CAX1StmxtYMGw6v72u3ilza13anPssrNW1wd9ngwpG91gZpXN9rm7Zx1w9lP00Jqd5ugdhxbuup69DnZx7bCZgATas+zzJLZUYgMtzw3QbYQfX7RY3JBGwmM1GqJi8LA1hV2IAMma3vLfj1tljiDsLYoBvX+wae2+osxl2WMQ0D7KxtHYvJAaQnsU1v7mP8dV/E/prsGll9hXmjlG55UM4M3nsfPAHG9uDFwvDDGsMfpHZyj/4tEnCs+Xtw67EAPL2x0dACGlao7C6pIYl33GpZdTF8+9/6PWHjbdebo+8sGZZ/+x9zJLXIB+37vqWr15d5TFLYkAfc2qujbyPsofCTIleNm1iQB3G/H28jHjss/gf6rV185uIAQMTAqxjYkZL34l2TUfFdqhwD+XczjWz+OttutmIc2qsnC4huzjIhzL9+TFd8siJmysLWJwwX1EYrP0+hNmWssPHu5uy9OE5U3XtQiGBsRf2A/nAyH7up/fX9gUsPiZ1K9NCJlsm7JAQEqsDxwy8dqslbxOWB4xDPEjE0nAPRibP/ZlilpZwmz13HnlXOj4fPhYNKz4NCiDuo/yE59OlXFu+08ZgSt1Wepzc94x252LVu7DzWKm7hkFYJ2fvZov0YKSJ8GP5xBYb6sqPMeXJZxbvmdU/Z3xCcd398H1HjCV1beXDJ6bgWrl9yC2n7lZ+ydhqeSiUIVkYyMNAyXxRol9Yf+EJy+8aYRzDUIReBXHI4tWFs5wvcus+6zG3TpYpelmujuDLzJ0vSuTmj76omyv9/RTs+TYt4rX3usROstQ2oq/tc8yBoxipm28onoXudPc6+kOVDlP3TZJavuLlzQWSm+S2LmOA3dKxMcvmBbwG5I5NKXNrn7JnjqW+dQt2eJvEttZkAyyd63N1y77m6iHsp3320VB5sRjAueOGWx9iM8RbUpPXgnmRWwoxAD3N2oedM+Z51csZb5UWH89k/pldczwtZANblLX4hNg+r7jzwol0671103GevFOWRyz8xKeOqcrGJsyO+li8aRID0KnR81hT8O3012AJL7Oxuto98sErAvY6n5ZrjuPFToVHS4vvQ7wyhDYsvgHx0HDACQdX+Q1BDMgdo3z9u1z73dNs7GlL6z024D49Fh/CBl6lQ7nzn2Mg8BITpsPtPc+b7Kte9m1eLsL8m/6XfMc15ZvyjHUzkxPvY5jGr7PE7M6s2Vj6lNB7x2UNiTS8D2G5/GfctjzBfixO7r2+5tQcG3kfZQ+FmRK9jM0h1l8xLOX2lU+XuvnP6gGZ36fnGh0PL1h2LLrFtRAvOnhrsflIHgOmRBAIO6rrf5hivBiwgHG32jX9IsTHhQusS5QLztthwEUWGKen1T7KwrUcLnyYpO1FaisfZi4flAwkMPFy+5BjBGg/rEN25qS2nXic0cViPkon7KtUwyduhe545tqxW517v3FjEpGhTR56Pr8GqL6wupL7eBbvWYm8+BjmzF7c3V374GVjF2SQAWAcl+Q7zbS5Y+s066iy5nfcUt/Mrm9K9AvrN3Zoo9dwJFKT0dLiz1O4kuueI0fpCLN713L6a5Zp+H7AIxm7K1is+v4/97/ra5btU9l6F4SBxcEA31K49MW+hCth7CUQ3+381ZXW19jN2AmG7YljXSAzju1m//J00rfhIsz166r9lL7H7ohLcRa78QJKf6ZieNZy88QAdo5DKuQXHgGQ2p6u8SBIYHdnHMAGmmu3TSmXd9Pa58k8uPNPSV8ah3GP9mHXBi+MFxyb23XcY/Ge8ZJxE1s1hIIm8pHV2+w/HIEJCdU2zPnF6SGIAVb+IoTY+7Dtj/H6tet63eW/CPJRG/rT03Jt5OqD/vqgqywZ4zkSgjmFMZ5jBfCSEeYjYsAKIQaEHaf/s3u5JHvJXhgQBoQBYUAYEAaEAWFAGBAGhAFhQBgQBoQBYUAYEAaEgXIMeGKA7W4kZHPWosn3kls+We0+9W2dFjFgXuUpYkD5ezSvfat6qW+FgfnDgIgBIgYsnIKlgWb+Bhr1ifpEGBAGhAFhQBgQBoQBYUAYEAaEAWFAGBAGhAFhQBgQBkIM4JEV7x3h7+UpeokN6zTUf9yWh+3kP14LhipzJeQrYoDGhZWAU9VROF0UDIgYIGLAOq10LMqLrHZoUhIGhAFhQBgQBoQBYUAYEAaEAWFAGBAGhAFhQBgQBoQBYUAYWGkYEDFAmF1pmFV9hdmVjAERA0QMEDFAGBAGhAFhQBgQBoQBYUAYEAaEAWFAGBAGhAFhQBgQBoQBYUAYEAaEgaljQMQALbKu5EVW1V34XWkYEDFAE/3UJ/qV9pKovhrYhQFhQBgQBoQBYUAYEAaEAWFAGBAGhAFhQBgQBoQBYUAYEAaEgf4xcNtT14zOWH3q6MxrThv9eAGPkBBm+seMZCqZCgP5GBAxQMQAEQOEAWFAGBAGhAFhQBgQBoQBYUAYEAaEAWFAGBAGhAFhQBgQBoQBYUAYEAaEAWFAGBAGFhgDIgYscOeKMZPPmJHsJDthQBgQBoQBYUAYEAaEAWFAGBAGhAFhQBgQBoQBYUAYEAaEAWFAGBAGhAFhQBhYFAyIGCBigJg/woAwIAwIA8KAMCAMCAPCgDAgDAgDwoAwIAwIA8KAMCAMCAPCgDAgDAgDwoAwIAwIAwuMAREDFrhzF4W9onaIiSUMCAPCgDAgDAgDwoAwIAwIA8KAMCAMCAPCgDAgDAgDwoAwIAwIA8KAMCAMCAPCQD4GRAwQMUDMH2FAGBAGhAFhQBgQBoQBYUAYEAaEAWFAGBAGhAFhQBgQBoQBYUAYEAaEAWFAGBAGhIEFxoCIAQvcuWLM5DNmJDvJThgQBoQBYUAYEAaEAWFAGBAGhAFhQBgQBoQBYUAYEAaEAWFAGBAGhAFhQBgQBhYFAyIGiBgg5o8wIAwIA8KAMCAMCAPCgDAgDAgDwoAwIAwIA8KAMCAMCAPCgDAgDAgDwoAwIAwIA8LAAmNAxIAF7txFYa+oHWJiCQPCgDAgDAgDwoAwIAwIA8KAMCAMCAPCgDAgDAgDwoAwIAwIA8KAMCAMCAPCgDCQj4GQGPD/AUcVXzC6mGFOAAAAAElFTkSuQmCC;" parent="1" vertex="1">
          <mxGeometry x="-2117" y="16" width="2054" height="148" as="geometry" />
        </mxCell>
        <mxCell id="Hc0r8CP2qwdwPxlLsBVn-2" value="" style="shape=image;verticalLabelPosition=bottom;labelBackgroundColor=#ffffff;verticalAlign=top;aspect=fixed;imageAspect=0;image=data:image/png,iVBORw0KGgoAAAANSUhEUgAACAYAAABKCAYAAAAilcQaAAAgAElEQVR4Ae2dB7QdVdXH84APPhQLTVApSksoQZqACSAQwCCK9Cq9KSBKCEUUlE+UIh0BJVEEgQChJSGVNNJDCiUEUgg19b0rIB0DnG/9J9nz9p07M/fMnJl75973f2vdNfOmnLLP75TZZ599Oi00k43L7+pbbjf4uYTBd93KgPKj/MgAGSADZIAMkAEyQAbIABkgA2SADJABMkAGyEADMvDRWLPkrotMW8/tTGnvLfmjDBqKgdZfHGQWvXgv5wYs5lhGvPCAeXTyXebxp++mvCzkxf4suj+buXSoWafz9t6v1zW9yRN5IgNkwIqBAQMGeM91cm1gaRgQ3UC7ypbvU7ZkgAyQATJABsgAGSADZIAMkAEyQAbIABkgA2SgSRlYOsi0ntajoSaCabxA440gA237bmWWPHyF1aQE27Imbcs4KVdT/hd8NM5c2fcK7zdw2j01jZt1mHWYDDQuAzQMYGeVX4fx6USz8L2RZuE7I/ijDOwY+HBMfjyyrlO2ZIAMkAEyQAbIABkgA2SADJABMkAGyEDRGFj2hGk7dBcaBdBDQNMwsPSuC9nOFK2dYXrIJBkgA2SADKxkgIYBrAyZVoZFL9xjlt5wlmk9YS8DK9Gg5Sj/pzVxNQbgMq/13IPMknsvNQv/PTRTPmnF1rhWbCw7lh0ZIANkgAyQATJABsgAGSADZIAMNB0DHz9FTwE0CGhK/eniMTdTp8d5BzJABsgAGSADBWSAhgEFLJRG/MhZ9OrDZtnFRzTlQLbaRDbv52fs0PaDbc3SvheYhR+OZQfCtooMkAEyQAbIABkgA2SADJABMkAGyAAZaCoGltxziZUura1HF8MfZVAYBiwWg7X9ZCez8IPRTVVfG1FnzzTToI4MkAEyQAaCDNAwgB9UzgO0xWNvNpjA5QR5fhPkHV22raftaxYuHeTMarAB5P/sFMkAGSADZIAMkAEyQAbIABkgA2SADJCBujDwzgjTdmDXSH3assuONYuev9ss/GQc9SHU3xaLgc8nmYWtg82SR64wMACI0lsu/Qe3FKhL28L6Uqz6wvJgeZABMlAwBmgYULACabTBwuIR15k2uvyKHABHDYx5PbkRRdvh3/U+OhqtjjC9VDCRATJABsgAGSADZIAMkAEyQAbIABkgA0EGMKkapR9a8sBlVKJTZ9sYDLQONq3HdQ9lue2wXczCzyY2Rj7IG8uJDJABMkAGOggDNAzoIAUd/PjI4v9FL91n2vbfOnTgF/Vhw+vJJ8Qps3aZtZ65Py3l2WZxgEIGyAAZIANkgAyQATJABsgAGSADZKDhGYjaknPZb45u+LxloXdkGI1jTLNozn2RC8cWzX+APLO9JgNkgAyQATJQIAZ8w4B7O3UyLr/PP5th8HMJg++6lUGt5bdg542rGgUs3WNzs7j7ZvxRBlYMtO61RVWmJmz8VbYzju11rdsKxtdYbTvLi+VFBsgAGSADZIAMkAEyQAbIABnIn4GFu38rVAcy+CtrUu9BvUfDMTB/h41CeR69wZcaLi9s//Jv/yhjypgMkAEyUD8GaBjAgWaqwdnI9dcKHexhdTuMASZuvLZ5aPVVU4XNBqF+DUIRZD9wrTXMrG02jORrSffNTL9VVyFbbLvIABkgA2SADJABMkAGyAAZIANkgAyQgYZlIGpxRL9VWxo2T0XQKzEN9dErTt9ivVBd3kQu8GF9Zj9FBsgAGSADhWKAhgEEMhWQc7b/ZuhgD5O2j39x9VRhcuBen4F7UeUO45KobRTGbPhlMsa2iwyQATJABsgAGSADZIAMkAEyQAbIABloWAaidB5F1dMwXdTbxTEw9dvrhurxJm+6dtU6OrDzhmbcYTtX/B5Ya42q78alqYj3Ht14nYp8Iu/916dnhSKWF9PEdo8MkIFmZICGAfyASjzAun+VFhNl1Uz3UGwos2woX+r6jdCPCngUyDIehkVuyQAZIANkgAyQATJABsgAGSADZIAMkIFaMkDDAPJWS97yjsvFMOD5yw825tO+Fb8num7UdPq/KaftWZFP5H30gV2bLq95M8fw2YaSATJABtIxQMMAC8OAR7+5thl/9K7mmYsPNHNvOd48d9mPzYRjdjWPbbqudYf9wBfXMCP33drM7N3TTP3Z3gYDm/tWSecabOgu3zJP7t3F+z32rfUq0vDw177k35fn4o5Dd/5WRRhxFWrAF1cPnaxd3H0z+3BaWswT221kBu+wiRn8nY0TyQLWoiP23MrMOP+AFeVx+cFmwnG7m/7rrmUfv0W5QwbDdt0skSz7rxefhgFbbmAmn9zdPHPJD82YH25vHlr7C/ZpbmkxA7b4msfii9ccaV689igz/Vf7m2G7bWbubUnGUjWGdPlD3qN/sJ2ZccEPzJybjzPTztnXk0u///2fqmkHi2N/vIP3LtI758ZjzfTz9jOje3Y19/9P9a0mhq/zhVDWXvvuJlXj1nnosOcp69mgbb5hJp3Qzcy+6gjzwpWHmacO3cnAormaHO9bdRXz5Pc7m6ln7e29+9L1R5unz97HjOyxjcG9au9neR/see3LDpuYR77xVfu4HerZY5usYyb+9Hvm+d/9xKsrqDNjD97B3L/GavbxW7ZNWlau9SwYViq5pUi3jreW7bqOl+fpBo+UWxPKLWV/4druZTk+Tstl2v4ii7SnjTttXsPew8ok+U4YsVfnqmPKtGOEsLjTXksjtyy+59Kmt6jvPf7t9fyyFwZsjw98IdpD3OObr2/GH/VdbyyI8f+0X/Qww7tvGToWwurAsDhH7LFlsvGb4zikqGXEdDVhf0tWQ9uCerKOvi+sHdLXhn7324nSnaRvzdIwADpKne6o82qrkjPp61OMLbPqq530bg1aR6FfHrX/tp6+DXo36HEmn7KHQVna1q8s5JaVYcA7z/+fKU35rffDeCWYhyE7bRrKOvTMcWOUYDj4f9jum5spp+9lZl99hIEOC3qcpw7ZyTz01YC+tqXF03dF1au468FyGHPQ9n7+3l9wjW8kUEvDALQDyKc313Hr8eb53x9ippyxl6dHC5NT011L0UaJDNLor7LU22EOIM2cSiZtu0UbibkLqQ/4Zha5xR31d8mDX14z9p3PPvyr+fy/fcyCf5wa+1xcfLW8l4XeIGl60a6hDIZ326IhZJQ0fzbP10PuNukq0jM0DIhp0DDBtWR4L6+xCbNa/Oyjv5mXrjvaPPiV+AZr2rk9zOcf3+l39BLWB6/9OdEgDeAM/97mxizv44c1+0+HV1RwDP4kDpvjf178Y0UYcZAOXXvN0MnaeTt8s2o49622ijdxhkGeTpvtxJ0ny08qZYmwPv/kTs/IIC7tSe998Oq1ZenUaQ47h8FIWByPbPgV8/Yzv68Ma3kfj6Gwd/S1Rzda2/x72mWV76+0pn2j/9mh8eow5NyGIXl25D5djB6k6jx/+Ob1ZvD2G0fGu+TJ3pHpRTjvzb3Km3CWuMKO/VdfNZS1xd2SfZiHhd3M19LWMwxu593208hyg2FImEHT/auv5hmqgAnNiD5/+7krPAOBvOUOZfT8v55oMFCU+PG/Tbxp6xmMZKD4/vSD9jglbhxRh+AWziYNSZ/Jop4hThe5JU1z8Plat+vB+Pk/le4dmYG0/UUW7V6W4+M0ZejS7rmm3SXuNHmNe2fR4F/5/SX6rCjDz7RjhLi4k95LI7esvueSprURnn/xz0eVlb0eu1Q7h5FxMI+Y5H9n1h8iw3z3pT9WfPu+eu+Zkc8jDf99+y/mlbtPNzBCCsbH/9l/kwEy4MoAFitUa+9wH99zSeKy7VsRZpaGAbP+cKhVfiad1D00P1n09WnGlln11a56tyRlXKRnYXz31szfhZf98j7mlX+eZuIWMWUpt6wMAx7fbP1QRkXuQZ1yWT1e3se8O+dP3mQ/eJR3gkcs2Fs66sJwuUHH/PGdBvoWee/BL/1v5LNl8Yd4PVg06Jd+OBKeHLEQUd6vhWEA9HdYtIgxlsQbPH74xnVm3OH56LAk3/U6pmmjdFrT6K+y0tulTXsWbbuWQbVzLKoVpmDsW+153J/3l3ZddJRBsYQj82Kv3nO6VdjyXj2OrnqDtGn+eOlNXhksf/f2wssobR7j3quX3OPSVMR7NAyIMQyAlaU0ZHL8779v9Sag5X8cFw89P3J1DTpb/eyn799hYFAg1z5ecmPs5KqGBp13cPCThWFA3ABFxy/nwyJWccPtuzwTPELJCE8J7798tZ93kQGO1QwD0PmFTVh+UrqlzHAja0uopIYBYUoyWD3D+MLP7/I+Zvk7t7X//2lfM+/2EyIZQpjBCVdMeupBHAxYgjIP+9+WIbyLjlg6W6QdsobF7ietN/tp/+9bt0auAPrPC1f6z+F95Lli4nR5HwNL2bC04toDq60S+qG8ZI8E3ili6nhUvI163bWeLR7Wyy8zWF/+Z/aVXpsDoxvh9/UHf15hHADPF3JfjviIAh/yP44Ix1uNmEOZ4KMOymWdVonbxjDApZ693OfksnyinV42+kLz0aIb/Ote3vfcKpL1tMy51jNXuaVNN96rV7vukma+SwV0szDg2l+4tntZjo+Tlolru+eSdte4k+a12vMTjt3N76ekz4wyDEg7RqiWBpv7LnLL4nvOJo2N+EyWhgEYzwfHffjOFaWU8DVqv23KxkLVDAPkPXxDw7i5EeXMNHPsQAaKy0AehgFJ+lawUSTDAJe+3mVsmUVf7ap3a9R6ihXAWr8IvV3rUxebt6ZfXqYbidJbZy23QhgGqIn5ZWMuCvVeObDLhmVyg/4Li/egs8a5jD9wFDaaxTBg/t9OKssf+IHuT+uYke/nLj/Yz7vIoJGPLm0U8u2iv3LV27mm3aVtT1Pm8BYmdWji8btbcbRw4Hn+O9W82shcRdENA1z0Bmnkrt+Rb7COaBhQT7nrMmiEcxoGxExQyeAU1r5w+w4rShQqJlexH9Dy/7RP7qLRCxY43KBIY4VJIVjbwZ02XKJohWrr+F9XvBsMC/8/+5sf+Y2kNLBhhgGYpMP2AHE/GANIGEmtANMYBsC1tsSH46fv3V5mIFHNMGDSid389zG5DFflGMBKecAgAB1C0D1TmByTXEN4cXIcdcC2frowGRgWNlzbSN4xgf/I11dwhIl3DNrlXlBRhrCwOvu9eVf5zywd2dtz4w8GcR+uiOCaH1sLhMUdvGbLENwS/fvpdg8FqAsYBHnhtbQYvfdX24RwfjGB/NINx3hbaIhXDbj0GvOj75jX+p3l5+mTtlsiXa3TMCCZEsWlnmHLB2ERH0RwzSb84KNJG7fARZ3cw1EMA6AAfvbSg7ytUoRRuJDCR6iEDcvjfmtGu5/V4dqeo55IWyvx6LpVzTDApZ49se03/bzBYAdtgqQbiibUAUlTVBshz6c5utQzV7mlSa9+p17tuk4Dz5O1MZRX88jLpb9wbfeyHh8n4dK13XNJu2vcSfJp8+xD63zRoN+WPkqOYYYBLmMEm7TEPeMqN9fvubi0Nfo9fH+Ffee8+di5PhfTf7l/6DOaE2xtp73jYWWiXumHb7ZZVxxiMLkf/N7RhgHwvAavA/h528b1OqDMsADexmzdkTZ62TD9zdPfsiyLXZbaMACTEmFtIq7Z6pmS9K3CRl6GAei7o/JT4SK9UydvC0gZCyTVByAvLmPLLPpqF72blEUjHl9/6Od+n43+W7vghmHlhwvbvTqG6X6zlls9DAOG7LipN3bANwp099C368l9sBksW+2R9dV/nWHgPVKegb4KLrjF84dch54UcQXrFeKUugOdT/A+/tfjIj+8lfMRtfQYAH2spBXfAeOO2KVskRrk8OyvD/K+EZrNMMCljUKZueivXPR2iNsl7fX4jsN2xMIZeAoyH/b/28+u8LIMXW7YfX0N3wmoo/hm0NeLdO6iN8giHx3VMKDecs+i7GoZBg0DYgwDMPk1+DvRrtKxd7Y0dIuHnF/RGOmGGxOyumAxUaoVKNUaM9yX1dZQtki8YYYBOp6wc0zYiSLw42U3eYYOYc9FXUtlGPD7Q7w0YyXJC3883MD6a8mIC/x8VDMMkA4CCiV0AFFpq/V1KMukLGb0OqAiXXDXIwYkGJAH3XdhQl/ef+2+Myvex97ucv+NR85JXFZaHkkYwsBV4oVLUAyAdVg418Yl1fgNvovwYBAjcYR5WsA7NAxIpkjBnmCQaZp6pq0zsS9ssMywr6KUV5DV+9dYzXPTFjXhDyWu3pJi2G7ZenzwJg1WWoW3jrvEjO7Z1cBdlaS3mmGASz2bcf4Bfjxzbjq2Qm5QNn3w+p9XPLO8j0GbEJRtbv9XqWeucnNNd1Hbddd88f1k7RblVR95ufQXru1eluPjpPy4tnsuaXeNO2leqz2/4O+neH0TFKNQYkqfqSd8JQyXMYKEkfboKjfX77m06W7k9+bfcaLPgzZ4jMoTPJ8JP/DwFvbdgHehqAl+C2nDgGG7Vo4PsYWA9kSAvXCj0sHr9elPKHfKvZEZ0IYBmEx0zUuSvlXiyssw4NGNk23B4trXu4wtXftqV72blEXDHVtaDLzaog/GYrSwVbbw3Cp99OyrjyhjPA+51cMwIMxocPqv2nW10MfossXYQmSybOzFFR4x9bNYJKP/DzvH4i8Jr23ipVWfD4ZRS8OAl/uuGP8jvSN7lHtx0unCoq6kbYh+v4jnLm0U8pOb/qqK3g5xu6TdtW1PU5YwhJE64XlIjpl7k/BlvF+a/JvEdUjCKNLRRW+QRT46qmFAveWeRdnVMgwaBlg0TlEFgkGXNHQfLb6xvOFqaWmfCFvex1vZrcMJum6MneBvafHcUiMuWCxCISLxxr4XkTdYicr7YRNZOp1h52kMA+Bh4bnf/shoy2RbwwCsLJH04kMrLE31uiaKVBh5PLzBlyvSNvnk7n7a5956fNl9rJ7Rrppg9KDlgzzJ5DmsXaFMS53PhAxhxY7IHCvAw+LVVocvXHlY6DNh78k1vCNxRO5xx60EEsnVpZ6JRwAYIMGziZSTPsIdHcoMrIoXCH0/7lzvF4WP07hnE99raTFvPnquwd6E8q63FcZKY4FqhgEu9QyGTsLx1DO/78cv6cBRe0x4YruNQp/Rz2d5HlvPHOXmks4it+su+eK7VI43CgMu/YVTu5fl+DhinBtbBi7tnmvaXeJOk9eYd0bu02VF37W8jxm2++bm7WdWrNBAfxZmGJD3GCG3MouRgcQZ+z1n8b6E00zHJIYBWFkGj0kyPoQXqSSyqGYYgLBeuu5of6wVNLZPEhefZR9NBshAkIEsDQOS9q2SlqIYBrj29S5jS5FF1LFaX+2qd4uKt+jXsUBDdBFYiBSWXozz5Jk3+p9d9kweciuKYQB0WtBbSd71+AQLYeS67WrmMNnKtUYyDBCX9tD7RRlySr5ijy0tBnKEh8yloy70jIxfu/8sM/PCnmVeK6LCGHfYzgbzEdDFvf7AzwwWXsLjCoyEnrn4QC+cKL1kVJjVrru0UXnrr2L1dp06eV6r086puLbt1eQadh9lJ98Hi574pd/uwOAbBkne7wvtnmShX5Y6+crdp/vPS9hY/AUugr/RB3ateFbewRGMzvrDod58FP6Ht2n8jwVl8JIMg0DtLVe/63TuqjfI4Bs0E8OAFPUcRuCQMX7YBg7zXFNO38vAMwvm0LDIdOZFB7Z7pc4gr35ZFUDuflqyzFeOYdEwwEG4cOMuDRfcvevC1xaIb834Xdk9uB4K7oONzlC/r88nn7qnFw8a1QFbbuBsGKAnqQbvsElkvDoN+jyNYYB+X85tDQO0EUXUynIJs5ZHPcCGy66wuLU15tiDdyh75o2Hz/b5EY60e029fxUazrDwba8lZQgDDknTxJ9+LzRuuNOTZ3RHb5umBXe1b7EA11th79FjgLvyxqaeeYO2j/7mlWewLdPlggG7lDk8COh71c6xgkzejWKqWhhJ7tsaBrjWM2xrIvmaccEPQmWi3dQlNahIkuewZ23qmX7PVm76nTTnRW3X0+SF77i3U5RhMWRo01+grFzavSzHx1lxY9vu5ZF227izyivCwcT/u3P+5PVdGKfiWpxhQC3GCEnzl6Xc4r7nkqarWZ5PYhgw7dz2PUQxyZ9UBjaGAU//vN1LX9GMxJPml88Xo79jObAchIGsDAOS9q0SP45FMAzIq6+3HVtqeYSdV+urXfRuYfE10rWPFt3gjemwT3zYRK92Hf/S9UeX9dN5yK0ohgEoQ+21Ui/Q0Cv0scDEtbwbyjBg9pW+/irOQ3KcTJBfvWe96MPkiK2fMO8RFgbaXPGsIs/LEXMnemuMME8QYWG6XLNto/LWXyXV2yHPNmnPq223kbkspMRRntfbbmDiWq6jfgoHmI+Q63KEsYDc10dsKS3PhB2FJ2xnjW0z9BYjEg4MiKLmJMLCtLmWh97AJl79jKthQNp6rredxOp9eFERWesjDIrAp06z63kR5O6ah1q/T8MAB8OAp36yow833PvrwtNut7VLMkBfmvpb7z10emIggI5Tvy/nWIWOPdhReWRVtovHAG8PyP/2WRH/zHKDBYmz2rHWhgGyH/3yd2/3ZDRy360NXGDBvQy2cHjx2qPKVgpXS39W9/UgGiyEhYsJc2n4tBsmGAnIdeEB/088fnc/nEFbf91/BlaXj2z4FYMVybDyxTtgDtsXYGIzLG65loYhrMaR9Ok0SZg46vRh4lPfizu/b7VVDKxDZSsNuAvqv+5aoe/TMMBdaWM1WFylxbfmjGqLUKZSF8EGPjDjyjl4762Zv/OZittfLfhe2v9tJw00x2nqGdpU2eYFEy2wfNVpxr5XZvmKNnfZ6AvL7unnsj5PUs903LZy0++kOReWitaup8kL33FvpyjDYsjQpr9AWbm0e1mNj7NkxrbdyyPttnFnmV9ZkYL9G6FoR9ixhgE1GCMkzV+Wcov7nkuarmZ5PolhgFaURnkAi5OLjWGA9lKCfajjwuO9YvQnLAeWQ6MwoA0D3pt/tTfZhT4ReiZ4K8GWczZ5Sdq36jDzMgxYOOA8T2fm6Y7uPt08c8kPDbxW6rjlHKs4ZXVnlvoA27GlpCPqWK2vdtG7RcXZKNd1nx30YAidwJLhvXw9jPawiPzlIbeiGAbAFb7oHKG/0npTTIiLvhPch21llKT8G8kwAIYQknes8A/zFBaXd8jR3yrz074G7QXGZrOuOMQsebK3HzbmMYLbRyHcOTcf5z+DbTAwDoSHT23EIenThgHQIS/4x6mJf1FtnuTRto3KS3+VVm+H9NukPa+2XeQXd8R2yChLeEqW57Sbd9wT3bA2GBh/ZOXWtmjbsOJcfsKIrWEAnkddx/wD3oGnC2ybLOF4xgtqC2VX3vLQG4gMbY8uhgEu9VwbBoh8S1N+a2CYhvou86C4F9zGuBnkbls+RXmOhgEOhgGY5BHIYXGoC1VbZWLiWu5NP28/7x1UBLgr+fDN673/sQ+9PKOP6KgRxwevXmswsME9F8MA2ZcGYSItOi7b81obBoibbww44OZJZF52XN7HG2Dcv/pqqfJkm3d57sEvr2lQZkgDtpHAB6Xc00e9UlgmDHFEeeJdDMqmnLGXnye94li7KprZu6d5/5UV75TlGwOx+Vd77ll0vPo8DUNlWwn8OnwrAc34B6+V79ml44esYGgAqz8YNcgeaMgH6sGkE7qFyg5h0DDAXalkM1iErH33Uu/fEbnHmuYZXih0Ocede5PjK936/2f2ldbvxYVZ7Z7tpEEW9QyygIU+mEa7gMEOFC9e27XSKODjZTcZbaVeLf1J77vUMx2Xrdz0O2nOi9iup8kH33FvoyjD4sjQtr9AmaVt9/TYwWV8nCU3tu1eHmm3jTur/KIf+mylhyCs9JZw4wwD8EyeYwRJQ5JjlnKL+55LkqZmelZPMow6YFufk7A8ykocjIGqPRv2fjXDABgPy2pIxBFUIIWFyWvF6VdYFiyLojOgDQPQxoT9sDIWRpFReUnbt0p4eRkGhOUFkyJR2/rl0dcnGVuKPMKO1fpqradIqncLiy/La1gc9vzlBxtsh5BluBIWjDyx8lLKG/ugIz5MtkIHIdfRt8s7csxDboUwDGhp8dzUS97bJl1alndMxspqZjyDVcSo53Bn7+ls1AShyCru2EiGAVrXi7x/+MZ1nqzgkl1vtxCVX22sicVq/dZsdwePd6DTFrkHmQOrsr0DJi0xgSjxwN04Jg/lXRy1YQC2Udb3bM8Hb7+xH4fEpY+2bVRW+qus9HbIg23a82jbtQyjzmdfdYRfZsIWtsfWZQce8T76Jblu48lCFl8lMQzA/NvALhv6PIBdvVBTGwi58paH3iBKzlHXXQwDXOp50DAARuTam43e3hw86PQ3g9x1fhrhnIYBKQ0Dpp2zr99oBUFGwWPvGmnUZC9E7MEok0eiDNWDEd3pIQxtMYWKI0ClNQzAgBQTuEgXLKXCrPckjrhjrQ0DyibEV06ywYJ77i3Hm4WP/6LMFQz2m4lLe1b3YK0m5QtL8qhwxZISlqryDKyk8C4+ymC9CHc2EtaL1xzpP6f3+5L7KD+4XXr5zpMMXL7L9Y+X3Bi6j1NahrBlg4QdtJyTfGB7A3kGPMn14BEWgPKcPiIvsKILPq//p2GAuzLJdrCoyxNM6nLAuWYC5YiJ7+AzYf/DdT6MevAOPriwp1PYc1lfs500yKKeIe2oyzDS0YzLObYNefzb0cqkLPLuUs90/LZy0++kOS9iu54mH3zHvY2iDIsjQ9v+QsosTbuXxfhY4s/qaNvu5ZF227izyCtWjEAxir4JXny0675qhgF5jRHS5isruVX7nkubvkZ/L4lhgFao2SjygrLRhgEj9tjSwMgbeybDFSS+f0WZCW5hXJzXxEowXfy/OH0Ty4JlkScDYhiA71RMqC4ceJ43QSh6M/mew77cYYtQXPpWyVcehgGYEGh96mKDFZvYR1km4yQ/YYsz8ujrk44tRSb6aNNXu+jddFx5nIs3ibTrztEAACAASURBVLefuyLXPkzLScoZR28xzondyiZmJJ95yK0ehgHwpIpJ/Wm/6OF5l9XeKrFwQ0/4Sd6h3/qk9eZQ/Q0WcsFL7YAtvmalu2okwwDkP8otOyZbUWcnHLd72XeCyAzeaMVbJlZbY7wm9+QIowsYG4A96In1IrpnL21f6IdzeUeO0BVqdvUcCfjG90rSX7UytG2jstJfZaW3g8xs055H2y5lFneULY1RpoNXGmhInZO5MazcRxh6IlqXe1T4aQwDpv9y/wrmJp3YzWdOL/h15S0PvUGULKKupzUMcK3n2jAAxt1hXklEdx5cONgMco8qj6Jep2FACsOA4d/b3HezBfc4Ya5pMDCRDm3G+Qd4jY+47EEFkNX/2iLukW981W+kYOUqHQ9cP2mA0hoG6ElirO7QYSY5r7VhgHQYnjyX9/Em0nV6R+2/re+KxHNLv164W3r9juu5VoJpK8dguJJ2cZ0DLxHiNkUstWGZKazAqlfC0Azh/rKxF5dZcKKz1NZ2stWEvO/CED5w35p+uZ8uGD/4CuSWFvPc5Qf79yTtYR/KSAu2UIClMn7B/XzAPwxmJM3BIw0D3BVBtoNF7Z4PbY9W7g7svKFBhy1ljWOQt2DZ4X9w9OZj7a7KYDEa9lwe12wnDVzrGdI+YMsNvEkWLR99DsMgGPOEfThllXeXeqbTYCs3/U6ac2kbPTkVpF1Pkw++495GUYbFkaFtf4EyS9vu6TY3zfg4D15s27080m4bdxb5xoe29E2IV4dZzTAgjzGCjj/peRZys/meS5quZnk+iWGAKHbAlrgDTSIHbRggfEYdwwxXk8TFZ4vT37AsWBZFYQDfq+jf9baPkraJP/2ewbY70iZhFbbck6NL3yphZGkYgG03offzdTcr9Z3QuejvcuhmgguF8ujrk4wtRR76aNtXy7dlGr2bji+Pc7Ali3ryMg6Ad86g8YdwiyPctI/Yq3MFv3nIrR6GATqv+hyGMYO2+UZFvqWcUS+w9a94g9Xv4hzbHtpsk9RohgHIP4yDsL1xMM/y/7IxF3nb2YqscITuXe5jkR48g8pv5D5djPzEhTye1XrF1+47038/asyotxSwmSDW6UtzbttGSV3x8u+gv8pKb4e82qY9j7bdRtYw+BVesIIeRhoiP/SnOMf+8wgLWwTgfxgr2YSdxjAgbLHWsN0399Mougmb+Ks9k4feoFqcwftpDQNc67k2DFhw16mh5bl46Pme3KXPDqY97f9FkHvatNfrPRoGJDQMgNsRcceECd4xB20fCjkGD9IAYg8V3RDDdbUUOCyP5TltRSOryuHuU7s6wXtpDQPEMAHx4WNB0pD0WGvDADGQQLqxr09YevUAA3uShD2T1TUMbKTMYCAQF64/qFnex7MwF1ddsN4WVypwiSnhwUpOwitbyby8T+iA1tsffaUXBXxkyLs4ujKEj0pJF44wgsHAUfiH9ScGyt690i1lcet06HNMjMI4Qn+UonyjBnw0DHBXGtkOFlFOMD6RMocRB4wBsFJLjFlkYIFnbLYimXvr8X54+LDIc2Jcc4Zz20kD13oGgy6xeoUBAOowDCkeWueLXhqQb5EpuA+mM4//k9YznQZbuel30pwXrV1Pkwe+494+UYbFkqFtf+HS7rmOj/NgxrbdyyPttnG75huKT3x4oz+C289geNUMA/B81mOEYBqS/O8qN9vvuSRpaqZnkxgGiGtVsIXVd0nlYGMYABfJw3bbLHHYSdPC54vVJ7E8WB5FYAArZ+VbDt8vOk1Z9K0IL0vDAJ2+4DkWcmiPpfgODj6TdV9vO7YMpgP/J+mrXfRuYXHbXoPxyMwLe1b9wdupcJS1cYB2vYywsa0PvOtgEgyTJDLpDf1dcOV8HnKri2HA8j4Vi5Cgw5pz47FWOigsqsLEJbwEaG8DUmYwUIljohENAyQ/MJyAgdPrD/zM82orecYR2yvIczhqQyj9XNy53gJKxowoGxhl6bDlfMmTvf26EqUnlmezONq2UXnor1z0dsi7bdrxbNZtu43ssfJc2IBHjwnH7ub9j3mwITtu6p3DAwW8SmCOBM8uHdk7lItgfIkNAzAnE7IFNPoZSSMMrILxpP0/D71B0rSI/h7zNkneda3n2jBg1v8dGhq3bHmNeYckaav2bBHkXi2NRbtPw4AEhgGw7JK94dFwxO2xPbpn+ypwWMiIK7KgtYzsmQjXiAIHJp5lIi5shW0awwAMVDBphXRjX5WgBbHEbXOstWGA9qoQNekPa0dpzDEwt8lH2mf0oP7pn+8TG1dp8m/8dM36w6HeOQbk2thj6lnte+lo1zbak0Bw0l+nXVbq6MY+K4aQhg8XXu/nQWSMxhsfyaJIjkufTqs+f/3Bn/vhzrwofAsIGga4K4SSDBbh9h8TBlLO+ggXhPjwlWtRdVHKWHuVgFtG7Bkm92pxtJ00cKlnyMecm4/zZfLcZT+uyCMGn1oBg3TVIv8Sh009k2dxtJWbfifNedHa9TR54Dvu7RNlWCwZ2vYXLu2ey/g4L15s27080m4bt2veZR94eNZ6ZMOvVPRDMp5DH68NlXW8WY4RdLhpzl3kluR7Lk3amuGdJIYBemIfSvWk+dfvw7gSE1X4QZGMLcewH23SMPl8sfoWlgfLo9EZEHfrmIjQE1VZ9K2QTa0MAxCXdm+MSdBg2WTd19uOLYPpSNpXu+jdgnEn+T9sEln0JXHHKP1XkrjxLLzXimt3LODB4oRgGNq4BeWh7+cht3oYBki9xJgBumE9rp1z07Fledb5jzqHvrZ13CW+nqfaZGUjGwZoGcB4aNq5PXwPyWB4xJ5b+fKTxWe4ju1s4Qmj2m/swTv478t8Cjyx6Hj1uV70J+Wq72d9bttG5a2/Sqq3gxxs045ns27bbcsBc13gBXNb2DYA5/DSgS0nxGhp6M7f8ufa5t1+QiQbOs6khgGfvhc+OV5mGBCiz9VxJjnPQ2+QJH48m9YwwLWea8OAqPk5MQxAOSbNV9zzRZB7XPqKeI+GAZaGAbC41Kv7n/115X44uoDF+gmNnvzQcfZft93NPSzkMEmM+1iVK+/rgRvc1WBiVv9kxQ/eg7so796b1xtYOUoYwSP2A5d0hBkbBJ+P+7/WhgHY503SHrUSZWSPbfxn5v3lp5FyiMuXzb1+a67uu5PDAPyhteMnO+FeSdIux+Dkod5nacIxu/ppR+co72BPoKj06QGrKM+yZAh5hKIPzKMjx36fkm/xHoAtDaLSF3V98PbtnhcWPRGePxoGuCuSkgwWpazQfkFpgC0k8NE6eIdNPA8X2nIwaG0u7+KIjwlh9/2XrzZ6mxT9XJ7ntpMGLvUM6deT/lIvgvmCdazII0sr1GA8Yf/b1DP9nq3c9DtpzovUrqdJP99xb5sow+LJ0La/cGn3XMbHeTFj2+7lkXbbuF3z/u6cP/n9kP6mkHNRrqCv+mjxjd63RXC8KmlwHSNIOC7HtHJL+j3nksZGfjeJYYDeE1S2SUuSd20YEDe2TBImny1e/8IyYZk0MgN6fKTdYmfVt9bSMEC7do7zZpdVX69lZ6sTSNNXu+jdXNhE/jD5YvMTfQAW2bh4cNXpxRY7Ei5Wx+t7+lwmiOCRVi8Sy0Nu9TQMkDzDCFYW4UHeT3TdKFI28k7wiJX0Ilu9kC/4HP5vFsMAyZuepNaL18T9O+QCvbA8b3t896U/ejKFoXLUO288fLYvd20YANYxZkz6g2eXqLhw3baNylt/lVRvlyTtOv9Zte06zLhzMajARHDbhF97ZSuLbMU7BLzRyuLY6b/aP7a8JC75dn31ntNjnxcDvqSGAa685aE3kLzbHqXd14tIbd51recuhgHNIHcbGRfpGRoGWBgGwLJK77f+4jVHxjY8KGA9MJDBBNym6MLXE1LLRl/o39OTuvKuzRHp1OH75y0t5r25V/mdq16t7j9jIQd5ttaGAS/3PcVPO/YvknToI6wQRUZwpaXvyTn2UJv2ix5lv2ouoeRdOeoV0+jY5HrUUSvWkD4o02GFqZ/XA4wnv9++79djm6zj5wnuyPU7+tzfF2p5HwPDBdzLnKEQPrRS1taqT6cb1sxSZpCLvifnNAxwVyLZDnRF5nHHsrC+XrniEO963jtWbm+BCQfsIxUXZvAePpLL6um5PTxr0uBz1f7XfM7/64mRaXCpZ0iDbKcBa9eoNMGwRliHdWzYc1m0T2Hh2tQz/Z6t3PQ7adKeVbuu08Fz9/aCMuzYMixr47/x1dC2Coy4tHsu4+Mgn7XuL7JMu+SlVm2unryQ/qjaEasFJJ02xzJ+IsYIafqLsLjTyC3N91xY3B3hmv5+gUviuDxDuScsQcEX92zYPRoGdOx+J4wJXiMTRWMA20dKO/fYpuv67VxWfWstDQMwdpK8YGVuUlnb9PU6zLLnY8aW8k7avlr3W8hfEr2bxJ3nUbyHYpJ60ondEss9Km0ze/f0y3PGBT+IDFe2NIVs4I1BwstDbkUwDED+tGfWqIVIIoeo4zuz/uDLN2oRCN7V3wiyZ3pUmGHXxx+9qx8PPFqGPVPLa+OPbN/uVhucYCGbtB9Y/JI0TUuG9/Lfj/JQJpPHiEcbBugtMyQNNkdMuMel07aNylt/lVRvhzzZpj0u/3KvLKyI7zh5NskRE/coJ/SjWNiKc5mTmnXFId7/mA+TsrQ1msrbMMCVN90mSN5s5wSTyDfu2bSGAa713MUwoBnkHlcmRbxHw4CQCU9dUA98YXV/rxNU5rgJJv0ezrX7orAV1ViBLQ3EMxe3u1JHI4l7UT/f5canfT33RngOHgHC9ktBOkbu08WPJ80gJZivWhsGYOAscora11wPiLHSOZhm/A93lBKOHLEiOuzZqGt6X55qijKEobd9QMc1bPfyvalgJACvEEgP3CmVDY5g0DFvhUEHvE2ElS+uiWseuLiTdGfNkISrj1qRN2KvdoMG/Uzc+fBuW/jlARdmYc/SMMBdMVQ2wLP4GA8rB1wb2HlDI4Mv7PUa9hx4F0vPT1pvNk9sl9wyGx9tUj/l+OCXI4yeYtpv60kDh3oGGYg7NKQ1arsE/VEa5bEli/YprExs6pl+z1puSvZp0p5Vu67TznP39oIy7NgytO0vXNu9tOPjIJ817y8cxvbBtMv/tWpzp5yxV+R3Bb4jMM6UPherBHAN3w+SzmpHmzECwkjTX4TFnVRuLt9zYfE3+zU9UVDtewdjtE/ablnBz/I+3p7GSeSjvyfoMaBj90FJuOGzZKVWDGCyxjeIfOc2z4uexJ1V31pLwwDt5SXKxa/kL3i07ev1e7ZjS7zj0lc76d3Ud61Oe1bnkDPGWFkbBSB9k0/Zwx+/wbtnVJpl9TzSgX2/5bk85FYUwwC4KtcL5NKMMbAlJmSG1cbw+CtyCx71JGAanXvRDAOeOnQnnyu95ciQnVbsCw+ZYCV2UA7V/sciGbyLX9iiP3hBFvfyeEYbBmAbX2xvmvT3+Obrx6bTto3KW3+VVG8HWdumvVq5pGnbq4Up9+GBTsocR+iJ721ZUZdG/2C7snu4P2DLDWLLS8IV3XReHgOy4C0rnYfkOekxrWGAaz13MQxoBrknLad6P0/DgJhBICZtFw8532+ooLiIGwwECxMud6QBDHaasDaEi23cx0SarVstxKEHb1Gr43Va9B49+HjR99Kc19owAIMBmTyHzIIr7uEKq2zAt9tmoXl0VUZisl3K84PX/mzFAibupTFGOQetFeEmR8IM2wJBd6JhZacHJ2DVtjytGVrZYQfDxQeITABjYBa8P3CrDSryqp/BIL11/Ao3Qsg/PlD1fTmnYYC70ifRYDGivLHCT+8/N+ag7SvKa9R+2/hbo2C7E9Q3Kcckx3pM9LjUM2zzIXUYEynBvKLPQB2RZ+DNI/gM/k/TPmVVz3R6kk62pE17Vu26TjvP3dsLyrBjy9C2v3Bt97IaH9ejv8gq7VLXatXmSnxRR624KDNS1d9JDmMEiTdNXyfv6mMSubl+z+l4O8p5EsMAyES7nIQRdZQXOyiag56kaBjQsfudjlKnmM/ico5+KWwBhldmLS3mlX+e5n/HRRnHR5WvVd/aqZPJyjAA7tPjJsGgrJf96PFtGrq4I4O+XsvDdmzp2le76t10mrM+x7aM0AlCd5d12NhqVfQM2AoqbKGC9q6KhUc6DXnIrSiGAcjn1DO/78sH3w2Sd0zkL/j7Kd7iF7kWPI7af1vPmAPyxWrn4H39fyMZBmCrUCymi2r3oF/XK7jBj+QV98RYwlv4tmu47h3Pw5uttyWp+pbQK5Ff/dcZfrgSvi4vyF0bBsgzWR9t2ygX/VUeejvIwTbtnswybttty0EbvaBM4TFZ3kV7JRP8uOdtdbLaKv59eS7sKO/lZRgQFmfSa1nrDZLGL3NRSbcScK3nLoYBSfMY9ny95R6WpiJfo2GA6qSCBTX31uP9QQQaKUz6YGV61C+oSMPeWJ99+Fc/DKwUffzb6xlYKuoGXDeMwTSE/W89qdupk+m/7lr+4B9WjmlW3gbTkNYwAAOKGecf4P9kNTxkCxcycg+VGA2RjldbFraOu8SbdMZAZtDWXy8z3ohzYemqjMQWEkirl94/HFqWPp3W4Dlcscp7/3nxj2Z0z66eqykMej7/+E7/Hgb1wXfhqk46PHzEwV0TyhQdKD4stDXliD23qng/GJ78b8MQLPXghQB7omOLA8gaCj2tLES+xh/13Yp4scco7mE/IZQnLAFhWAHLs0kndS/blx11JGplOQ0DkitRXOoZFB/YZw6uw7B/Itqqaef2MNpNorftQ2BQ+di31itjEW1aVDuJ6yP33bqCGWEz7UTPw1/7kt+GoC2BoY3UO3Ao7QuOwS1EXOrZxON39+MBy89eepCBUgbGL9iXDns3SjowMEM6Ja/6mKZ9yqKeuchN0p8m7Xg3i3Zd0sBj8raCMqPM0vYXru1eVuPjevQXrmmvZ5sbV+dtJi/SjhF0vGn7Cxe5uX7P6fR3lHM91q/mMQAygcG77zXg074G25xh+zUoQvHDfpHiPhaGpFqONAxgX6R54Dl5qDUD+LbFamosuHnqJzt6eibsR452q23Spf53HCYs8H2cJH02fSvCy8owAGmG7gjtLSb+MPGPNhi6nOd/f4i36lm+S9945JzQvLj29WnHlln01S56tyTlmuZZ2fIzzbtx78CgAgxLuWJBAnQd96+xmtc3Tz65u7dCV+6HLcjJWm5FMgyAHLC9peQf41DIE7pOXIMXByykw4Q1FnFB14pJLRg8YrGLvAcdUlw5NJJhACbkka/3F1xj4M1iZI9tzKPfXNs8utHaBtsYtD51sZ/vj5fdZB780v+W5R3tisgFE44zeh1gvC1WWlo85uAl98U/H+WNC4OL16Dn1/MAz//uJ1744Bjtl7ial/DzMAxI20ah/NPqr7LQ2yF+l7S7tu1x/Mfdg3GIlCeOwcVUbz93hX8f8yVhYWH+A1ug6J+ECX2rvo5zbfSCRbp4FvNhYWHrBaBYMBb2TNprrnqDtPHKe2IYgHYuTj8v9+C1R951qef1Ngyot9xFho1ypGFAjGGA9hYgjU7cEZNBwYJHw62NA4LvYxAX9l4wHP2/zaSuPK8tZV65+/SK9MlzSY5pDQMWD233vhCUQ/B/3SAhbajYesVy8Hn8/9+3bo2cYEYYaZWReBcDFe1mNbjaJU5+GMzAYCEszXItaosEhOutzlcGBPKOPsLaNS4NwXs2DHnuhFYaQui45BweAzBpHAwb/8vAR56NPC7vY7A3aVgYuEbDgOTKIZd6pr2LhJUZ9qbDR0OwvIbttlks38Gw5t1+QkUYEmbaiR58gATjifpfu0OTeF3qmd7exY9zeZ/y9CzvY8b+uN3aWuKVY5r2KYt65io3pD9N2vFeFu26yI/H5G0FZUaZOfUX959V3sZhvJCg3ctifFyv/sIl7fVsc+PqvM3kRdoxgo43bX/hIrcsvud0HjrCeVLDAMgEk096L15/PBT4lqBhAPuejlCHmMfG4VxPqka1W1Cqx+3fHlXeNn0r3s3UMCDQ5oblCUb/Ucbqrn192rFlFn21q94tqhyLfh0GK9oThFfmwTH5ykU70GsG85O13IpkGIC8ylYOkAu8nuGaGAaE1Y/gtcXDevmuz4Oyk/8b0TAgmM/g/9D3Bsdskl9MoIoH2eB7+v+gYQDehy4ahlbyHNpXPWeiz/MwDEjbRiHtafVXWejtEL9L2l3bdin7pEdsDyFljWPQUw10w3Ifi9TCwl9w16n+M/Js3BHePiScehoGIA0uegPJQ9qjGAbEyUrfg3GQjittPa+3YUC95a5l2AjnNAyIMQzQrlJ1ZYk6RycRVuhYIa6t4vA+OkJY8ka9ExaOXEPDImmYVWXlOlbKyrNJ9gqVuMKOaQ0DwhS4kray4/I+Juh9AenAoOC1fmf5e7zpdyDLxzZZJ1T+kge9T4q8++K1R8W+I+/CclLegYtMuW57RH7QEcv+dBLWh29cZ6acXn17B7huf2/+iq0n5F0cYcUKzwO26ZDnbBjCxyJW/Oj4cI4BINxH6c5WwpXjkB03Na8/8DMDC9Pg+/I/BjV4Tt4JO9IwILlSxaWewdoXBjZSRnJEOb7c9xRv37+wctIu7OSduCNWBISFg2sLB5xXHv/yPhVWymHvhk02RKUhzFIeYaatZ7B8Rj3Ue/fpuJeNucgM3bnSI4jOR5r2KYt6loXc0qRd8u7arks4PCZvKygzysylv8ii3XMdH9ezv0ib9nq3uVH13h/vLe/jrTILey7tGEGHlba/cJFbVt9zOh/Nfq69LmElmW1+sapswT9ONXBnrMdBOMc3EO4Ft8+D4bo8W22sZJsOPsf+jQyQAVsGsFo6rM2SdgleA9K2TTZ9K9KZlWEA+likN2rCDt4mn7v84Mh+Hmlx7evTji2z6qtd9W623BTtOUx0v/Hw2X5/KvziCJ0hVunGeS3IUm61MgzQLu3j8oaxySelW3zZwBMqnp/2ix4G24NE1ZcP37ze89gaZkwRLP+HN/iyHz483AbvV/tfu1uH7rna8y73MabGOA+6aM2JPgdL8H4ZFw/CeWv65ZWG4RjzvXObpw+G59iwMJ7cu0uFrhhzJPC+Of9vJ/npysMwIG0bJflIo7/KQm+H+F3S7tq2S/7THIU1eEwOLgKddEI3v7yj5megi9Z8VjvXHmoxh4TnwWRY2rWREPgLe8b1Wlq9gWu8UfrpKPnBwCkYZ5p6jrZD4gB3wTDxv3guARNh97O4Vi+5Z5H2WoZBw4AYw4CsCwKeAeCeDC7f4wYuWcebdXhpDQOySgeU0XDvBhf22GMU7iuzCjvvcODSBg0r3CRhW4mk8cG1FQZX4AgrcyCLpGEkfR5WYzAqgXut4d22qOjIY8NrafH2Eh2xx5Zm3OE7m3GH7ewZA0TtPRoMi4YBtVfq4MMHyg8Yj2DriDScBsux0f5PW89QHx/fbH3PaAYfd1jhmMb4K7G8HOtZ4vhy6DcbuV0vgvyYhtq3lZT5Cpln0e418vi4kdOehmGOEdjW2HKD7wd4SsLKMExWYcWQ7bt8jpyRATJQUwZaWrxtDzGZAJ0HvuNg+J7FNpw2+cjKMEDigttlePTD9zy2dYFyHN/0963SYtUON0Nf76p3E1k22hFlD10OtoYc88PtDbyA2kxsSz6zkFtWhgFYOQ6jQvwwmS9pzPqIeg79MibkUf+xohmu8fPWtaJuSv60cULehgG+/FpavHYBOnXwgvYC2ykkbfcwUY72Eu0mdNWYFMQWDn48Eboj0f9gq1kYocqEcd6GAdXSZXtf0p9oXqLOertmaNtty6eIzzWy3iBtPS9COTSy3GshPxoGRHRStRB+o8ZRb8OARpUb051cwUHDgOQyI2eUGRkgA2SADJABMkAGyAAZIANkgAyQgeIzkLVhAMu8+GXezGWUlWGArDjFERP3zSazKaft6a+q1XmtmWFAQedCGsUwoNl4ZH7Yb5CBjskADQMK2hkWuULSMKBjNhb1YJKGAWStHtwxTnJHBsgAGSADZIAMkAEyQAbIABkgA3kzQMMAMpY3Y7UM38UwAN5gB3bZsOJ332r5e0qtpYwQF7Y4CMtr2La6tU5bPeOjYQDbw3ryx7jJX0djgIYBNAxIbHlJwwA2lLVqKGkYQNZqxRrjIWtkgAyQATJABsgAGSADZIAMkAEyUEsGaBhA3mrJW95xuRgG5J02hl/8ukbDgOKXEesRy4gMNA8DNAygYQANA8hAYgZq1QnQMKB5OptaMcN4yAwZIANkgAyQATJABsgAGSADZIAMNAIDNAwgp43AqW0aaRhAnm1ZCXuOhgHkJ4wLXiMXZCAfBmgYwEnhxJPC9BiQT2VkI1cpVxoGVMqEnFAmZIAMkAEyQAbIABkgA2SADJABMkAGGp8BGgY0fhmyHraXIQ0D2mVBLpLLYmSPbczM3j3NjF4HmPtWbb4tJMhEciYoM8qMDOTHAA0DaBhAwwAykJiBWjXKNAzIr/GvVRkyHpYhGSADZIAMkAEyQAbIABkgA2SADJCBSgZoGFApE3LSuDKhYUDjlh3rHcuODJABMtCxGKBhACeFE08K02NAx2ok6tkp0DCArNWTP8ZN/sgAGSADZIAMkAEyQAbIABkgA2QgLwZoGEC28mKrHuHSMIA814M7xknuyAAZIAPJGaBhAA0DaBhABhIzUKvGloYByRv1WpUN42HZkAEyQAbIABkgA2SADJABMkAGyAAZSM8ADQPSy47cFU92NAwoXpmwnrBMyAAZIANkIIwBGgZwUjjxpDA9BrAxCWtM8rhGwwCylgdXDJNckQEyQAbIABkgA2SADJABMkAGyEC9GaBhABmsN4NZxk/DAPKcJU8MizyRATJABvJjgIYBNAygYQAZSMxArRplGgbk1/jXqgwZD8uQDJABMkAGyAAZIANkgAyQATJABshAJQM0DKiUCTlpXJnQMKBxy471S00GCgAADxBJREFUjmVHBsgAGehYDNAwgJPCiSeF6TGgYzUS9ewUaBhA1urJH+Mmf2SADJABMkAGyAAZIANkgAyQATKQFwM0DCBbebFVj3BpGECe68Ed4yR3ZIAMkIHkDMAwYNBLxnRyFd7nn80w+LmGw/eTF2KtZUbDgOKXUa2ZyCs+GgaQtbzYYrhkiwyQATJABsgAGSADZIAMkAEyQAbqyQANA8hfPfnLOm4aBpDnrJlieGSKDJABMpAPAzQMoMeAxMYcNAzIpzKykauUKw0DKmVCTigTMkAGyAAZIANkgAyQATJABsgAGSADjc8ADQMavwxZD9vLkIYB7bIgF5QFGSADZIAMFJkBGAYgffQYQAMBawMBGgawUatVo0bDALJWK9YYD1kjA2SADJABMkAGyAAZIANkgAyQgVoyQMMA8lZL3vKOK8owYNIma1fVOQ/svKEZd9jOFb8H1lqj6rt55yvr8B/deJ2KfCLv/df/UtPlNWvZMTy2mWSADJCBbBiAYcA6nbenYQCBsgeKhgH2siJXbrKKNAzovhkHyzRmIgNkgAyQATJABsgAGSADZIAMkAEyQAYaloHWvbYwYcYB/VZtadg8UQ/mpgdrZPlN32L9UJ4nbvzVqjw/f/nBxnzat+L3RNeNqr7baDKbctqeFflE3kcf2LXp8tpoZcP0dtz2i2XPsu9oDMAwAL9OQ4YMMfxRBjYMjP/rLaEDvdeP3pcMsR5lysDoe/8ZytriH+2caTw23PMZto9kgAyQATJABsgAGSADZIAMkAEyQAbIQFYMLPrxrqE6jwm330idB/VrDcfAa8fuF8rz1GuvaLi8ZFXHGQ77CzJABsgAGSgyA51KpZLhjzKwYmD286EDvdK+XUxpwXxyxLqUHQP/+ms4a2cckl0cLC/KkgyQATJABsgAGSADZIAMkAEyQAbIABmoNQO9TwnXefzqBJZFrcuC8bkxN35UOMt7b2lKM6a4hc2yofzIABkgA2SADOTCAA0DCJY9WG1tpnTwd8MHfH+80D4cypyyimPg9VdN6fDu4ZxdeyllFyc73iMfZIAMkAEyQAbIABkgA2SADJABMkAGis3AfXeG6zwwmfqXq4qddrLF8hEGXng2Wn8HvR70yPIsj5QFGSADZIAMkIHCMEDDAMKYDMYrL4j+eLnjGlNqbU0WHuVPeWkGFswzpbMOj2Zs7AjKS8uL5+SBDJABMkAGyAAZIANkoIMw0NraaqZPn24GDRpk7r//fu+Hc1zDPU4+0BMiGSADDcMAFkQctFO07uO840xpxCBTeuVlU1q8iD/KoDgMLHzTlJ6dbkp/u86UfrhDNMO430HGJ8wn+x4yQAbIABloNAZoGMBBSrKBGgZ/+3aOHvid2NOU+t5oSkMeMaURA/mjDOwYeLyfKV37m/iPitN+TGtjtlfJ2ivKi/IiA2SADJABMkAGyEBTMLBo0SIzcOBA069fP/PQQw+ZRx991PvhHNdwD880mkKG6aUSkQx0YAb+flO0bg2eA/ijDBqVgUN2N6VFC9kncwxKBsgAGSADZKCgDNAwoKAFU+iPwzivAY06aGW6i//BNXY4OxK2V2SADJABMkAGyAAZIANkoIMxAG8A8AzQv39/7zhixAjz5JNPej+cyz0YB9BzQAeeZO1g9aLQOiOWhV0/tWSxKZ1xSPF1MdSXsYySMLDPVqY07HG7OsC2gnIiA2SADJABMlAXBmgYQPCSg/fm66Z0wgEcGCcZGPNZN15uuiI5p6zblBkZIANkgAyQATJABsgAGWh4BmbOnGkeeeQRM2zYMDNmzBgzYcIEM2nSJO+Hc1zDPTyDZzlhSuMAMkAGGoaB+XNN6Yg93fQl1DdRfkVi4O83sx/m2JMMkAEyQAbIQMEZoGFAwQuosB8zs58zpSP58ULXbjVwb/fbc0yJe4ayM2VbTQbIABkgA2SADJABMtAhGRg+fLgZMmSIGTt2rJk4caKZMmWKefrpp70fznEN9/AMni3sNzT5ZdmQATIQxsDL80zpzEM5uV2kyW2mJTmP+21tSv3vZh0Pq+O8Ri7IABkgA2SgYAzQMKBgBdJQSowF803p7KOSDxY5wKbMbBjYt7Mp3XEtOw22UWSADJABMkAGyAAZIANkoAMzgC0CRo0a5XkKgCHAtGnTzPTp070fznENngPwDJ5tqG/qDlyuLCeu6icDioElS0zprltN6Uc7U19koy/iM8XipNdJpjTzafa/7NPJABkgA2SADDQIAzQMaJCCKuwHU1ubKQ14wJSO2adYg1J+JDR2eVx4qik9M40dCdsnMkAGyAAZIANkgAyQATLQwRkYOnSot10APANMnTrVMwjAlgH4wUAA13APWwrg2cJ+O3fwcmS5qElgssB6GsUAtu588C5TuuTMFXq2A79jSvttwx9lUBwGDtjOlH6yqymddZgp3XiFKT09gfU5qj7zOtkgA2SADJCBgjJAw4CCFkzDfTTDQGDSWFO683pT+t15pnTBKaZ0/gn8UQYWDJxoShedbkp/usiU+v3dlObMZofBdokMkAEyQAbIABkgA2SADJABj4Fx48ZZGwbg2Yb7lmY5s8zIABkgA2SADJABMkAGyAAZIANkoEYM0DCgRoKmcoLW8WSADJABMkAGyAAZIANkgAyQATJABpIxMHv2bDN69Ggzfvx4b9uAp59+2t9KAOfYSgD38AyepXyTyZfyorzIABkgA2SADJABMkAGyAAZIAMdhwEaBtAwgIoTMkAGyAAZIANkgAyQATJABsgAGSADhWSgtbXV2ypg7NixZsKECZ4hALYPwA9GAbiGe9hOAM9SodVxFFosa5Y1GSADZIAMkAEyQAbIABkgA2QgGQM0DKDyh4oTMkAGyAAZIANkgAyQATJABsgAGSADhWVgyZIlZvLkyZ4BALYLgDEAfjiHUQDu4RkqhJIphCgvyosMkAEyQAbIABkgA2SADJABMtCxGKBhAJU/VJ6QATJABsgAGSADZIAMkAEyQAbIABkoNANtbW1m7ty5nqcAGATgB68BuIZ7VGZ1LGUWy5vlTQbIABkgA2SADJABMkAGyAAZSM4ADQOo/KEChQyQATJABsgAGSADZIAMkAEyQAbIABkgA2SADJABMkAGyAAZIANkgAyQATJABpqYgU433HCD4Y8yIANkgAyQATJABsgAGSADZIAMkAEyQAbIABkgA2SADJABMkAGyAAZIANkgAyQATLQnAzQY0ATW33QhUZyFxqUGWVGBsgAGSADZIAMkAEyQAbIABkgA2SADJABMkAGyAAZIANkgAyQATJABshAszHQyRT8r9kEzvywESEDZIAMkAEyQAbIABkgA2SADJABMkAGyAAZIANkgAyQATJABsgAGSADZIAMkIFaMkDDAHoM4F4hZIAMkAEyQAbIABkgA2SADJABMkAGyAAZIANkgAyQATJABsgAGSADZIAMkAEy0MQM0DCgiQu3lhYmjIsWTWSADJABMkAGyAAZIANkgAyQATJABsgAGSADZIAMkAEyQAbIABkgA2SADJCBYjJAwwAaBtDyhwyQATJABsgAGSADZIAMkAEyQAbIABkgA2SADJABMkAGyAAZIANkgAyQATJABpqYARoGNHHh0hqnmNY4LBeWCxkgA43OwODBg82AAQPMrFmzOEjkOCJzBiZPnuzxNX78+MzDbvS6x/Sz/yADZCBLBtifk6cseQqGxf6cfAWZ4P9kggyQATJABsgAGSADZIAM1J8BGgZQoU+lOxloOAYWL15sXn/9dbNw4cKGSzs7vvp3fCwDtzJ44oknzBZbbOH9RowYwTqYcR/S1tbmtW9o45YtW9Yh5Xv99dd7fHXt2tXMnTu3Q8qgUdop9sdu7WmjlDPTWZtyXrRokdf+41gLmbM/z7dc2Z+XDPvzfBmrRTvRDHFI24qxNcYtzZAn5qF56xb7juYtW9Zbli0ZIANkgAwUiYGmMwzAoH/48OHWP3wcFKlAGjktL730kunXr5+54YYbzCWXXGKuueYa7/8XXnjBWsaY6B06dKi56aabzJ133mmmTJliWltbrd/X8ps/f77PwZNPPmkwwNb35Rz3qjHz1FNPhb4rYdTrmGXaIZ+pU6eaiRMnmkmTJlWVOyas8Gzfvn3N1VdfbS6++GJz1VVXmX/961/mmWeeyVVeJ598sjdptOOOO+YaT73KlfEWf6Bw3XXXma222sr7Pf/88x2GQ9T7/fff36t/xxxzTKp827bNwXqQtI3S76NN+uc//+n1T/B08Oqrr9Y07Tot1c7Rrorhxe23354qncE4Go3XN9980+yyyy6eHM4///xMZBCUSdb/Z9kfI23z5s3z+ljwMGfOnKoywPOPPfaYufnmm83ll19uLr30UnPbbbeZQYMGmaVLl1Z9P6082B8Xv79KW7Z8r/Zle+SRR3rt3h577JFbnZVyZX9u950o8kpzZH9eMo3Yn6cp6zzfabQxXJ6ySBL2jBkzDMYou+66qz+uxvj6nHPOyb19TZJOPruir83qW62e8tx666093cB5553nxBh0k/ItePfddzuFFSePLHWvcfHwXu3Hk5Q5ZU4GyAAZIAM2DDSdYYD+AJfBVNxxyJAhuQ20bAqgGZ7BitHjjjvOGwSHybpLly7msssuM6+99lqsrO+44w7TuXNnfxAsYXXr1s1MmzYt9t0wOZ5wwgllYYVZh0NZLvHEHWuhoAvLQ9y1rNIOxSAm82WyT+QQNxGBFUbbbrttpOxQjr169TKYAIzLQ9p7J510khd3vQ0D7rnnHo/tK6+8Mpd8ppUP38t/AADDJ6krzz77bIcpfxgCSb5Hjx6dKt82bbNmOE0bJe9jtXnPnj39NEvat9xyS6/uynO2x6Rptw1XPzdhwgQ/vZjY1ffSnqfhFbJD343fqFGjMklHkvTfeOONnhxggAMjwSTv1vrZrPpjpBvtSe/evQ2Ui8Ir/o/LE4x05Nmw4957720efvjh2DDiwo+7V5T+uN68xsmI96L7ZI6jymVzxBFHeHW5e/fuudRXzSL78+rfiVpeac7Zn6/gu5H68zTlnPc7acZwrmlq9LYZC1a222670LHR2WefnXv76ir/jvR+1t9q9ZQdvi8xDnc1Phk2bJjPLgzb88hT1rrXPNLIMMvHiJQH5UEGyAAZIANZM/D/W3KRVFi9OQ4AAAAASUVORK5CYII=;" parent="1" vertex="1">
          <mxGeometry x="-2119.9966666666664" y="218.99666666666673" width="2054" height="74" as="geometry" />
        </mxCell>
        <mxCell id="Hc0r8CP2qwdwPxlLsBVn-3" value="&lt;font style=&quot;font-size: 50px&quot;&gt;省略中间3秒的抓包信息....&lt;/font&gt;" style="rounded=0;whiteSpace=wrap;html=1;fontColor=#333333;fillColor=#D5E8D4;strokeColor=none;" parent="1" vertex="1">
          <mxGeometry x="-2105" y="164" width="2034" height="60" as="geometry" />
        </mxCell>
      </root>
    </mxGraphModel>
  </diagram>
</mxfile>
